<svg width="44" height="44" fill="none" xmlns="http://www.w3.org/2000/svg">
  <g clip-path="url(#prefix__brand_logo_circle)" fill="currentColor">
    <path
      d="M11.883 31.852a.82.82 0 101.423-.82.82.82 0 00-1.422.82zm-2.395 2.166a1.23 1.23 0 102.13-1.228 1.23 1.23 0 00-2.13 1.228zm-3.416 3.077a1.846 1.846 0 103.199-1.845 1.846 1.846 0 00-3.199 1.845zm26.045-24.947a.82.82 0 10-1.423.82.82.82 0 001.423-.82zm2.395-2.166a1.23 1.23 0 10-2.13 1.228 1.23 1.23 0 002.13-1.228zm3.416-3.077a1.847 1.847 0 10-3.2 1.845 1.847 1.847 0 003.2-1.845zm-25.78 4.978a.82.82 0 10.82 1.423.82.82 0 00-.82-1.422zM9.982 9.488a1.23 1.23 0 101.228 2.13 1.23 1.23 0 00-1.228-2.13zM6.905 6.072A1.846 1.846 0 108.75 9.271a1.846 1.846 0 00-1.845-3.199zm24.947 26.045a.82.82 0 10-.82-1.423.82.82 0 00.82 1.423zm2.166 2.395a1.229 1.229 0 10-1.228-2.129 1.229 1.229 0 001.228 2.13zm3.077 3.416a1.847 1.847 0 10-1.845-3.2 1.847 1.847 0 001.845 3.2zM7.88 21.813a.82.82 0 101.585.426.82.82 0 00-1.585-.426zm-3.226-.163a1.23 1.23 0 102.375.638 1.23 1.23 0 00-2.375-.637zm-4.59-.24a1.846 1.846 0 103.566.958 1.846 1.846 0 00-3.566-.957zm36.056.777a.82.82 0 10-1.585-.426.82.82 0 001.585.426zm3.226.163a1.23 1.23 0 10-2.375-.638 1.23 1.23 0 002.375.637zm4.59.24a1.846 1.846 0 10-3.566-.958 1.846 1.846 0 003.566.957zM22.187 7.88a.82.82 0 10-.426 1.585.82.82 0 00.426-1.585zm.163-3.226a1.23 1.23 0 10-.638 2.375 1.23 1.23 0 00.637-2.375zm.24-4.59a1.846 1.846 0 10-.958 3.566 1.846 1.846 0 00.957-3.566zm-.777 36.056a.82.82 0 10.426-1.585.82.82 0 00-.426 1.585zm-.163 3.226a1.229 1.229 0 10.638-2.374 1.229 1.229 0 00-.638 2.373zm-.24 4.59a1.846 1.846 0 10.958-3.566 1.846 1.846 0 00-.957 3.566zm-4.637-8.818a.82.82 0 10.965-1.328.82.82 0 00-.965 1.328zm-1.306 2.954a1.23 1.23 0 101.444-1.99 1.23 1.23 0 00-1.444 1.99zM13.6 42.273a1.847 1.847 0 102.17-2.988 1.847 1.847 0 00-2.17 2.988zM27.227 8.882a.82.82 0 10-.965 1.328.82.82 0 00.965-1.328zm1.306-2.954a1.23 1.23 0 10-1.444 1.99 1.23 1.23 0 001.444-1.99zM30.4 1.727a1.846 1.846 0 10-2.17 2.988 1.846 1.846 0 002.17-2.988zM8.882 16.773a.82.82 0 101.328.965.82.82 0 00-1.328-.965zm-2.954-1.306a1.23 1.23 0 101.99 1.444 1.23 1.23 0 00-1.99-1.444zM1.727 13.6a1.847 1.847 0 102.988 2.17 1.847 1.847 0 00-2.988-2.17zm33.391 13.627a.82.82 0 10-1.328-.965.82.82 0 001.328.965zm2.954 1.306a1.229 1.229 0 10-1.989-1.444 1.229 1.229 0 001.989 1.444zm4.201 1.867a1.846 1.846 0 10-2.988-2.17 1.846 1.846 0 002.988 2.17zM9.028 27.58a.82.82 0 101.621-.257.82.82 0 00-1.621.257zm-3.012 1.165a1.23 1.23 0 102.428-.385 1.23 1.23 0 00-2.428.385zm-4.291 1.651a1.847 1.847 0 103.648-.579 1.847 1.847 0 00-3.648.579zM34.972 16.42a.82.82 0 10-1.621.257.82.82 0 001.621-.257zm3.012-1.165a1.23 1.23 0 10-2.428.385 1.23 1.23 0 002.428-.385zm4.291-1.651a1.846 1.846 0 10-3.648.579 1.846 1.846 0 003.648-.579zM16.42 9.028a.82.82 0 10.257 1.621.82.82 0 00-.257-1.621zm-1.165-3.012a1.23 1.23 0 10.385 2.428 1.23 1.23 0 00-.385-2.428zm-1.651-4.291a1.846 1.846 0 10.579 3.648 1.846 1.846 0 00-.579-3.648zM27.58 34.972a.82.82 0 10-.257-1.621.82.82 0 00.257 1.621zm1.165 3.012a1.23 1.23 0 10-.385-2.428 1.23 1.23 0 00.385 2.428zm1.651 4.291a1.846 1.846 0 10-.579-3.648 1.846 1.846 0 00.579 3.648z" />
  </g>
  <defs>
    <clipPath id="prefix__brand_logo_circle">
      <path fill="currentColor" d="M0 0h44v44H0z" />
    </clipPath>
  </defs>
</svg>