<svg xmlns="http://www.w3.org/2000/svg" width="44" height="44" viewBox="0 0 44 44">
  <defs>
    <style>
      .prefix__prefix__cls-1 {
        fill: currentColor
      }
    </style>
  </defs>
  <circle class="prefix__prefix__cls-1" cx="21.98" cy="8.67" r=".82" />
  <circle class="prefix__prefix__cls-1" cx="21.98" cy="5.84" r="1.23" />
  <circle class="prefix__prefix__cls-1" cx="21.98" cy="1.85" r="1.85" />
  <circle class="prefix__prefix__cls-1" cx="16.88" cy="9.7" r=".82" />
  <circle class="prefix__prefix__cls-1" cx="15.79" cy="7.08" r="1.23" />
  <circle class="prefix__prefix__cls-1" cx="14.26" cy="3.39" r="1.85" />
  <circle class="prefix__prefix__cls-1" cx="12.56" cy="12.59" r=".82" />
  <circle class="prefix__prefix__cls-1" cx="10.56" cy="10.59" r="1.23" />
  <circle class="prefix__prefix__cls-1" cx="7.73" cy="7.77" r="1.85" />
  <circle class="prefix__prefix__cls-1" cx="9.68" cy="16.92" r=".82" />
  <circle class="prefix__prefix__cls-1" cx="7.06" cy="15.84" r="1.23" />
  <circle class="prefix__prefix__cls-1" cx="3.37" cy="14.31" r="1.85" />
  <circle class="prefix__prefix__cls-1" cx="8.67" cy="22.02" r=".82" />
  <circle class="prefix__prefix__cls-1" cx="5.84" cy="22.02" r="1.23" />
  <circle class="prefix__prefix__cls-1" cx="1.85" cy="22.02" r="1.85" />
  <circle class="prefix__prefix__cls-1" cx="9.7" cy="27.12" r=".82" />
  <circle class="prefix__prefix__cls-1" cx="7.08" cy="28.21" r="1.23" />
  <circle class="prefix__prefix__cls-1" cx="3.39" cy="29.73" r="1.85" />
  <circle class="prefix__prefix__cls-1" cx="12.59" cy="31.44" r=".82" />
  <circle class="prefix__prefix__cls-1" cx="10.59" cy="33.44" r="1.23" />
  <circle class="prefix__prefix__cls-1" cx="7.77" cy="36.27" r="1.85" />
  <circle class="prefix__prefix__cls-1" cx="16.92" cy="34.32" r=".82" />
  <circle class="prefix__prefix__cls-1" cx="15.84" cy="36.94" r="1.23" />
  <circle class="prefix__prefix__cls-1" cx="14.31" cy="40.63" r="1.85" />
  <circle class="prefix__prefix__cls-1" cx="22.02" cy="35.33" r=".82" />
  <circle class="prefix__prefix__cls-1" cx="22.02" cy="38.16" r="1.23" />
  <circle class="prefix__prefix__cls-1" cx="22.02" cy="42.15" r="1.85" />
  <circle class="prefix__prefix__cls-1" cx="27.12" cy="34.3" r=".82" />
  <circle class="prefix__prefix__cls-1" cx="28.21" cy="36.92" r="1.23" />
  <circle class="prefix__prefix__cls-1" cx="29.73" cy="40.61" r="1.85" />
  <circle class="prefix__prefix__cls-1" cx="31.44" cy="31.41" r=".82" />
  <circle class="prefix__prefix__cls-1" cx="33.44" cy="33.41" r="1.23" />
  <circle class="prefix__prefix__cls-1" cx="36.27" cy="36.23" r="1.85" />
  <circle class="prefix__prefix__cls-1" cx="34.32" cy="27.08" r=".82" />
  <circle class="prefix__prefix__cls-1" cx="36.94" cy="28.16" r="1.23" />
  <circle class="prefix__prefix__cls-1" cx="40.63" cy="29.69" r="1.85" />
  <circle class="prefix__prefix__cls-1" cx="35.33" cy="21.98" r=".82" />
  <circle class="prefix__prefix__cls-1" cx="38.16" cy="21.98" r="1.23" />
  <circle class="prefix__prefix__cls-1" cx="42.15" cy="21.98" r="1.85" />
  <circle class="prefix__prefix__cls-1" cx="34.3" cy="16.88" r=".82" />
  <circle class="prefix__prefix__cls-1" cx="36.92" cy="15.79" r="1.23" />
  <circle class="prefix__prefix__cls-1" cx="40.61" cy="14.26" r="1.85" />
  <circle class="prefix__prefix__cls-1" cx="31.41" cy="12.56" r=".82" />
  <circle class="prefix__prefix__cls-1" cx="33.41" cy="10.56" r="1.23" />
  <circle class="prefix__prefix__cls-1" cx="36.23" cy="7.73" r="1.85" />
  <circle class="prefix__prefix__cls-1" cx="27.08" cy="9.68" r=".82" />
  <circle class="prefix__prefix__cls-1" cx="28.16" cy="7.06" r="1.23" />
  <circle class="prefix__prefix__cls-1" cx="29.69" cy="3.37" r="1.85" />
</svg>