<svg width="32" height="32" viewBox="0 0 32 32" fill="none" xmlns="http://www.w3.org/2000/svg">
<g clip-path="url(#clip0_384_6944)">
<path fill-rule="evenodd" clip-rule="evenodd" d="M25.1924 7.51472C25.3876 7.31945 25.3876 7.00287 25.1924 6.80761C24.9971 6.61235 24.6805 6.61235 24.4853 6.80761L16 15.2929L7.51472 6.80762C7.31945 6.61236 7.00287 6.61236 6.80761 6.80762C6.61235 7.00289 6.61235 7.31947 6.80761 7.51473L15.2929 16L6.8076 24.4853C6.61234 24.6805 6.61234 24.9971 6.8076 25.1924C7.00286 25.3876 7.31944 25.3876 7.51471 25.1924L16 16.7071L24.4853 25.1924C24.6805 25.3877 24.9971 25.3877 25.1924 25.1924C25.3876 24.9971 25.3876 24.6806 25.1924 24.4853L16.7071 16L25.1924 7.51472Z" fill="#E1E4E7"/>
</g>
<defs>
<clipPath id="clip0_384_6944">
<rect width="32" height="32" fill="white"/>
</clipPath>
</defs>
</svg>
