<svg width="20" height="20" viewBox="0 0 20 20" fill="none" xmlns="http://www.w3.org/2000/svg">
<path fill-rule="evenodd" clip-rule="evenodd" d="M14.7934 3.00858C14.0792 2.29437 12.8946 2.39241 12.3075 3.21432L11.0496 4.9755C10.4915 5.75681 9.59041 6.22052 8.63024 6.22052C7.3997 6.22052 6.21956 6.70935 5.34943 7.57947L4.69655 8.23236C4.37111 8.5578 4.37111 9.08544 4.69655 9.41087L7.05325 11.7676L2.74414 16.0772C3.1665 16.4996 3.6665 16.9994 3.92272 17.2556L8.23176 12.9461L10.5891 15.3034C10.9145 15.6289 11.4422 15.6289 11.7676 15.3034L12.4205 14.6505C13.2906 13.7804 13.7795 12.6003 13.7795 11.3697C13.7795 10.4096 14.2432 9.5085 15.0245 8.95042L16.7857 7.69244C17.6076 7.10536 17.7056 5.92077 16.9914 5.20656L14.7934 3.00858ZM12.4058 5.94423L13.6417 4.21391L15.7861 6.35826L14.0557 7.5942C12.8364 8.46514 12.1128 9.87131 12.1128 11.3697C12.1128 12.1582 11.7996 12.9145 11.242 13.472L11.1784 13.5357L6.46431 8.82162L6.52795 8.75798C7.08551 8.20042 7.84173 7.88718 8.63024 7.88718C10.1287 7.88718 11.5348 7.16354 12.4058 5.94423Z" fill="#656769"/>
</svg>
