<svg xmlns="http://www.w3.org/2000/svg" width="26" height="26" fill="none">
  <g>
    <path fill="#404347"
      d="M26 .226l-.612 4.48c-1.59-.123-2.753.205-3.487.982s-1.183 1.82-1.346 3.13a23.863 23.863 0 00-.122 4.234H26V26H15.539V10.597c0-3.764.938-6.586 2.814-8.468C20.27.247 22.819-.387 26 .226zm-15.539 0l-.612 4.48c-1.59-.123-2.753.205-3.487.982s-1.182 1.82-1.346 3.13c-.163 1.309-.203 2.72-.122 4.234h5.567V26H0V10.597C0 6.833.938 4.011 2.814 2.13 4.731.247 7.28-.387 10.461.226z" />
  </g>
</svg>