<svg width="20" height="20" viewBox="0 0 20 20" fill="none" xmlns="http://www.w3.org/2000/svg">
<g clip-path="url(#clip0_115_308)">
<path fill-rule="evenodd" clip-rule="evenodd" d="M15.3203 18.1494C15.5887 18.3394 15.9345 18.3869 16.2428 18.2702C16.5512 18.1527 16.7778 17.8894 16.8462 17.5702C17.5703 14.1669 19.327 5.5527 19.9862 2.45687C20.0362 2.22354 19.9528 1.98104 19.7695 1.8252C19.5862 1.66937 19.332 1.62437 19.1053 1.70854C15.6112 3.00187 4.85033 7.03937 0.451998 8.66687C0.172832 8.7702 -0.00883512 9.03854 0.000331545 9.3327C0.0103315 9.6277 0.208665 9.88354 0.494498 9.96937C2.467 10.5594 5.05616 11.3802 5.05616 11.3802C5.05616 11.3802 6.26616 15.0344 6.897 16.8927C6.97616 17.126 7.15866 17.3094 7.3995 17.3727C7.6395 17.4352 7.89616 17.3694 8.07533 17.2002C9.08866 16.2435 10.6553 14.7644 10.6553 14.7644C10.6553 14.7644 13.632 16.9469 15.3203 18.1494ZM6.14533 10.9185L7.5445 15.5335L7.85533 12.611C7.85533 12.611 13.2612 7.7352 16.3428 4.95604C16.4328 4.87437 16.4453 4.7377 16.3703 4.64187C16.2962 4.54604 16.1595 4.52354 16.057 4.58854C12.4853 6.86937 6.14533 10.9185 6.14533 10.9185Z" fill="#F9F9F9"/>
</g>
<defs>
<clipPath id="clip0_115_308">
<rect width="20" height="20" fill="white"/>
</clipPath>
</defs>
</svg>
