<?xml version="1.0" encoding="UTF-8"?>
<!DOCTYPE svg PUBLIC "-//W3C//DTD SVG 1.1//EN" "http://www.w3.org/Graphics/SVG/1.1/DTD/svg11.dtd">
<svg xmlns="http://www.w3.org/2000/svg" version="1.1" width="2800px" height="2800px" style="shape-rendering:geometricPrecision; text-rendering:geometricPrecision; image-rendering:optimizeQuality; fill-rule:evenodd; clip-rule:evenodd" xmlns:xlink="http://www.w3.org/1999/xlink">
<g><path style="opacity:1" fill="#000000" d="M -0.5,-0.5 C 932.833,-0.5 1866.17,-0.5 2799.5,-0.5C 2799.5,932.833 2799.5,1866.17 2799.5,2799.5C 1866.17,2799.5 932.833,2799.5 -0.5,2799.5C -0.5,1866.17 -0.5,932.833 -0.5,-0.5 Z"/></g>
<g><path style="opacity:1" fill="#fefefe" d="M 1393.5,399.5 C 1436.62,397.466 1466.79,416.133 1484,455.5C 1495.58,498.753 1482.74,532.587 1445.5,557C 1405.53,575.868 1370.36,569.368 1340,537.5C 1317.6,507.695 1314.6,476.029 1331,442.5C 1345.48,418.837 1366.32,404.503 1393.5,399.5 Z"/></g>
<g><path style="opacity:1" fill="#fefefe" d="M 1717.5,462.5 C 1760.49,458.734 1791.32,476.067 1810,514.5C 1823.65,557.546 1812.15,592.046 1775.5,618C 1734.71,638.453 1698.55,632.286 1667,599.5C 1646.88,572.459 1642.88,543.125 1655,511.5C 1668.16,485.194 1688.99,468.861 1717.5,462.5 Z"/></g>
<g><path style="opacity:1" fill="#fefefe" d="M 1022.5,476.5 C 1064.08,475.519 1093.25,493.853 1110,531.5C 1121.96,572.289 1111.13,605.456 1077.5,631C 1052.77,645.729 1026.77,648.396 999.5,639C 960.897,620.308 943.73,589.475 948,546.5C 955.5,513.331 975.334,491.165 1007.5,480C 1012.6,478.64 1017.6,477.474 1022.5,476.5 Z"/></g>
<g><path style="opacity:1" fill="#fdfdfd" d="M 1389.5,609.5 C 1421.58,606.443 1443.42,619.776 1455,649.5C 1460.6,678.116 1451.1,699.95 1426.5,715C 1395.43,727.417 1370.6,719.917 1352,692.5C 1339.17,664.316 1344.33,640.149 1367.5,620C 1374.32,615.237 1381.65,611.737 1389.5,609.5 Z"/></g>
<g><path style="opacity:1" fill="#fdfdfd" d="M 1653.5,658.5 C 1687.94,656.138 1709.78,671.472 1719,704.5C 1721.54,737.601 1707.04,759.101 1675.5,769C 1645.23,772.953 1623.73,761.12 1611,733.5C 1602.55,704.254 1611.05,681.421 1636.5,665C 1642.05,662.21 1647.72,660.043 1653.5,658.5 Z"/></g>
<g><path style="opacity:1" fill="#fefefe" d="M 742.5,664.5 C 787.056,661.607 817.889,680.607 835,721.5C 844.438,755.916 836.605,785.749 811.5,811C 777.315,837.524 741.981,839.191 705.5,816C 673.963,789.707 664.463,756.874 677,717.5C 689.796,688.525 711.63,670.859 742.5,664.5 Z"/></g>
<g><path style="opacity:1" fill="#fdfdfd" d="M 2038.5,671.5 C 2076.4,668.864 2105.23,683.531 2125,715.5C 2142.94,755.826 2135.77,790.992 2103.5,821C 2067.01,846.272 2031.01,845.606 1995.5,819C 1967.01,790.892 1959.84,758.059 1974,720.5C 1987.63,693.694 2009.13,677.361 2038.5,671.5 Z"/></g>
<g><path style="opacity:1" fill="#fdfdfd" d="M 1091.5,672.5 C 1125.93,670.124 1147.77,685.457 1157,718.5C 1159.54,751.609 1145.04,773.109 1113.5,783C 1077.18,786.663 1054.68,770.83 1046,735.5C 1044.84,702.519 1060.01,681.519 1091.5,672.5 Z"/></g>
<g><path style="opacity:1" fill="#fcfcfc" d="M 1390.5,756.5 C 1413.19,754.384 1428.02,764.05 1435,785.5C 1437.74,810.422 1426.9,825.589 1402.5,831C 1373.19,830.016 1359.69,814.849 1362,785.5C 1366.32,770.677 1375.82,761.011 1390.5,756.5 Z"/></g>
<g><path style="opacity:1" fill="#fcfcfc" d="M 1605.5,796.5 C 1629,793.655 1644.5,803.322 1652,825.5C 1652.97,856.859 1637.81,871.692 1606.5,870C 1586.42,863.017 1576.92,848.85 1578,827.5C 1581.38,811.959 1590.54,801.626 1605.5,796.5 Z"/></g>
<g><path style="opacity:1" fill="#fcfcfc" d="M 1143.5,809.5 C 1165.2,807.423 1180.03,816.423 1188,836.5C 1191.31,853.568 1186.15,867.401 1172.5,878C 1144.91,890.451 1125.75,882.617 1115,854.5C 1112.57,831.794 1122.07,816.794 1143.5,809.5 Z"/></g>
<g><path style="opacity:1" fill="#fdfdfd" d="M 870.5,823.5 C 904.137,821.019 925.97,835.686 936,867.5C 940.027,900.421 926.527,922.255 895.5,933C 865.564,938.947 843.731,928.447 830,901.5C 819.646,872.231 827.146,848.731 852.5,831C 858.374,827.883 864.374,825.383 870.5,823.5 Z"/></g>
<g><path style="opacity:1" fill="#fdfdfd" d="M 1909.5,825.5 C 1943.48,823.058 1965.31,838.058 1975,870.5C 1977.98,904.153 1963.48,925.986 1931.5,936C 1902.22,939.944 1881.05,928.778 1868,902.5C 1857.79,863.564 1871.63,837.897 1909.5,825.5 Z"/></g>
<g><path style="opacity:1" fill="#fcfcfc" d="M 1817.5,933.5 C 1839.41,930.697 1854.58,939.363 1863,959.5C 1866.43,992.407 1851.59,1008.24 1818.5,1007C 1797.62,1000.09 1788.12,985.592 1790,963.5C 1793.81,948.522 1802.98,938.522 1817.5,933.5 Z"/></g>
<g><path style="opacity:1" fill="#fcfcfc" d="M 963.5,934.5 C 993.386,934.218 1007.89,948.884 1007,978.5C 1001.11,1000.7 986.609,1010.87 963.5,1009C 940.427,1002.04 930.594,986.541 934,962.5C 938.883,947.779 948.717,938.446 963.5,934.5 Z"/></g>
<g><path style="opacity:1" fill="#fefefe" d="M 2224.5,947.5 C 2265.58,944.115 2295.74,960.449 2315,996.5C 2328.31,1031.33 2322.64,1062.66 2298,1090.5C 2272.33,1113.94 2242.83,1120.44 2209.5,1110C 2167.29,1091.1 2149.46,1058.6 2156,1012.5C 2166.07,977.26 2188.9,955.593 2224.5,947.5 Z"/></g>
<g><path style="opacity:1" fill="#fefefe" d="M 531.5,983.5 C 574.451,979.716 605.285,997.049 624,1035.5C 637.651,1078.55 626.151,1113.05 589.5,1139C 564.274,1152.42 538.274,1154.08 511.5,1144C 472.607,1123.38 456.774,1091.21 464,1047.5C 474.394,1013.27 496.894,991.936 531.5,983.5 Z"/></g>
<g><path style="opacity:1" fill="#fdfdfd" d="M 2063.5,1045.5 C 2096.45,1044.65 2117.29,1059.98 2126,1091.5C 2129.07,1114.97 2121.24,1133.8 2102.5,1148C 2071.97,1164.61 2045.81,1159.44 2024,1132.5C 2014.64,1115.98 2012.97,1098.64 2019,1080.5C 2028.01,1061.27 2042.84,1049.6 2063.5,1045.5 Z"/></g>
<g><path style="opacity:1" fill="#fdfdfd" d="M 704.5,1079.5 C 737.584,1077.45 759.084,1092.11 769,1123.5C 772.522,1160.29 756.356,1182.79 720.5,1191C 696.282,1192.47 677.782,1182.97 665,1162.5C 650.904,1128.45 659.738,1102.29 691.5,1084C 695.98,1082.56 700.313,1081.06 704.5,1079.5 Z"/></g>
<g><path style="opacity:1" fill="#fcfcfc" d="M 1944.5,1114.5 C 1967.19,1112.38 1982.02,1122.05 1989,1143.5C 1991.72,1168.44 1980.89,1183.6 1956.5,1189C 1926.35,1187.59 1912.85,1171.76 1916,1141.5C 1921.21,1127.79 1930.71,1118.79 1944.5,1114.5 Z"/></g>
<g><path style="opacity:1" fill="#fcfcfc" d="M 825.5,1146.5 C 855.859,1145.69 870.693,1160.36 870,1190.5C 864.964,1209.69 852.464,1220.02 832.5,1221.5C 814.361,1219.52 802.527,1209.85 797,1192.5C 794.071,1169.34 803.571,1154.01 825.5,1146.5 Z"/></g>
<g><path style="opacity:1" fill="#fefefe" d="M 472.5,1310.5 C 517.731,1308.35 548.231,1328.35 564,1370.5C 573.355,1412.27 560.188,1444.77 524.5,1468C 483.906,1487.08 448.406,1480.25 418,1447.5C 396.049,1417 393.716,1385 411,1351.5C 425.536,1328.78 446.036,1315.12 472.5,1310.5 Z"/></g>
<g><path style="opacity:1" fill="#fefefe" d="M 2304.5,1320.5 C 2353.11,1318.7 2384.28,1341.04 2398,1387.5C 2403.77,1429.8 2387.94,1460.96 2350.5,1481C 2304.95,1497.41 2268.78,1485.58 2242,1445.5C 2223.14,1405.49 2229.64,1370.32 2261.5,1340C 2274.28,1329.91 2288.61,1323.41 2304.5,1320.5 Z"/></g>
<g><path style="opacity:1" fill="#fdfdfd" d="M 654.5,1342.5 C 688.132,1340.01 709.965,1354.68 720,1386.5C 723.538,1418.62 710.371,1440.45 680.5,1452C 650.646,1458.15 628.479,1447.98 614,1421.5C 603.548,1392.79 610.381,1369.29 634.5,1351C 640.934,1347.27 647.601,1344.44 654.5,1342.5 Z"/></g>
<g><path style="opacity:1" fill="#fdfdfd" d="M 2122.5,1345.5 C 2156.61,1342.49 2178.78,1357.15 2189,1389.5C 2192.47,1414.04 2184.3,1433.54 2164.5,1448C 2139.16,1461.46 2115.66,1458.96 2094,1440.5C 2078.6,1422.51 2074.6,1402.18 2082,1379.5C 2090.52,1362.15 2104.02,1350.81 2122.5,1345.5 Z"/></g>
<g><path style="opacity:1" fill="#fcfcfc" d="M 1995.5,1361.5 C 2019.14,1358.34 2034.64,1368 2042,1390.5C 2044.59,1413.21 2035.09,1428.05 2013.5,1435C 1988.59,1437.75 1973.42,1426.91 1968,1402.5C 1967.47,1382.22 1976.64,1368.55 1995.5,1361.5 Z"/></g>
<g><path style="opacity:1" fill="#fcfcfc" d="M 785.5,1363.5 C 807.176,1361.41 822.009,1370.41 830,1390.5C 833.314,1407.56 828.148,1421.4 814.5,1432C 795.432,1441.68 778.599,1438.85 764,1423.5C 751.359,1402.52 754.525,1384.35 773.5,1369C 777.475,1366.85 781.475,1365.02 785.5,1363.5 Z"/></g>
<g><path style="opacity:1" fill="#fcfcfc" d="M 1960.5,1577.5 C 1990.33,1578.49 2004.16,1593.83 2002,1623.5C 1995.02,1645.13 1980.19,1654.63 1957.5,1652C 1935.47,1644.79 1925.97,1629.62 1929,1606.5C 1933.99,1590.77 1944.49,1581.1 1960.5,1577.5 Z"/></g>
<g><path style="opacity:1" fill="#fdfdfd" d="M 2077.5,1607.5 C 2110.46,1606.65 2131.29,1621.99 2140,1653.5C 2142.88,1685.93 2129.05,1707.43 2098.5,1718C 2069.74,1723.04 2048.24,1712.87 2034,1687.5C 2022.42,1655.24 2031.25,1630.4 2060.5,1613C 2066.15,1610.72 2071.81,1608.88 2077.5,1607.5 Z"/></g>
<g><path style="opacity:1" fill="#fdfdfd" d="M 836.5,1610.5 C 869.028,1608.2 884.528,1623.2 883,1655.5C 876.03,1677.12 861.196,1686.62 838.5,1684C 816.891,1677.04 807.391,1662.2 810,1639.5C 814.185,1625.49 823.018,1615.82 836.5,1610.5 Z"/></g>
<g><path style="opacity:1" fill="#fdfdfd" d="M 718.5,1641.5 C 751.584,1639.45 773.084,1654.11 783,1685.5C 786.652,1721.83 770.818,1744.33 735.5,1753C 710.885,1754.78 692.051,1745.28 679,1724.5C 665.5,1693.68 672.333,1668.52 699.5,1649C 705.722,1645.88 712.056,1643.38 718.5,1641.5 Z"/></g>
<g><path style="opacity:1" fill="#fefefe" d="M 2238.5,1648.5 C 2282.5,1644.74 2313.67,1662.74 2332,1702.5C 2344.2,1744.92 2332.36,1778.75 2296.5,1804C 2255.64,1824.85 2219.47,1818.69 2188,1785.5C 2167.9,1758.81 2163.9,1729.81 2176,1698.5C 2189,1671.93 2209.83,1655.26 2238.5,1648.5 Z"/></g>
<g><path style="opacity:1" fill="#fefefe" d="M 546.5,1684.5 C 595.837,1681.05 628.004,1702.71 643,1749.5C 649.478,1792.04 633.978,1823.54 596.5,1844C 554.882,1860.12 520.048,1850.95 492,1816.5C 468.826,1778.29 471.826,1742.29 501,1708.5C 513.908,1696.13 529.075,1688.13 546.5,1684.5 Z"/></g>
<g><path style="opacity:1" fill="#fcfcfc" d="M 1822.5,1789.5 C 1852.82,1789.98 1866.98,1805.31 1865,1835.5C 1858.04,1856.4 1843.54,1865.9 1821.5,1864C 1799.24,1857 1789.41,1841.84 1792,1818.5C 1796.54,1802.79 1806.71,1793.12 1822.5,1789.5 Z"/></g>
<g><path style="opacity:1" fill="#fcfcfc" d="M 963.5,1791.5 C 993.834,1790 1009,1804.34 1009,1834.5C 1002.56,1858.25 987.058,1868.42 962.5,1865C 942.326,1857.49 933.159,1842.99 935,1821.5C 938.945,1806.06 948.445,1796.06 963.5,1791.5 Z"/></g>
<g><path style="opacity:1" fill="#fdfdfd" d="M 867.5,1862.5 C 892.723,1859.28 912.556,1867.95 927,1888.5C 939.702,1914.26 936.536,1937.76 917.5,1959C 896.682,1975.56 874.349,1977.89 850.5,1966C 825.333,1947.86 817.833,1924.02 828,1894.5C 836.573,1878.09 849.74,1867.42 867.5,1862.5 Z"/></g>
<g><path style="opacity:1" fill="#fdfdfd" d="M 1907.5,1864.5 C 1939.16,1861.73 1960.66,1875.07 1972,1904.5C 1977.85,1938.65 1964.68,1961.81 1932.5,1974C 1897.09,1979.56 1873.93,1965.39 1863,1931.5C 1859.39,1896.67 1874.23,1874.34 1907.5,1864.5 Z"/></g>
<g><path style="opacity:1" fill="#fcfcfc" d="M 1637.5,1915.5 C 1661.18,1912.39 1676.68,1922.06 1684,1944.5C 1686.59,1967.21 1677.09,1982.05 1655.5,1989C 1633.28,1991.65 1618.45,1982.48 1611,1961.5C 1607.71,1939.08 1616.54,1923.74 1637.5,1915.5 Z"/></g>
<g><path style="opacity:1" fill="#fcfcfc" d="M 1175.5,1928.5 C 1205.81,1926.98 1220.98,1941.32 1221,1971.5C 1214.55,1995.26 1199.05,2005.43 1174.5,2002C 1153.53,1994.58 1144.36,1979.74 1147,1957.5C 1151.35,1942.65 1160.85,1932.98 1175.5,1928.5 Z"/></g>
<g><path style="opacity:1" fill="#fefefe" d="M 738.5,1959.5 C 773.259,1957.8 800.425,1971.13 820,1999.5C 840.832,2040.01 834.999,2076.17 802.5,2108C 776.748,2127.63 748.415,2132.3 717.5,2122C 675.042,2101.58 658.208,2068.08 667,2021.5C 678.688,1986.63 702.522,1965.97 738.5,1959.5 Z"/></g>
<g><path style="opacity:1" fill="#fdfdfd" d="M 2035.5,1966.5 C 2077.18,1965.91 2106.35,1984.58 2123,2022.5C 2133.39,2057.76 2125.56,2088.26 2099.5,2114C 2072.59,2135.74 2042.92,2140.41 2010.5,2128C 1968.93,2106.36 1953.1,2072.52 1963,2026.5C 1975.58,1992.41 1999.75,1972.41 2035.5,1966.5 Z"/></g>
<g><path style="opacity:1" fill="#fcfcfc" d="M 1396.5,1967.5 C 1426.32,1969.16 1439.82,1984.82 1437,2014.5C 1429.55,2035.48 1414.72,2044.65 1392.5,2042C 1370.85,2035 1361.35,2020.17 1364,1997.5C 1369.01,1980.98 1379.84,1970.98 1396.5,1967.5 Z"/></g>
<g><path style="opacity:1" fill="#fdfdfd" d="M 1685.5,2015.5 C 1721.83,2012.37 1744.33,2028.37 1753,2063.5C 1754.35,2096.47 1739.18,2117.31 1707.5,2126C 1684.05,2129.08 1665.21,2121.24 1651,2102.5C 1634.39,2071.97 1639.56,2045.81 1666.5,2024C 1672.62,2020.47 1678.95,2017.64 1685.5,2015.5 Z"/></g>
<g><path style="opacity:1" fill="#fdfdfd" d="M 1123.5,2029.5 C 1159.35,2026.32 1181.85,2041.99 1191,2076.5C 1192.75,2107.86 1178.92,2128.69 1149.5,2139C 1115.22,2144.62 1092.39,2131.12 1081,2098.5C 1076.35,2063.78 1090.52,2040.78 1123.5,2029.5 Z"/></g>
<g><path style="opacity:1" fill="#fdfdfd" d="M 1386.5,2078.5 C 1415.83,2075.07 1437,2086.41 1450,2112.5C 1459.47,2144.35 1449.97,2168.52 1421.5,2185C 1392.79,2195.45 1369.29,2188.62 1351,2164.5C 1337.54,2139.16 1340.04,2115.66 1358.5,2094C 1366.81,2086.82 1376.15,2081.65 1386.5,2078.5 Z"/></g>
<g><path style="opacity:1" fill="#fefefe" d="M 1755.5,2154.5 C 1806.46,2151.98 1838.29,2175.32 1851,2224.5C 1854.86,2262.6 1840.7,2291.77 1808.5,2312C 1767.69,2330.61 1732.19,2323.44 1702,2290.5C 1682.97,2263.86 1679.3,2235.19 1691,2204.5C 1704.25,2177.07 1725.75,2160.41 1755.5,2154.5 Z"/></g>
<g><path style="opacity:1" fill="#fefefe" d="M 1053.5,2169.5 C 1104.35,2166.65 1136.52,2189.65 1150,2238.5C 1154.18,2278.97 1138.68,2309.14 1103.5,2329C 1058.7,2346.17 1022.53,2335.34 995,2296.5C 974.147,2255.64 980.313,2219.47 1013.5,2188C 1025.53,2178.82 1038.86,2172.65 1053.5,2169.5 Z"/></g>
<g><path style="opacity:1" fill="#fefefe" d="M 1383.5,2231.5 C 1426.42,2229.44 1456.42,2247.94 1473.5,2287C 1484.54,2323.83 1475.87,2355.17 1447.5,2381C 1416.98,2402.73 1384.98,2405.06 1351.5,2388C 1319.57,2366.58 1306.4,2336.74 1312,2298.5C 1322.19,2261.47 1346.03,2239.14 1383.5,2231.5 Z"/></g>
</svg>
