<svg width="44" height="44" viewBox="0 0 44 44" fill="none" xmlns="http://www.w3.org/2000/svg">
<path d="M11.8835 31.8524C12.11 32.2451 12.612 32.3799 13.0047 32.1534C13.3974 31.9269 13.5321 31.4249 13.3056 31.0322C13.0791 30.6395 12.5771 30.5047 12.1845 30.7312C11.7917 30.9578 11.657 31.4598 11.8835 31.8524Z" fill="white"/>
<path d="M9.48772 34.018C9.82687 34.606 10.5785 34.8078 11.1665 34.4686C11.7545 34.1294 11.9562 33.3778 11.6171 32.7898C11.2779 32.2018 10.5263 32 9.93822 32.3392C9.35023 32.6784 9.14857 33.43 9.48772 34.018Z" fill="white"/>
<path d="M6.07202 37.0949C6.58158 37.9783 7.71075 38.2813 8.59417 37.7717C9.47759 37.2622 9.78071 36.133 9.27115 35.2496C8.7616 34.3662 7.63238 34.0631 6.74896 34.5727C5.86554 35.0822 5.56247 36.2115 6.07202 37.0949Z" fill="white"/>
<path d="M32.1165 12.1476C31.89 11.7549 31.388 11.6201 30.9953 11.8467C30.6026 12.0732 30.4679 12.5752 30.6944 12.9678C30.9209 13.3605 31.4229 13.4953 31.8156 13.2688C32.2083 13.0423 32.343 12.5403 32.1165 12.1476Z" fill="white"/>
<path d="M34.5123 9.98203C34.1731 9.39404 33.4215 9.19225 32.8335 9.5314C32.2455 9.8706 32.0438 10.6222 32.3829 11.2102C32.7221 11.7982 33.4737 12 34.0618 11.6608C34.6498 11.3217 34.8514 10.57 34.5123 9.98203Z" fill="white"/>
<path d="M37.928 6.90516C37.4184 6.02174 36.2892 5.71874 35.4058 6.2283C34.5224 6.73785 34.2193 7.867 34.7288 8.75041C35.2384 9.63383 36.3676 9.93691 37.251 9.42735C38.1345 8.9178 38.4375 7.78858 37.928 6.90516Z" fill="white"/>
<path d="M12.1476 11.8835C11.7549 12.11 11.6201 12.612 11.8467 13.0048C12.0731 13.3974 12.5751 13.5321 12.9678 13.3056C13.3605 13.0791 13.4953 12.5771 13.2688 12.1845C13.0422 11.7917 12.5402 11.657 12.1476 11.8835Z" fill="white"/>
<path d="M9.98202 9.48772C9.39403 9.82687 9.19223 10.5785 9.53139 11.1665C9.87059 11.7545 10.6222 11.9562 11.2102 11.6171C11.7982 11.2779 12 10.5263 11.6608 9.93822C11.3217 9.35023 10.57 9.14856 9.98202 9.48772Z" fill="white"/>
<path d="M6.90516 6.07204C6.02175 6.58159 5.71875 7.71077 6.22831 8.59419C6.73786 9.47761 7.867 9.78073 8.75042 9.27117C9.63384 8.76161 9.93691 7.63239 9.42736 6.74897C8.9178 5.86556 7.78858 5.56248 6.90516 6.07204Z" fill="white"/>
<path d="M31.8524 32.1165C32.2451 31.89 32.3798 31.388 32.1533 30.9953C31.9268 30.6026 31.4248 30.4679 31.0321 30.6944C30.6395 30.9209 30.5047 31.4229 30.7312 31.8156C30.9577 32.2083 31.4597 32.343 31.8524 32.1165Z" fill="white"/>
<path d="M34.018 34.5123C34.606 34.1732 34.8078 33.4216 34.4686 32.8336C34.1294 32.2455 33.3778 32.0438 32.7898 32.383C32.2018 32.7221 32 33.4737 32.3392 34.0618C32.6783 34.6498 33.43 34.8515 34.018 34.5123Z" fill="white"/>
<path d="M37.0948 37.928C37.9783 37.4184 38.2812 36.2893 37.7717 35.4058C37.2621 34.5224 36.133 34.2193 35.2496 34.7289C34.3662 35.2384 34.0631 36.3676 34.5726 37.2511C35.0822 38.1345 36.2114 38.4375 37.0948 37.928Z" fill="white"/>
<path d="M7.87986 21.8133C7.76235 22.2511 8.02198 22.7014 8.45989 22.8189C8.89771 22.9364 9.34789 22.6767 9.46539 22.2389C9.5829 21.801 9.32328 21.3508 8.88546 21.2333C8.44755 21.1158 7.99737 21.3755 7.87986 21.8133Z" fill="white"/>
<path d="M4.65448 21.6505C4.47852 22.3061 4.8673 22.9802 5.52289 23.1562C6.17856 23.3322 6.85266 22.9433 7.02862 22.2877C7.20457 21.6321 6.81579 20.9579 6.16011 20.7819C5.50452 20.606 4.83043 20.9949 4.65448 21.6505Z" fill="white"/>
<path d="M0.0635756 21.4109C-0.200785 22.3959 0.383413 23.4086 1.36839 23.6729C2.35338 23.9373 3.36614 23.3532 3.6305 22.3682C3.89486 21.3833 3.31068 20.3705 2.3257 20.1061C1.34072 19.8417 0.327936 20.4259 0.0635756 21.4109Z" fill="white"/>
<path d="M36.1201 22.1868C36.2376 21.749 35.978 21.2987 35.5401 21.1812C35.1023 21.0637 34.6521 21.3234 34.5346 21.7612C34.4171 22.199 34.6767 22.6493 35.1145 22.7668C35.5524 22.8843 36.0026 22.6246 36.1201 22.1868Z" fill="white"/>
<path d="M39.3455 22.3495C39.5215 21.694 39.1327 21.0198 38.4771 20.8438C37.8214 20.6679 37.1473 21.0568 36.9714 21.7123C36.7954 22.3679 37.1842 23.0421 37.8399 23.2181C38.4955 23.394 39.1696 23.0051 39.3455 22.3495Z" fill="white"/>
<path d="M43.9364 22.5891C44.2008 21.6041 43.6166 20.5914 42.6316 20.3271C41.6466 20.0627 40.6339 20.6468 40.3695 21.6318C40.1051 22.6168 40.6893 23.6296 41.6743 23.8939C42.6593 24.1583 43.6721 23.5741 43.9364 22.5891Z" fill="white"/>
<path d="M22.1867 7.87987C21.7489 7.76236 21.2986 8.02199 21.1811 8.4599C21.0636 8.89772 21.3233 9.3479 21.7612 9.4654C22.199 9.58291 22.6492 9.32329 22.7667 8.88547C22.8843 8.44756 22.6245 7.99738 22.1867 7.87987Z" fill="white"/>
<path d="M22.3495 4.65448C21.6939 4.47853 21.0198 4.8673 20.8438 5.52289C20.6679 6.17857 21.0567 6.85267 21.7123 7.02862C22.3679 7.20458 23.0421 6.81579 23.2181 6.16011C23.394 5.50452 23.0051 4.83044 22.3495 4.65448Z" fill="white"/>
<path d="M22.5891 0.0635757C21.6041 -0.200785 20.5914 0.383413 20.3271 1.36839C20.0627 2.35338 20.6468 3.36614 21.6318 3.6305C22.6168 3.89486 23.6295 3.31069 23.8939 2.3257C24.1583 1.34072 23.5741 0.327937 22.5891 0.0635757Z" fill="white"/>
<path d="M21.8132 36.1202C22.2511 36.2377 22.7013 35.978 22.8188 35.5401C22.9364 35.1023 22.6766 34.6521 22.2388 34.5346C21.801 34.4171 21.3507 34.6767 21.2332 35.1146C21.1157 35.5525 21.3754 36.0026 21.8132 36.1202Z" fill="white"/>
<path d="M21.6504 39.3455C22.306 39.5215 22.9802 39.1327 23.1561 38.4771C23.3321 37.8214 22.9432 37.1473 22.2876 36.9714C21.6321 36.7954 20.9579 37.1842 20.7819 37.8399C20.606 38.4955 20.9949 39.1696 21.6504 39.3455Z" fill="white"/>
<path d="M21.4109 43.9364C22.3958 44.2008 23.4085 43.6166 23.6729 42.6316C23.9373 41.6466 23.3532 40.6339 22.3682 40.3695C21.3832 40.1051 20.3704 40.6893 20.1061 41.6743C19.8417 42.6593 20.4259 43.6721 21.4109 43.9364Z" fill="white"/>
<path d="M16.7729 35.1184C17.1397 35.3848 17.6531 35.3034 17.9195 34.9366C18.1859 34.5698 18.1044 34.0565 17.7377 33.7901C17.3709 33.5237 16.8576 33.605 16.5912 33.9718C16.3247 34.3386 16.4062 34.852 16.7729 35.1184Z" fill="white"/>
<path d="M15.4667 38.0719C16.0159 38.4708 16.7846 38.349 17.1835 37.7998C17.5824 37.2505 17.4605 36.4819 16.9113 36.083C16.3621 35.6841 15.5934 35.8059 15.1945 36.3552C14.7956 36.9044 14.9175 37.673 15.4667 38.0719Z" fill="white"/>
<path d="M13.6002 42.2731C14.4254 42.8724 15.58 42.6893 16.1794 41.8641C16.7787 41.039 16.5957 39.8843 15.7705 39.2849C14.9454 38.6856 13.7906 38.8687 13.1913 39.6939C12.592 40.519 12.775 41.6738 13.6002 42.2731Z" fill="white"/>
<path d="M27.2271 8.88168C26.8603 8.61528 26.347 8.6966 26.0805 9.06346C25.8142 9.43024 25.8956 9.94355 26.2624 10.2099C26.6292 10.4763 27.1425 10.395 27.4089 10.0282C27.6753 9.66139 27.5939 9.14807 27.2271 8.88168Z" fill="white"/>
<path d="M28.5333 5.92813C27.9841 5.52923 27.2154 5.65102 26.8165 6.20024C26.4176 6.74953 26.5395 7.51815 27.0887 7.91705C27.6379 8.31595 28.4066 8.19415 28.8055 7.64486C29.2044 7.09565 29.0825 6.32703 28.5333 5.92813Z" fill="white"/>
<path d="M30.3998 1.72692C29.5747 1.1276 28.42 1.31073 27.8207 2.13589C27.2213 2.96105 27.4043 4.11576 28.2295 4.71508C29.0547 5.3144 30.2094 5.13132 30.8087 4.30616C31.4081 3.481 31.225 2.32624 30.3998 1.72692Z" fill="white"/>
<path d="M8.88167 16.7729C8.61527 17.1397 8.6966 17.6531 9.06345 17.9195C9.43023 18.1859 9.94354 18.1044 10.2099 17.7377C10.4763 17.3709 10.395 16.8576 10.0282 16.5912C9.66138 16.3247 9.14806 16.4062 8.88167 16.7729Z" fill="white"/>
<path d="M5.92813 15.4667C5.52923 16.0159 5.65102 16.7846 6.20024 17.1835C6.74953 17.5824 7.51815 17.4605 7.91705 16.9113C8.31594 16.3621 8.19415 15.5934 7.64486 15.1945C7.09564 14.7956 6.32703 14.9175 5.92813 15.4667Z" fill="white"/>
<path d="M1.72694 13.6002C1.12762 14.4254 1.31075 15.58 2.13591 16.1794C2.96107 16.7787 4.11578 16.5957 4.7151 15.7705C5.31442 14.9454 5.13134 13.7906 4.30618 13.1913C3.48102 12.592 2.32626 12.775 1.72694 13.6002Z" fill="white"/>
<path d="M35.1183 27.2271C35.3847 26.8603 35.3034 26.347 34.9365 26.0805C34.5697 25.8141 34.0564 25.8956 33.79 26.2624C33.5236 26.6292 33.605 27.1425 33.9717 27.4089C34.3386 27.6753 34.8519 27.5939 35.1183 27.2271Z" fill="white"/>
<path d="M38.0719 28.5333C38.4708 27.9841 38.349 27.2155 37.7998 26.8166C37.2505 26.4176 36.4819 26.5395 36.083 27.0887C35.6841 27.638 35.8059 28.4066 36.3552 28.8055C36.9044 29.2044 37.673 29.0825 38.0719 28.5333Z" fill="white"/>
<path d="M42.2731 30.3998C42.8724 29.5747 42.6893 28.42 41.8641 27.8207C41.0389 27.2213 39.8842 27.4043 39.2849 28.2295C38.6856 29.0547 38.8687 30.2094 39.6938 30.8088C40.519 31.4081 41.6738 31.225 42.2731 30.3998Z" fill="white"/>
<path d="M9.02784 27.58C9.09883 28.0277 9.51931 28.3332 9.96713 28.2622C10.4149 28.1912 10.7202 27.7707 10.6492 27.3229C10.5783 26.8752 10.1578 26.5697 9.71005 26.6407C9.26224 26.7117 8.95686 27.1323 9.02784 27.58Z" fill="white"/>
<path d="M6.01574 28.7448C6.12203 29.4152 6.75166 29.8726 7.42207 29.7663C8.09258 29.66 8.54987 29.0303 8.44358 28.3599C8.33729 27.6895 7.70765 27.2321 7.03714 27.3384C6.36673 27.4447 5.90945 28.0744 6.01574 28.7448Z" fill="white"/>
<path d="M1.72523 30.3957C1.88493 31.4029 2.83091 32.0899 3.83817 31.9302C4.84543 31.7705 5.53253 30.8246 5.37283 29.8174C5.21314 28.8101 4.26714 28.123 3.25988 28.2827C2.25262 28.4424 1.56554 29.3884 1.72523 30.3957Z" fill="white"/>
<path d="M34.9722 16.4201C34.9012 15.9724 34.4807 15.6669 34.0329 15.7379C33.5852 15.8089 33.2798 16.2294 33.3508 16.6772C33.4218 17.1249 33.8423 17.4304 34.29 17.3594C34.7378 17.2884 35.0432 16.8678 34.9722 16.4201Z" fill="white"/>
<path d="M37.9843 15.2552C37.878 14.5848 37.2484 14.1274 36.5779 14.2337C35.9074 14.34 35.4502 14.9697 35.5564 15.6401C35.6627 16.3105 36.2924 16.7679 36.9629 16.6616C37.6333 16.5553 38.0906 15.9256 37.9843 15.2552Z" fill="white"/>
<path d="M42.2748 13.6043C42.1151 12.5971 41.1691 11.9101 40.1619 12.0698C39.1546 12.2295 38.4675 13.1754 38.6272 14.1826C38.7869 15.1899 39.7329 15.877 40.7401 15.7173C41.7474 15.5576 42.4345 14.6116 42.2748 13.6043Z" fill="white"/>
<path d="M16.42 9.02784C15.9723 9.09883 15.6668 9.51931 15.7378 9.96713C15.8088 10.4149 16.2294 10.7202 16.6771 10.6492C17.1248 10.5783 17.4303 10.1578 17.3593 9.71005C17.2883 9.26224 16.8678 8.95686 16.42 9.02784Z" fill="white"/>
<path d="M15.2552 6.01574C14.5848 6.12203 14.1274 6.75165 14.2337 7.42207C14.34 8.09258 14.9697 8.54986 15.6401 8.44357C16.3105 8.33729 16.7679 7.70765 16.6616 7.03714C16.5553 6.36672 15.9256 5.90945 15.2552 6.01574Z" fill="white"/>
<path d="M13.6043 1.72523C12.5971 1.88492 11.9101 2.8309 12.0698 3.83816C12.2295 4.84542 13.1754 5.53252 14.1826 5.37283C15.1899 5.21313 15.877 4.26714 15.7173 3.25988C15.5576 2.25262 14.6116 1.56553 13.6043 1.72523Z" fill="white"/>
<path d="M27.5799 34.9722C28.0277 34.9012 28.3331 34.4807 28.2621 34.0329C28.1912 33.5852 27.7706 33.2798 27.3229 33.3508C26.8751 33.4218 26.5697 33.8423 26.6406 34.29C26.7116 34.7378 27.1322 35.0432 27.5799 34.9722Z" fill="white"/>
<path d="M28.7448 37.9843C29.4152 37.878 29.8726 37.2484 29.7663 36.5779C29.66 35.9074 29.0303 35.4502 28.3599 35.5564C27.6895 35.6627 27.2321 36.2924 27.3384 36.9629C27.4447 37.6333 28.0744 38.0906 28.7448 37.9843Z" fill="white"/>
<path d="M30.3956 42.2748C31.4029 42.1151 32.0899 41.1691 31.9302 40.1619C31.7705 39.1546 30.8246 38.4675 29.8173 38.6272C28.8101 38.7869 28.123 39.7329 28.2827 40.7401C28.4424 41.7474 29.3884 42.4345 30.3956 42.2748Z" fill="white"/>
</svg>
