<svg width="260" height="120" viewBox="0 0 260 120" fill="none" xmlns="http://www.w3.org/2000/svg">
<rect x="1.2998" y="0.5" width="258.2" height="119" rx="19.5" fill="#121315"/>
<rect x="1.2998" y="0.5" width="258.2" height="119" rx="19.5" stroke="#62666D"/>
<g clip-path="url(#clip0_966_1993)">
<path fill-rule="evenodd" clip-rule="evenodd" d="M50.9087 51.5632C48.9305 54.9459 47.9508 56.6628 47.9508 56.747C47.9508 56.7966 48.8061 58.3169 49.8517 60.1253C51.0767 62.2439 51.7922 63.3428 51.8637 63.2153C51.9246 63.1065 52.7902 61.6079 53.7872 59.8851L55.5997 56.7527L53.7781 53.5845C52.7763 51.842 51.9054 50.3586 51.843 50.2881C51.7806 50.2175 51.3601 50.7913 50.9087 51.5632ZM83.9542 63.3176V70.6045L85.3418 70.5615L86.7294 70.5183V63.3176V56.1169L85.3418 56.0737L83.9542 56.0307V63.3176ZM130.009 57.242V58.4421H131.359H132.709V57.242V56.0419H131.359H130.009V57.242ZM71.362 63.5051C69.937 67.1974 68.7363 70.3051 68.6938 70.4112C68.6331 70.5627 68.9505 70.5949 70.1677 70.5612L71.719 70.5183L72.1869 69.2432L72.6548 67.968H75.6954H78.7359L79.2112 69.2432L79.6866 70.5183L81.2203 70.561C82.3321 70.5921 82.754 70.5546 82.754 70.4248C82.754 70.3264 81.5896 67.2187 80.1664 63.5189L77.5789 56.792H75.7659H73.9529L71.362 63.5051ZM137.659 56.9559C137.659 57.0463 138.756 60.1535 140.096 63.8611L142.533 70.6021L144.259 70.5603L145.985 70.5183L148.416 63.8426C149.753 60.171 150.85 57.0827 150.853 56.9795C150.859 56.8415 150.464 56.792 149.36 56.792C148.535 56.792 147.86 56.8127 147.86 56.8379C147.86 56.9313 144.399 67.2037 144.352 67.2513C144.325 67.2784 143.5 64.9361 142.519 62.0462L140.736 56.792H139.197C138.184 56.792 137.659 56.8479 137.659 56.9559ZM175.078 57.6546C175.024 57.964 174.903 58.6221 174.809 59.1172L174.638 60.0173L173.919 60.0633L173.199 60.1092L173.243 61.1134L173.288 62.1175L173.925 62.1635L174.563 62.2097L174.564 65.3888C174.564 67.1374 174.631 68.8083 174.713 69.1017C175.08 70.4233 176.843 71.0874 178.651 70.5853L179.213 70.4292V69.5361V68.6431H178.567C177.351 68.6431 177.344 68.626 177.292 65.2051L177.245 62.1925H178.229H179.213V61.1496V60.1065L178.276 60.062L177.338 60.0173L177.295 58.5546L177.252 57.092H176.214H175.176L175.078 57.6546ZM74.6792 62.2316C74.1572 63.7364 73.6938 65.0858 73.6492 65.2303C73.5747 65.4718 73.7382 65.4928 75.6858 65.4928C76.8507 65.4928 77.8036 65.4629 77.8036 65.4266C77.8036 65.3902 77.445 64.3606 77.0067 63.1389C76.5685 61.9171 76.1209 60.5968 76.0121 60.2048C75.9033 59.8128 75.7725 59.493 75.7214 59.4939C75.6702 59.4948 75.2013 60.7267 74.6792 62.2316ZM105.197 60.0135C104.876 60.128 104.334 60.4963 103.992 60.832C103.277 61.5332 103.157 61.5725 103.154 61.1049C103.148 60.1644 103.056 60.0923 101.863 60.0923H100.756V65.3428V70.5933H102.096H103.436L103.484 67.0036C103.537 62.9844 103.56 62.8937 104.69 62.2747C105.379 61.8977 106.207 62.072 106.667 62.6907C106.963 63.0893 106.984 63.3311 107.028 66.8536L107.075 70.5933H108.416H109.757V67.2132C109.757 63.5528 109.82 63.189 110.574 62.4925C111.117 61.9918 112.291 61.9595 112.763 62.4324C113.257 62.9262 113.35 63.6802 113.353 67.2555L113.357 70.5933H114.707H116.057V66.6452C116.057 62.1397 115.94 61.4166 115.077 60.6028C113.843 59.4385 111.439 59.5596 110.121 60.8524L109.485 61.4772L108.833 60.8004C107.894 59.8253 106.545 59.5333 105.197 60.0135ZM123.107 59.9324C122.451 60.1317 121.847 60.5009 121.392 60.979C121.15 61.2339 120.901 61.4424 120.839 61.4424C120.777 61.4424 120.68 61.1386 120.625 60.7674L120.524 60.0923H119.415H118.307V65.3428V70.5933H119.658H121.008V67.2031C121.008 63.472 121.084 63.0791 121.925 62.4804C122.818 61.8446 124.179 61.9828 124.708 62.7627C124.953 63.1227 124.988 63.5785 125.032 66.8804L125.081 70.5933H126.42H127.758V66.6844C127.758 64.2258 127.694 62.5201 127.585 62.0873C127.327 61.0638 126.41 60.1757 125.388 59.96C124.497 59.7719 123.668 59.7618 123.107 59.9324ZM154.372 59.9469C152.288 60.3599 151.07 61.6871 150.705 63.9396C150.371 66.0015 150.824 68.0858 151.855 69.233C152.725 70.2005 153.71 70.6131 155.379 70.7086C158.414 70.8825 160.342 69.7055 160.701 67.4587L160.8 66.8429H159.463H158.127L157.906 67.4734C157.615 68.3069 156.967 68.6891 155.831 68.6972C154.386 68.7076 153.718 68.1056 153.473 66.5709L153.372 65.9428H157.089H160.806L160.715 64.7052C160.665 64.0246 160.522 63.1271 160.396 62.7109C160.127 61.8177 159.298 60.793 158.533 60.4057C157.44 59.853 155.773 59.6692 154.372 59.9469ZM167.361 59.9324C166.706 60.1317 166.101 60.5009 165.646 60.979C165.404 61.2339 165.155 61.4424 165.093 61.4424C165.031 61.4424 164.935 61.1386 164.879 60.7674L164.778 60.0923H163.67H162.562V65.3428V70.5933H163.912H165.262V67.2031C165.262 63.4601 165.337 63.0801 166.194 62.4696C167.217 61.7415 168.768 62.0723 169.116 63.0926C169.234 63.4369 169.298 64.818 169.304 67.1054L169.312 70.5933H170.662H172.012V66.6452C172.012 62.0501 171.917 61.4979 170.979 60.6502C170.171 59.9202 168.494 59.5876 167.361 59.9324ZM196.618 59.9597C196.083 60.173 195.726 60.533 195.372 61.2174C195.068 61.8045 195.059 61.8094 194.953 61.4424C194.893 61.2361 194.838 60.8479 194.83 60.5798L194.815 60.0923H193.613H192.411L192.45 65.3053L192.489 70.5183L193.877 70.5615L195.265 70.6045L195.265 67.4112C195.265 64.6673 195.302 64.1452 195.527 63.7033C195.937 62.9004 196.477 62.5905 197.592 62.5195L198.565 62.4576V61.2159C198.565 60.2222 198.518 59.9562 198.328 59.8833C197.976 59.7485 197.043 59.7902 196.618 59.9597ZM202.465 60.03C200.076 60.6617 198.842 62.7744 199.06 65.8615C199.221 68.1414 200.03 69.4916 201.705 70.276C202.447 70.6231 202.725 70.6668 204.191 70.6657C205.098 70.6651 206.125 70.5792 206.472 70.4749C207.819 70.0697 208.896 68.8287 209.135 67.4055L209.23 66.8429H207.869H206.508L206.421 67.2805C206.139 68.6893 203.642 69.2332 202.535 68.1267C202.186 67.7774 201.868 66.8992 201.866 66.2804L201.865 65.9428H205.541H209.216L209.213 65.3803C209.204 63.5764 208.708 61.9756 207.887 61.0911C206.832 59.9555 204.485 59.4963 202.465 60.03ZM213.491 59.993C211.606 60.4844 210.716 61.4696 210.716 63.0648C210.717 64.6268 211.692 65.4554 214.345 66.1502C216.371 66.6806 217.015 66.9679 217.186 67.4178C217.682 68.7231 214.698 69.327 213.467 68.1706C213.274 67.9892 213.116 67.7175 213.116 67.5669C213.116 67.3219 212.973 67.293 211.766 67.293H210.416V67.6956C210.416 68.8764 211.599 70.0616 213.257 70.5439C214.558 70.9218 217.055 70.7566 218.152 70.2199C219.56 69.531 220.206 68.2576 219.942 66.6929C219.724 65.4002 218.764 64.7702 215.937 64.0617C214.047 63.5882 213.416 63.2531 213.416 62.7232C213.416 62.1377 214.022 61.8352 215.172 61.846C216.248 61.856 216.903 62.189 216.99 62.77C217.035 63.0725 217.121 63.0926 218.377 63.0926H219.717L219.714 62.68C219.705 61.5786 218.844 60.593 217.467 60.1074C216.681 59.8302 214.371 59.7639 213.491 59.993ZM88.9046 63.8353C88.9046 65.9905 88.9745 67.9046 89.0696 68.3476C89.3793 69.7918 90.6179 70.7337 92.2151 70.74C93.4298 70.7448 94.4536 70.3894 95.2534 69.6855C96.0114 69.0183 96.0124 69.0187 96.1383 70.1432C96.179 70.5063 96.2165 70.5183 97.3054 70.5183H98.4305L98.47 65.3053L98.5094 60.0923H97.0823H95.6553V63.3974C95.6553 66.985 95.5771 67.4287 94.844 68.0054C94.0081 68.6629 92.4808 68.5613 91.9922 67.8158C91.7921 67.5103 91.7549 66.8767 91.7549 63.7729V60.0923H90.3298H88.9046V63.8353ZM130.009 65.3428V70.5933H131.359H132.709V65.3428V60.0923H131.359H130.009V65.3428ZM180.744 64.3302C180.794 69.1573 180.84 69.3621 182.052 70.2182C182.651 70.6407 182.774 70.668 184.064 70.6623C185.589 70.6555 186.278 70.4058 187.135 69.549C187.386 69.2982 187.624 69.0931 187.663 69.0931C187.703 69.0931 187.782 69.4307 187.839 69.8432L187.942 70.5933H189.053H190.164V65.3428V60.0923H188.814H187.464V63.3224C187.464 66.8864 187.395 67.2456 186.58 67.9316C185.652 68.7123 184.254 68.5949 183.702 67.6901C183.44 67.2597 183.415 66.9031 183.414 63.6551L183.414 60.0923H182.057H180.7L180.744 64.3302ZM42.9473 65.3275C41.3263 68.1242 40 70.4532 40 70.503C40 70.5526 45.2655 70.5933 51.7011 70.5933C60.4688 70.5933 63.4022 70.5498 63.4022 70.4196C63.4022 70.2137 57.6646 60.2488 57.5439 60.2449C57.4984 60.2435 56.1874 62.4463 54.6307 65.1401C51.9336 69.8071 51.789 70.0238 51.5631 69.7365C51.4327 69.5706 50.1447 67.369 48.7008 64.8441C47.2569 62.3191 46.0349 60.2507 45.9851 60.2477C45.9355 60.2447 44.5684 62.5306 42.9473 65.3275ZM154.761 61.9988C154.198 62.2057 153.707 62.8823 153.504 63.7301L153.405 64.1427H155.658C157.823 64.1427 157.911 64.1308 157.911 63.8378C157.911 63.3264 157.52 62.5608 157.084 62.2177C156.765 61.967 156.477 61.8952 155.828 61.9043C155.365 61.9108 154.885 61.9534 154.761 61.9988ZM203.14 62.0342C202.975 62.1019 202.725 62.2856 202.584 62.4429C202.319 62.737 201.865 63.7132 201.865 63.9879C201.865 64.0875 202.669 64.1427 204.116 64.1427C205.816 64.1427 206.366 64.0969 206.365 63.9552C206.362 63.4052 206.003 62.6161 205.6 62.2771C205.222 61.9595 204.994 61.8941 204.291 61.9019C203.823 61.9072 203.305 61.9667 203.14 62.0342Z" fill="#E1E4E7"/>
</g>
<defs>
<clipPath id="clip0_966_1993">
<rect width="180" height="60" fill="white" transform="translate(40.3998 30)"/>
</clipPath>
</defs>
</svg>
