<svg width="260" height="120" viewBox="0 0 260 120" fill="none" xmlns="http://www.w3.org/2000/svg">
<rect x="0.899902" y="0.5" width="258.2" height="119" rx="19.5" fill="#121315"/>
<rect x="0.899902" y="0.5" width="258.2" height="119" rx="19.5" stroke="#62666D"/>
<g clip-path="url(#clip0_966_1922)">
<g clip-path="url(#clip1_966_1922)">
<path d="M46.0842 66.0489C44.2166 66.0489 42.7356 65.5198 41.6413 64.4616C40.547 63.3888 39.9999 61.8456 39.9999 59.8322V56.2167C39.9999 54.2033 40.547 52.6675 41.6413 51.6093C42.7356 50.5364 44.2166 50 46.0842 50C47.9226 50 49.3378 50.5144 50.33 51.5432C51.3368 52.5719 51.8401 53.9755 51.8401 55.7538V55.8861H49.4984V55.6876C49.4984 54.6442 49.2139 53.7918 48.6448 53.1304C48.0903 52.4691 47.2368 52.1384 46.0842 52.1384C44.9169 52.1384 44.005 52.4984 43.3484 53.2186C42.6918 53.924 42.3636 54.9087 42.3636 56.1726V59.8762C42.3636 61.1255 42.6918 62.1101 43.3484 62.8302C44.005 63.5504 44.9169 63.9105 46.0842 63.9105C47.2368 63.9105 48.0903 63.5798 48.6448 62.9184C49.2139 62.2424 49.4984 61.39 49.4984 60.3612V59.9864H51.8401V60.2951C51.8401 62.0734 51.3368 63.4769 50.33 64.5057C49.3378 65.5345 47.9226 66.0489 46.0842 66.0489Z" fill="#E1E4E7"/>
<path d="M57.8714 66.049C57.0981 66.049 56.405 65.9167 55.7922 65.6522C55.194 65.3876 54.7125 64.9982 54.3478 64.4838C53.9976 63.9694 53.8225 63.3448 53.8225 62.6099C53.8225 61.8604 53.9976 61.2431 54.3478 60.7582C54.7125 60.2585 55.2013 59.8837 55.8141 59.6338C56.4415 59.384 57.1492 59.2591 57.9371 59.2591H61.22V58.5536C61.22 57.9217 61.0302 57.4147 60.6509 57.0326C60.2715 56.6504 59.688 56.4594 58.9001 56.4594C58.1267 56.4594 57.5358 56.6431 57.1273 57.0105C56.7188 57.3779 56.4488 57.8555 56.3175 58.4434L54.2164 57.76C54.3915 57.1721 54.6688 56.6431 55.0481 56.1728C55.442 55.6878 55.96 55.2983 56.602 55.0044C57.244 54.7104 58.0173 54.5635 58.9219 54.5635C60.3226 54.5635 61.4242 54.9236 62.2267 55.6437C63.0292 56.3638 63.4304 57.3852 63.4304 58.708V63.1831C63.4304 63.6241 63.6347 63.8445 64.0432 63.8445H64.9624V65.7403H63.2772C62.7666 65.7403 62.3507 65.6081 62.0297 65.3435C61.7087 65.079 61.5482 64.719 61.5482 64.2633V64.1972H61.22C61.1032 64.4177 60.9281 64.6748 60.6947 64.9688C60.4612 65.2627 60.1183 65.5199 59.6661 65.7403C59.2137 65.9461 58.6155 66.049 57.8714 66.049ZM58.1997 64.1751C59.1043 64.1751 59.8338 63.918 60.3883 63.4036C60.9427 62.8745 61.22 62.1544 61.22 61.2431V61.0227H58.0684C57.4701 61.0227 56.9887 61.155 56.6239 61.4195C56.2592 61.6694 56.0767 62.0441 56.0767 62.5438C56.0767 63.0435 56.2664 63.4403 56.6458 63.7343C57.0252 64.0282 57.5431 64.1751 58.1997 64.1751Z" fill="#E1E4E7"/>
<path d="M67.1543 65.7404V54.8722H69.3648V56.5035H69.7149C69.9192 56.0626 70.284 55.6511 70.8092 55.269C71.3345 54.8869 72.1151 54.6958 73.151 54.6958C73.9681 54.6958 74.6903 54.8795 75.3178 55.2469C75.9597 55.6143 76.4631 56.1361 76.8279 56.8121C77.1927 57.4735 77.375 58.2745 77.375 59.215V65.7404H75.1208V59.3914C75.1208 58.4508 74.8873 57.7601 74.4204 57.3192C73.9535 56.8636 73.3115 56.6358 72.4945 56.6358C71.5607 56.6358 70.8092 56.9444 70.2402 57.5617C69.6858 58.1789 69.4085 59.0754 69.4085 60.2512V65.7404H67.1543Z" fill="#E1E4E7"/>
<path d="M94.0842 65.7404V54.8722H96.2947V56.5035H96.6449C96.8491 56.0626 97.2139 55.6511 97.7392 55.269C98.2644 54.8869 99.045 54.6958 100.081 54.6958C100.898 54.6958 101.62 54.8795 102.248 55.2469C102.89 55.6143 103.393 56.1361 103.758 56.8121C104.123 57.4735 104.305 58.2745 104.305 59.215V65.7404H102.051V59.3914C102.051 58.4508 101.817 57.7601 101.35 57.3192C100.883 56.8636 100.241 56.6358 99.4244 56.6358C98.4905 56.6358 97.7392 56.9444 97.1701 57.5617C96.6156 58.1789 96.3385 59.0754 96.3385 60.2512V65.7404H94.0842Z" fill="#E1E4E7"/>
<path d="M107.549 65.7402V54.8719H109.804V65.7402H107.549ZM108.687 53.3949C108.249 53.3949 107.877 53.2553 107.571 52.9761C107.279 52.6821 107.133 52.3074 107.133 51.8518C107.133 51.3962 107.279 51.0287 107.571 50.7495C107.877 50.4556 108.249 50.3086 108.687 50.3086C109.139 50.3086 109.511 50.4556 109.804 50.7495C110.095 51.0287 110.241 51.3962 110.241 51.8518C110.241 52.3074 110.095 52.6821 109.804 52.9761C109.511 53.2553 109.139 53.3949 108.687 53.3949Z" fill="#E1E4E7"/>
<path d="M118.161 66.049C117.124 66.049 116.183 65.8285 115.337 65.3876C114.506 64.9467 113.842 64.3074 113.346 63.4697C112.864 62.632 112.624 61.6252 112.624 60.4495V60.1629C112.624 58.9872 112.864 57.9878 113.346 57.1648C113.842 56.3271 114.506 55.6878 115.337 55.2469C116.183 54.7913 117.124 54.5635 118.161 54.5635C119.196 54.5635 120.08 54.7545 120.809 55.1366C121.538 55.5188 122.122 56.0258 122.56 56.6578C123.012 57.2897 123.304 57.9878 123.435 58.752L121.246 59.215C121.174 58.73 121.021 58.2891 120.787 57.8923C120.554 57.4955 120.225 57.1795 119.802 56.9444C119.379 56.7092 118.847 56.5916 118.204 56.5916C117.577 56.5916 117.008 56.7386 116.497 57.0326C116.001 57.3118 115.607 57.7233 115.316 58.267C115.024 58.7962 114.878 59.4428 114.878 60.207V60.4054C114.878 61.1697 115.024 61.8236 115.316 62.3675C115.607 62.9112 116.001 63.3228 116.497 63.602C117.008 63.8812 117.577 64.0209 118.204 64.0209C119.153 64.0209 119.875 63.7783 120.371 63.2933C120.868 62.7936 121.181 62.1617 121.312 61.3975L123.501 61.9045C123.326 62.6541 123.012 63.3448 122.56 63.9767C122.122 64.6087 121.538 65.1158 120.809 65.4979C120.08 65.8653 119.196 66.049 118.161 66.049Z" fill="#E1E4E7"/>
<path d="M129.449 66.049C128.676 66.049 127.983 65.9167 127.37 65.6522C126.772 65.3876 126.29 64.9982 125.926 64.4838C125.576 63.9694 125.401 63.3448 125.401 62.6099C125.401 61.8604 125.576 61.2431 125.926 60.7582C126.29 60.2585 126.779 59.8837 127.392 59.6338C128.019 59.384 128.727 59.2591 129.515 59.2591H132.798V58.5536C132.798 57.9217 132.609 57.4147 132.229 57.0326C131.85 56.6504 131.266 56.4594 130.478 56.4594C129.705 56.4594 129.114 56.6431 128.706 57.0105C128.297 57.3779 128.027 57.8555 127.896 58.4434L125.795 57.76C125.969 57.1721 126.247 56.6431 126.626 56.1728C127.02 55.6878 127.538 55.2983 128.18 55.0044C128.822 54.7104 129.596 54.5635 130.5 54.5635C131.901 54.5635 133.002 54.9236 133.805 55.6437C134.607 56.3638 135.008 57.3852 135.008 58.708V63.1831C135.008 63.6241 135.213 63.8445 135.622 63.8445H136.54V65.7403H134.855C134.345 65.7403 133.929 65.6081 133.608 65.3435C133.287 65.079 133.126 64.719 133.126 64.2633V64.1972H132.798C132.681 64.4177 132.506 64.6748 132.273 64.9688C132.039 65.2627 131.696 65.5199 131.244 65.7403C130.792 65.9461 130.193 66.049 129.449 66.049ZM129.778 64.1751C130.682 64.1751 131.412 63.918 131.966 63.4036C132.521 62.8745 132.798 62.1544 132.798 61.2431V61.0227H129.647C129.048 61.0227 128.567 61.155 128.202 61.4195C127.837 61.6694 127.655 62.0441 127.655 62.5438C127.655 63.0435 127.845 63.4403 128.224 63.7343C128.603 64.0282 129.121 64.1751 129.778 64.1751Z" fill="#E1E4E7"/>
<path d="M138.733 65.7402V50.3086H140.987V65.7402H138.733Z" fill="#E1E4E7"/>
<path d="M155.535 66.0489C153.667 66.0489 152.186 65.5198 151.092 64.4616C149.998 63.3888 149.451 61.8456 149.451 59.8322V56.2167C149.451 54.2033 149.998 52.6675 151.092 51.6093C152.186 50.5364 153.667 50 155.535 50C157.373 50 158.789 50.5144 159.781 51.5432C160.788 52.5719 161.291 53.9755 161.291 55.7538V55.8861H158.949V55.6876C158.949 54.6442 158.665 53.7918 158.095 53.1304C157.541 52.4691 156.688 52.1384 155.535 52.1384C154.368 52.1384 153.456 52.4984 152.799 53.2186C152.143 53.924 151.814 54.9087 151.814 56.1726V59.8762C151.814 61.1255 152.143 62.1101 152.799 62.8302C153.456 63.5504 154.368 63.9105 155.535 63.9105C156.688 63.9105 157.541 63.5798 158.095 62.9184C158.665 62.2424 158.949 61.39 158.949 60.3612V59.9864H161.291V60.2951C161.291 62.0734 160.788 63.4769 159.781 64.5057C158.789 65.5345 157.373 66.0489 155.535 66.0489Z" fill="#E1E4E7"/>
<path d="M163.974 65.7404V54.8722H166.184V56.1508H166.534C166.71 55.6952 166.987 55.3646 167.366 55.1588C167.76 54.9384 168.242 54.8281 168.811 54.8281H170.102V56.8783H168.723C167.993 56.8783 167.396 57.084 166.928 57.4956C166.461 57.8924 166.228 58.5097 166.228 59.3474V65.7404H163.974Z" fill="#E1E4E7"/>
<path d="M173.685 70.1493V68.1653H179.703C180.112 68.1653 180.317 67.9448 180.317 67.504V64.1531H179.966C179.835 64.447 179.631 64.7336 179.353 65.0128C179.091 65.2774 178.734 65.4978 178.281 65.6742C177.829 65.8506 177.259 65.9388 176.574 65.9388C175.757 65.9388 175.027 65.755 174.385 65.3876C173.743 65.0202 173.24 64.4984 172.876 63.8224C172.51 63.1463 172.328 62.3453 172.328 61.4195V54.8721H174.582V61.2431C174.582 62.1837 174.816 62.8818 175.283 63.3374C175.749 63.7783 176.399 63.9988 177.23 63.9988C178.15 63.9988 178.887 63.6901 179.441 63.0729C180.01 62.4556 180.294 61.5591 180.294 60.3833V54.8721H182.548V67.9668C182.548 68.6282 182.352 69.1573 181.958 69.5541C181.579 69.9509 181.053 70.1493 180.382 70.1493H173.685Z" fill="#E1E4E7"/>
<path d="M185.881 70.1494V54.8721H188.091V56.4373H188.441C188.719 55.9523 189.135 55.5188 189.689 55.1366C190.258 54.7545 191.068 54.5635 192.119 54.5635C193.023 54.5635 193.847 54.7839 194.592 55.2248C195.351 55.6657 195.956 56.305 196.408 57.1428C196.875 57.9658 197.108 58.9651 197.108 60.1409V60.4716C197.108 61.6473 196.883 62.6541 196.43 63.4917C195.978 64.3148 195.372 64.9467 194.613 65.3876C193.855 65.8285 193.023 66.049 192.119 66.049C191.418 66.049 190.827 65.9608 190.346 65.7845C189.864 65.6081 189.478 65.3876 189.186 65.1231C188.894 64.8439 188.66 64.5573 188.485 64.2633H188.135V70.1494H185.881ZM191.462 64.0649C192.454 64.0649 193.264 63.749 193.891 63.117C194.518 62.485 194.832 61.5812 194.832 60.4054V60.207C194.832 59.046 194.511 58.1495 193.87 57.5176C193.242 56.8855 192.44 56.5696 191.462 56.5696C190.499 56.5696 189.697 56.8855 189.055 57.5176C188.427 58.1495 188.114 59.046 188.114 60.207V60.4054C188.114 61.5812 188.427 62.485 189.055 63.117C189.697 63.749 190.499 64.0649 191.462 64.0649Z" fill="#E1E4E7"/>
<path d="M203.545 65.7404C202.888 65.7404 202.363 65.542 201.969 65.1452C201.589 64.7484 201.399 64.2193 201.399 63.558V56.7901H198.423V54.8722H201.399V51.2788H203.654V54.8722H206.871V56.7901H203.654V63.1611C203.654 63.602 203.858 63.8225 204.267 63.8225H206.521V65.7404H203.545Z" fill="#E1E4E7"/>
<path d="M214.19 66.049C213.111 66.049 212.148 65.8285 211.301 65.3876C210.47 64.932 209.813 64.2854 209.332 63.4477C208.85 62.6099 208.609 61.6179 208.609 60.4716V60.1409C208.609 58.9946 208.85 58.0099 209.332 57.1868C209.813 56.3491 210.47 55.7025 211.301 55.2469C212.148 54.7913 213.111 54.5635 214.19 54.5635C215.27 54.5635 216.233 54.7913 217.08 55.2469C217.926 55.7025 218.589 56.3491 219.071 57.1868C219.553 58.0099 219.793 58.9946 219.793 60.1409V60.4716C219.793 61.6179 219.553 62.6099 219.071 63.4477C218.589 64.2854 217.926 64.932 217.08 65.3876C216.233 65.8285 215.27 66.049 214.19 66.049ZM214.19 64.0209C215.183 64.0209 215.985 63.7049 216.598 63.0729C217.225 62.4262 217.539 61.5371 217.539 60.4054V60.207C217.539 59.0754 217.233 58.1936 216.62 57.5616C216.007 56.915 215.197 56.5916 214.19 56.5916C213.213 56.5916 212.41 56.915 211.783 57.5616C211.17 58.1936 210.864 59.0754 210.864 60.207V60.4054C210.864 61.5371 211.17 62.4262 211.783 63.0729C212.41 63.7049 213.213 64.0209 214.19 64.0209Z" fill="#E1E4E7"/>
<path d="M85.4347 54.0298L85.073 54.0572L86.1805 59.9279L85.4347 54.0298Z" fill="#E1E4E7"/>
<path d="M86.2593 54.054L85.8975 54.0317L86.195 59.9985L86.2593 54.054Z" fill="#E1E4E7"/>
<path d="M87.0742 54.1899L86.7185 54.1187L86.2006 60.0702L87.0742 54.1899Z" fill="#E1E4E7"/>
<path d="M87.8631 54.4364L87.5201 54.3174L86.1965 60.1429L87.8631 54.4364Z" fill="#E1E4E7"/>
<path d="M88.6104 54.7874L88.2871 54.6226L86.1821 60.2135L88.6104 54.7874Z" fill="#E1E4E7"/>
<path d="M89.3027 55.2374L89.0049 55.0303L86.1582 60.2824L89.3027 55.2374Z" fill="#E1E4E7"/>
<path d="M89.9288 55.7772L89.6619 55.5312L86.1263 60.3464L89.9288 55.7772Z" fill="#E1E4E7"/>
<path d="M90.4746 56.3977L90.2439 56.1177L86.0854 60.4062L90.4746 56.3977Z" fill="#E1E4E7"/>
<path d="M90.9303 57.0859L90.7397 56.7769L86.0359 60.4588L90.9303 57.0859Z" fill="#E1E4E7"/>
<path d="M91.2888 57.8305L91.1421 57.4985L85.9807 60.5052L91.2888 57.8305Z" fill="#E1E4E7"/>
<path d="M91.5424 58.6162L91.4425 58.2676L85.9194 60.5424L91.5424 58.6162Z" fill="#E1E4E7"/>
<path d="M91.6845 59.4297L91.633 59.0708L85.8516 60.5719L91.6845 59.4297Z" fill="#E1E4E7"/>
<path d="M91.7162 60.2553L91.714 59.8926L85.7821 60.5922L91.7162 60.2553Z" fill="#E1E4E7"/>
<path d="M91.6365 61.0772L91.6839 60.7177L85.7119 60.6025L91.6365 61.0772Z" fill="#E1E4E7"/>
<path d="M91.4441 61.8808L91.5398 61.5308L85.6394 60.603L91.4441 61.8808Z" fill="#E1E4E7"/>
<path d="M91.1435 62.65L91.286 62.3166L85.5669 60.5938L91.1435 62.65Z" fill="#E1E4E7"/>
<path d="M90.7418 63.3718L90.9282 63.0606L85.4971 60.5742L90.7418 63.3718Z" fill="#E1E4E7"/>
<path d="M90.2453 64.0326L90.4728 63.7497L85.4308 60.5464L90.2453 64.0326Z" fill="#E1E4E7"/>
<path d="M89.6631 64.6184L89.9269 64.3693L85.3682 60.5088L89.6631 64.6184Z" fill="#E1E4E7"/>
<path d="M89.0073 65.1202L89.3025 64.9093L85.3124 60.4639L89.0073 65.1202Z" fill="#E1E4E7"/>
<path d="M88.2896 65.5275L88.6106 65.3588L85.2632 60.4106L88.2896 65.5275Z" fill="#E1E4E7"/>
<path d="M87.5225 65.8337L87.8639 65.7102L85.2216 60.3525L87.5225 65.8337Z" fill="#E1E4E7"/>
<path d="M86.7201 66.0318L87.0748 65.9561L85.1868 60.2881L86.7201 66.0318Z" fill="#E1E4E7"/>
<path d="M85.8998 66.1192L86.2618 66.0925L85.1636 60.2202L85.8998 66.1192Z" fill="#E1E4E7"/>
<path d="M85.074 66.0936L85.4357 66.1165L85.148 60.1494L85.074 66.0936Z" fill="#E1E4E7"/>
<path d="M84.2581 65.9566L84.6138 66.0285L85.1413 60.0776L84.2581 65.9566Z" fill="#E1E4E7"/>
<path d="M83.4727 65.7094L83.815 65.829L85.1481 60.0054L83.4727 65.7094Z" fill="#E1E4E7"/>
<path d="M82.7235 65.3564L83.0465 65.5219L85.1604 59.9341L82.7235 65.3564Z" fill="#E1E4E7"/>
<path d="M82.033 64.906L82.3304 65.1138L85.1857 59.8662L82.033 64.906Z" fill="#E1E4E7"/>
<path d="M81.4088 64.3648L81.6755 64.6112L85.2186 59.8018L81.4088 64.3648Z" fill="#E1E4E7"/>
<path d="M80.8641 63.7444L81.0945 64.0248L85.26 59.7427L80.8641 63.7444Z" fill="#E1E4E7"/>
<path d="M80.4089 63.0543L80.5991 63.3636L85.309 59.689L80.4089 63.0543Z" fill="#E1E4E7"/>
<path d="M80.0521 62.3096L80.1981 62.6419L85.3646 59.6436L80.0521 62.3096Z" fill="#E1E4E7"/>
<path d="M79.7988 61.5223L79.8981 61.8713L85.425 59.6055L79.7988 61.5223Z" fill="#E1E4E7"/>
<path d="M79.6576 60.7091L79.7085 61.0684L85.4925 59.5762L79.6576 60.7091Z" fill="#E1E4E7"/>
<path d="M79.6267 59.8835L79.6283 60.2462L85.5615 59.5562L79.6267 59.8835Z" fill="#E1E4E7"/>
<path d="M79.7093 59.062L79.6613 59.4215L85.6332 59.5463L79.7093 59.062Z" fill="#E1E4E7"/>
<path d="M79.9029 58.2588L79.8065 58.6088L85.7057 59.5457L79.9029 58.2588Z" fill="#E1E4E7"/>
<path d="M80.2041 57.4897L80.0609 57.8232L85.7777 59.5552L80.2041 57.4897Z" fill="#E1E4E7"/>
<path d="M80.6061 56.769L80.4187 57.0799L85.8463 59.5749L80.6061 56.769Z" fill="#E1E4E7"/>
<path d="M81.104 56.1094L80.8762 56.3916L85.9131 59.6029L81.104 56.1094Z" fill="#E1E4E7"/>
<path d="M81.687 55.5239L81.4226 55.7728L85.9753 59.6406L81.687 55.5239Z" fill="#E1E4E7"/>
<path d="M82.3436 55.0234L82.048 55.2338L86.0311 59.6858L82.3436 55.0234Z" fill="#E1E4E7"/>
<path d="M83.0623 54.6167L82.741 54.785L86.0808 59.7383L83.0623 54.6167Z" fill="#E1E4E7"/>
<path d="M83.8297 54.3125L83.4883 54.4353L86.1224 59.7975L83.8297 54.3125Z" fill="#E1E4E7"/>
<path d="M84.6322 54.1152L84.2771 54.1903L86.1562 59.8615L84.6322 54.1152Z" fill="#E1E4E7"/>
</g>
</g>
<defs>
<clipPath id="clip0_966_1922">
<rect width="180" height="60" fill="white" transform="translate(39.9999 30)"/>
</clipPath>
<clipPath id="clip1_966_1922">
<rect width="180" height="20.1493" fill="white" transform="translate(39.9999 50)"/>
</clipPath>
</defs>
</svg>
