<svg width="260" height="120" viewBox="0 0 260 120" fill="none" xmlns="http://www.w3.org/2000/svg">
<rect x="1.09985" y="0.5" width="258.2" height="119" rx="19.5" fill="#121315"/>
<rect x="1.09985" y="0.5" width="258.2" height="119" rx="19.5" stroke="#62666D"/>
<g clip-path="url(#clip0_966_1985)">
<mask id="mask0_966_1985" style="mask-type:luminance" maskUnits="userSpaceOnUse" x="49" y="37" width="161" height="46">
<path d="M209.256 37H49.9996V82.3543H209.256V37Z" fill="white"/>
</mask>
<g mask="url(#mask0_966_1985)">
<path fill-rule="evenodd" clip-rule="evenodd" d="M113.92 40.3361C113.728 40.1652 113.575 39.9554 113.472 39.7208C113.368 39.4861 113.315 39.232 113.318 38.9754C113.311 38.712 113.361 38.4502 113.465 38.208C113.569 37.9659 113.724 37.749 113.92 37.5724C114.351 37.2136 114.895 37.0171 115.456 37.0171C116.017 37.0171 116.561 37.2136 116.993 37.5724C117.187 37.75 117.341 37.9671 117.444 38.2091C117.547 38.4511 117.597 38.7125 117.59 38.9754C117.591 39.2326 117.537 39.4869 117.432 39.7215C117.327 39.9562 117.172 40.1657 116.98 40.3361C116.549 40.6973 116.005 40.8953 115.443 40.8953C114.881 40.8953 114.337 40.6973 113.907 40.3361H113.92ZM117.255 42.1163V53.8618H113.657V42.1163H117.255ZM108.18 40.0097C109.314 40.5974 110.255 41.4995 110.889 42.608C111.543 43.79 111.873 45.1234 111.847 46.4737C111.871 47.8198 111.54 49.1485 110.889 50.3267C110.256 51.4422 109.312 52.3494 108.172 52.9378C106.91 53.5737 105.511 53.891 104.098 53.8618H98.5584V39.0814H104.098C105.515 39.0485 106.917 39.3675 108.18 40.0097ZM107.044 49.6316C107.805 48.8856 108.183 47.833 108.18 46.4737C108.178 45.1145 107.799 44.0549 107.044 43.2947C106.284 42.5346 105.224 42.1559 103.865 42.1587H102.17V50.7464H103.865C105.227 50.7464 106.287 50.3748 107.044 49.6316ZM119.803 52.0647C120.301 52.6995 120.953 53.1957 121.698 53.5058C122.564 53.867 123.497 54.0431 124.436 54.023C125.296 54.0392 126.151 53.8821 126.949 53.5608C127.612 53.2997 128.189 52.8594 128.615 52.2893C128.999 51.7535 129.201 51.1088 129.192 50.4497C129.215 49.7447 128.988 49.054 128.552 48.4999C128.164 48.0352 127.668 47.674 127.106 47.4487C126.414 47.1827 125.707 46.9605 124.987 46.7832C124.413 46.6747 123.851 46.5056 123.313 46.2788C123.156 46.223 123.02 46.1202 122.924 45.9845C122.827 45.8487 122.775 45.6865 122.774 45.52C122.771 45.3902 122.8 45.2615 122.859 45.1459C122.918 45.0303 123.006 44.9316 123.113 44.8588C123.403 44.6803 123.74 44.5959 124.08 44.6172C124.506 44.5965 124.926 44.7222 125.271 44.9733C125.42 45.0915 125.544 45.2382 125.636 45.4049C125.727 45.5715 125.785 45.7548 125.805 45.9439H129.132C129.048 44.8196 128.522 43.7742 127.67 43.0362C126.822 42.3071 125.661 41.9426 124.186 41.9426C123.296 41.9196 122.412 42.0858 121.592 42.43C120.929 42.7032 120.358 43.1607 119.947 43.7483C119.584 44.2877 119.393 44.9248 119.4 45.5751C119.363 46.2643 119.58 46.9431 120.011 47.4826C120.401 47.9411 120.899 48.2951 121.46 48.5126C122.152 48.7668 122.86 48.975 123.58 49.1357C124.159 49.2654 124.726 49.4441 125.275 49.6697C125.43 49.7245 125.564 49.8262 125.658 49.9607C125.752 50.0953 125.802 50.2558 125.801 50.4201C125.802 50.5551 125.769 50.6884 125.705 50.8076C125.642 50.9268 125.549 51.0282 125.436 51.1024C125.124 51.2949 124.76 51.3866 124.393 51.3652C123.949 51.3794 123.513 51.2468 123.152 50.988C122.991 50.8733 122.857 50.7253 122.759 50.5542C122.661 50.383 122.601 50.1927 122.583 49.9961H119.023C119.073 50.7475 119.345 51.4672 119.803 52.0647ZM135.825 42.4512C136.493 42.1017 137.238 41.9267 137.991 41.9426C138.921 41.9311 139.835 42.1871 140.624 42.6801C141.431 43.1983 142.077 43.9326 142.489 44.7995C142.937 45.7994 143.168 46.8828 143.168 47.9785C143.168 49.0743 142.937 50.1576 142.489 51.1576C142.074 52.0223 141.429 52.7558 140.624 53.2769C139.837 53.7744 138.922 54.0335 137.991 54.023C137.241 54.0376 136.5 53.8641 135.834 53.5185C135.241 53.216 134.734 52.7702 134.359 52.2215V59.4612H130.76V42.1163H134.359V43.7779C134.727 43.218 135.231 42.7613 135.825 42.4512ZM138.763 45.8422C138.523 45.5924 138.233 45.3958 137.913 45.2651C137.592 45.1344 137.248 45.0725 136.902 45.0835C136.56 45.078 136.222 45.1446 135.907 45.279C135.593 45.4134 135.311 45.6125 135.079 45.8634C134.562 46.4447 134.294 47.2058 134.333 47.9827C134.294 48.7597 134.562 49.5208 135.079 50.1021C135.315 50.3496 135.598 50.5467 135.912 50.6813C136.226 50.816 136.564 50.8854 136.906 50.8854C137.248 50.8854 137.586 50.816 137.9 50.6813C138.214 50.5467 138.497 50.3496 138.733 50.1021C138.994 49.8126 139.195 49.4746 139.325 49.1073C139.456 48.74 139.512 48.3507 139.492 47.9615C139.538 47.1891 139.276 46.4299 138.763 45.8507V45.8422ZM148.139 48.8517H156.286C156.327 48.5014 156.348 48.149 156.349 47.7962C156.373 46.7175 156.116 45.6511 155.603 44.702C155.123 43.8355 154.404 43.1261 153.53 42.6589C152.597 42.1688 151.554 41.9224 150.5 41.9425C149.41 41.9144 148.331 42.1669 147.367 42.6759C146.477 43.1622 145.749 43.8991 145.273 44.7952C144.759 45.7821 144.503 46.8829 144.527 47.9955C144.5 49.1098 144.761 50.2122 145.286 51.1957C145.77 52.0944 146.507 52.8313 147.406 53.315C148.352 53.8184 149.411 54.0722 150.483 54.0526C151.373 54.0664 152.255 53.887 153.068 53.527C153.803 53.2027 154.454 52.7154 154.973 52.1022C155.491 51.489 155.863 50.7659 156.061 49.9877H152.246C152.091 50.3485 151.827 50.6521 151.491 50.8563C151.155 51.0607 150.765 51.1556 150.373 51.1278C149.807 51.1426 149.259 50.9339 148.847 50.5472C148.399 50.0958 148.145 49.4874 148.139 48.8517ZM152.517 46.0437C152.627 46.2983 152.677 46.5742 152.666 46.851H148.16C148.222 46.2747 148.497 45.7424 148.931 45.359C149.358 45.001 149.901 44.8125 150.457 44.8291C151.033 44.8089 151.596 45.0055 152.034 45.3802C152.243 45.5623 152.408 45.789 152.517 46.0437ZM163.212 42.5487C163.854 42.1718 164.587 41.9783 165.331 41.9892V45.804H164.343C163.622 45.7492 162.905 45.9536 162.322 46.3805C161.872 46.7705 161.648 47.4444 161.648 48.4151V53.8618H158.049V42.1163H161.648V44.0619C162.042 43.4412 162.578 42.9227 163.212 42.5487ZM166.98 52.0647C167.479 52.6976 168.131 53.1935 168.875 53.5058C169.742 53.869 170.677 54.0465 171.617 54.0271C172.479 54.0431 173.335 53.886 174.135 53.5651C174.796 53.3043 175.372 52.8639 175.796 52.2936C176.182 51.7581 176.385 51.1135 176.377 50.4539C176.4 49.7483 176.17 49.0577 175.733 48.5041C175.346 48.0405 174.851 47.6795 174.292 47.4529C173.6 47.1866 172.892 46.9643 172.172 46.7874C171.598 46.6782 171.037 46.5092 170.498 46.283C170.342 46.2265 170.207 46.1234 170.112 45.9877C170.016 45.852 169.965 45.6902 169.964 45.5243C169.959 45.3947 169.988 45.2662 170.046 45.1505C170.105 45.0349 170.192 44.936 170.299 44.863C170.59 44.6839 170.929 44.5995 171.269 44.6214C171.694 44.6007 172.113 44.7264 172.456 44.9775C172.606 45.0955 172.731 45.2421 172.823 45.4087C172.915 45.5754 172.974 45.7587 172.995 45.9481H176.322C176.28 45.389 176.128 44.8438 175.874 44.3439C175.62 43.8441 175.27 43.3996 174.843 43.0361C173.995 42.3071 172.834 41.9426 171.359 41.9426C170.472 41.9212 169.591 42.0873 168.773 42.43C168.111 42.7022 167.541 43.16 167.133 43.7483C166.763 44.29 166.567 44.9319 166.573 45.5879C166.54 46.2732 166.759 46.947 167.188 47.4826C167.578 47.9422 168.078 48.2964 168.641 48.5126C169.333 48.767 170.041 48.9752 170.761 49.1357C171.34 49.2659 171.907 49.4445 172.456 49.6697C172.611 49.7245 172.745 49.8262 172.839 49.9607C172.933 50.0953 172.983 50.2558 172.982 50.4201C172.983 50.5556 172.95 50.6894 172.886 50.8088C172.821 50.9281 172.727 51.0292 172.613 51.1024C172.301 51.2949 171.937 51.3866 171.57 51.3652C171.126 51.3788 170.69 51.2463 170.328 50.988C170.168 50.8727 170.035 50.7246 169.937 50.5536C169.839 50.3825 169.779 50.1924 169.761 49.9961H166.204C166.253 50.747 166.523 51.4667 166.98 52.0647ZM178.636 40.3361C178.442 40.1668 178.286 39.9577 178.179 39.723C178.073 39.4882 178.017 39.2333 178.017 38.9754C178.011 38.712 178.061 38.4502 178.165 38.208C178.269 37.9659 178.424 37.749 178.62 37.5724C179.052 37.2136 179.595 37.0171 180.157 37.0171C180.717 37.0171 181.261 37.2136 181.692 37.5724C181.89 37.7484 182.046 37.9648 182.153 38.2069C182.259 38.449 182.312 38.7112 182.307 38.9754C182.312 39.2345 182.26 39.4915 182.158 39.7291C182.055 39.9668 181.901 40.1796 181.71 40.353C181.279 40.7142 180.735 40.9122 180.173 40.9122C179.611 40.9122 179.067 40.7142 178.636 40.353V40.3361ZM181.972 42.1163V53.8618H178.369V42.1163H181.972ZM184.444 51.1744C184.95 52.0736 185.702 52.8091 186.613 53.2939C187.571 53.7914 188.638 54.042 189.716 54.023C190.802 54.0379 191.876 53.7846 192.841 53.2853C193.763 52.8023 194.53 52.0674 195.053 51.166C195.582 50.186 195.858 49.0899 195.858 47.9764C195.858 46.8628 195.582 45.7668 195.053 44.7867C194.54 43.8864 193.782 43.1511 192.866 42.6674C191.898 42.1822 190.831 41.9296 189.748 41.9296C188.665 41.9296 187.598 42.1822 186.631 42.6674C185.715 43.1511 184.955 43.8864 184.444 44.7867C183.922 45.7705 183.649 46.8671 183.649 47.9806C183.649 49.0942 183.922 50.1908 184.444 51.1744ZM192.204 47.987C192.256 48.7781 191.994 49.5576 191.475 50.1573C191.254 50.4022 190.982 50.5976 190.68 50.7305C190.378 50.8634 190.051 50.9309 189.721 50.9287C189.396 50.9357 189.075 50.8715 188.778 50.7403C188.482 50.6092 188.217 50.4145 188.004 50.1698C187.51 49.5586 187.265 48.7837 187.317 47.9997C187.263 47.2114 187.511 46.432 188.013 45.821C188.236 45.5836 188.507 45.3946 188.805 45.2653C189.105 45.1361 189.428 45.0694 189.754 45.0694C190.08 45.0694 190.404 45.1361 190.703 45.2653C191.002 45.3946 191.273 45.5836 191.496 45.821C192.003 46.4252 192.256 47.2008 192.204 47.987ZM208.023 43.3244C208.846 44.2187 209.256 45.4437 209.256 46.9994V53.8618H205.675V47.4826C205.716 46.8162 205.497 46.1599 205.065 45.6514C204.62 45.2327 204.033 44.9994 203.422 44.9994C202.812 44.9994 202.224 45.2327 201.779 45.6514C201.347 46.1599 201.128 46.8162 201.169 47.4826V53.8618H197.571V42.1163H201.169V43.6719C201.549 43.1431 202.056 42.72 202.645 42.4427C203.292 42.1336 204.004 41.9784 204.721 41.9892C205.336 41.9608 205.948 42.0655 206.519 42.2959C207.088 42.5264 207.602 42.8772 208.023 43.3244ZM101.114 62.7631C99.9998 63.3881 99.0844 64.3152 98.4736 65.4378V65.459C97.8494 66.6641 97.5234 68.0014 97.5234 69.3586C97.5234 70.7159 97.8494 72.0532 98.4736 73.2582C99.0875 74.3751 100.002 75.2974 101.114 75.9201C102.29 76.5707 103.616 76.9011 104.959 76.8781C106.571 76.923 108.153 76.4392 109.465 75.5005C110.717 74.5726 111.604 73.2345 111.97 71.7196H108.011C107.74 72.3083 107.297 72.8005 106.739 73.1311C106.182 73.458 105.545 73.6252 104.9 73.6143C104.393 73.6323 103.888 73.5378 103.422 73.3377C102.956 73.1377 102.54 72.8369 102.204 72.4571C101.535 71.5641 101.174 70.4785 101.174 69.3628C101.174 68.2472 101.535 67.1616 102.204 66.2686C102.54 65.8888 102.956 65.5881 103.422 65.388C103.888 65.1879 104.393 65.0934 104.9 65.1115C105.545 65.1005 106.182 65.2677 106.739 65.5946C107.297 65.9252 107.74 66.4174 108.011 67.0061H111.97C111.606 65.4808 110.72 64.1312 109.465 63.1913C108.155 62.2482 106.572 61.7613 104.959 61.8053C103.616 61.7822 102.29 62.1125 101.114 62.7631ZM113.937 67.6759C114.346 66.8076 114.992 66.0728 115.802 65.5564C116.589 65.0641 117.501 64.8081 118.43 64.8189C119.188 64.8029 119.938 64.9763 120.613 65.3234C121.201 65.6308 121.699 66.0885 122.054 66.6501V64.9885H125.652V76.734H122.066V75.0894C121.7 75.6489 121.197 76.1055 120.604 76.4161C119.931 76.7627 119.182 76.9361 118.425 76.9205C117.501 76.9292 116.594 76.67 115.814 76.1745C115.008 75.6546 114.362 74.9207 113.949 74.0551C113.501 73.0551 113.269 71.9718 113.269 70.8761C113.269 69.7803 113.501 68.697 113.949 67.697L113.937 67.6759ZM121.303 68.7525C121.073 68.5013 120.791 68.3019 120.478 68.1675C120.164 68.033 119.826 67.9666 119.485 67.9726C119.144 67.9665 118.807 68.0316 118.493 68.1637C118.179 68.2958 117.896 68.492 117.662 68.7398C117.404 69.0263 117.205 69.361 117.077 69.7249C116.949 70.0886 116.895 70.4741 116.916 70.8591C116.882 71.6354 117.149 72.3951 117.662 72.9785C117.896 73.2262 118.179 73.4235 118.492 73.5583C118.805 73.6932 119.142 73.7628 119.483 73.7628C119.824 73.7628 120.161 73.6932 120.474 73.5583C120.787 73.4235 121.069 73.2262 121.303 72.9785C121.785 72.3771 122.047 71.6296 122.047 70.8591C122.047 70.0887 121.785 69.3413 121.303 68.7398V68.7525ZM134.855 64.8359C134.1 64.8188 133.354 64.9923 132.684 65.3404C132.095 65.6522 131.595 66.1087 131.231 66.667V65.0055H127.632V82.3461H131.231V75.1063C131.602 75.6565 132.104 76.1052 132.693 76.4119C133.36 76.7574 134.103 76.9308 134.855 76.9163C135.784 76.9263 136.697 76.6672 137.483 76.1702C138.289 75.6503 138.934 74.9166 139.348 74.0509C139.796 73.051 140.027 71.9676 140.027 70.8718C140.027 69.7761 139.796 68.6927 139.348 67.6927C138.938 66.8245 138.292 66.0897 137.483 65.5734C136.695 65.081 135.783 64.8251 134.855 64.8359ZM134.781 68.1531C135.098 68.2853 135.385 68.4822 135.622 68.7312L135.63 68.7398C135.886 69.0264 136.083 69.3608 136.21 69.7237C136.337 70.0868 136.39 70.4712 136.368 70.8548C136.403 71.6335 136.131 72.3949 135.609 72.9743C135.376 73.2269 135.093 73.4277 134.777 73.5635C134.462 73.6993 134.121 73.7672 133.778 73.7627C133.437 73.7686 133.099 73.7022 132.785 73.5678C132.472 73.4333 132.19 73.2339 131.96 72.9827C131.478 72.3813 131.216 71.6338 131.216 70.8634C131.216 70.0929 131.478 69.3454 131.96 68.744C132.19 68.4929 132.472 68.2934 132.785 68.159C133.099 68.0246 133.437 67.9581 133.778 67.9641C134.122 67.9567 134.463 68.0211 134.781 68.1531ZM141.988 63.2252C141.795 63.0525 141.641 62.84 141.537 62.6022C141.433 62.3644 141.382 62.107 141.386 61.8476C141.38 61.5842 141.43 61.3224 141.534 61.0802C141.638 60.8381 141.793 60.6213 141.988 60.4446C142.42 60.0857 142.964 59.8893 143.525 59.8893C144.086 59.8893 144.63 60.0857 145.061 60.4446C145.256 60.6221 145.409 60.8392 145.512 61.0812C145.616 61.3232 145.666 61.5847 145.659 61.8476C145.664 62.1066 145.613 62.3636 145.51 62.6013C145.407 62.839 145.254 63.0517 145.061 63.2252C144.631 63.5864 144.087 63.7843 143.525 63.7843C142.963 63.7843 142.419 63.5864 141.988 63.2252ZM145.324 65.0055V76.7509H141.726V65.0055H145.324ZM154.705 76.7509V73.699L153.424 73.7118C153.123 73.7416 152.821 73.6586 152.577 73.4787C152.485 73.3769 152.416 73.2573 152.373 73.1276C152.33 72.9977 152.314 72.8604 152.327 72.7242V68.0064H154.683V65.0394H152.327V62.174H148.728V65.0394H147.295V68.0064H148.728V72.669C148.728 74.113 149.092 75.1544 149.822 75.793C150.551 76.4316 151.568 76.7509 152.873 76.7509H154.705ZM156.442 67.6759C156.851 66.8081 157.496 66.0735 158.303 65.5564C159.094 65.0691 160.007 64.8177 160.935 64.8316C161.693 64.8151 162.441 64.9885 163.114 65.3361C163.705 65.6422 164.204 66.1002 164.56 66.6628V65.0012H168.158V76.7467H164.56V75.0894C164.193 75.65 163.687 76.1069 163.093 76.4161C162.42 76.7636 161.671 76.9371 160.914 76.9205C159.99 76.9282 159.084 76.6691 158.303 76.1745C157.498 75.6542 156.854 74.9205 156.442 74.0551C155.992 73.0559 155.759 71.9723 155.759 70.8761C155.759 69.7799 155.992 68.6962 156.442 67.697V67.6759ZM163.809 68.7525C163.572 68.5096 163.289 68.3166 162.977 68.1848C162.664 68.0531 162.328 67.9852 161.989 67.9852C161.65 67.9852 161.314 68.0531 161.001 68.1848C160.688 68.3166 160.405 68.5096 160.168 68.7525C159.909 69.0385 159.71 69.3731 159.582 69.7371C159.454 70.1009 159.4 70.4867 159.422 70.8718C159.383 71.6488 159.651 72.4099 160.168 72.9911C160.402 73.239 160.685 73.4362 160.998 73.571C161.311 73.706 161.648 73.7755 161.989 73.7755C162.33 73.7755 162.667 73.706 162.98 73.571C163.293 73.4362 163.575 73.239 163.809 72.9911C164.291 72.3898 164.553 71.6422 164.553 70.8718C164.553 70.1014 164.291 69.3538 163.809 68.7525ZM174.156 76.7509V61.1737H170.557V76.7509H174.156Z" fill="#E1E4E7"/>
<path d="M90.0387 55.5487C89.8186 55.1502 89.4957 54.818 89.1035 54.587C88.7113 54.3558 88.2643 54.2342 87.809 54.2347H84.6639L86.8384 50.6742C87.0802 50.2874 87.2135 49.8425 87.2243 49.3864C87.2351 48.9303 87.1231 48.4797 86.8999 48.0818C86.6766 47.6839 86.3505 47.3534 85.9556 47.1249C85.5607 46.8964 85.1117 46.7783 84.6555 46.783H81.0483L83.3965 42.9385C83.6395 42.5516 83.7737 42.1063 83.785 41.6496C83.7965 41.1929 83.6846 40.7415 83.4613 40.3429C83.2379 39.9444 82.9113 39.6133 82.5158 39.3846C82.1203 39.1559 81.6704 39.0379 81.2136 39.0431H63.5932C63.1553 39.045 62.725 39.1585 62.343 39.3728C61.9611 39.5871 61.6401 39.8953 61.4103 40.2681L50.3896 58.3336C50.1477 58.719 50.0136 59.1622 50.0013 59.6171C49.989 60.0721 50.099 60.522 50.3198 60.9198C50.5407 61.3177 50.8642 61.649 51.2567 61.8793C51.6492 62.1096 52.0963 62.2303 52.5514 62.2289H56.1585L53.823 66.0735C53.58 66.4604 53.4458 66.9057 53.4344 67.3624C53.423 67.8191 53.5349 68.2705 53.7582 68.6691C53.9816 69.0676 54.3082 69.3987 54.7037 69.6273C55.0992 69.8561 55.5491 69.9741 56.0059 69.9689H59.151L56.9766 73.5293C56.7348 73.9162 56.6014 74.3611 56.5906 74.8171C56.5798 75.2732 56.6919 75.7239 56.9151 76.1217C57.1383 76.5197 57.4645 76.8502 57.8594 77.0787C58.2542 77.3072 58.7033 77.4253 59.1595 77.4205H76.7799C77.218 77.4195 77.6486 77.3063 78.0307 77.0919C78.4127 76.8775 78.7337 76.569 78.9629 76.1955L90.0048 58.1301C90.2402 57.742 90.3676 57.298 90.3735 56.844C90.3796 56.3901 90.2639 55.9428 90.0387 55.5487ZM84.6682 49.3517L81.701 54.239H76.4917L79.4842 49.3475L84.6682 49.3517ZM65.4286 59.6815H60.7067L67.0351 49.339H76.5044L73.5118 54.2347H70.1844C69.747 54.2365 69.3173 54.35 68.936 54.5643C68.5548 54.7787 68.2346 55.0869 68.0058 55.4597L65.4286 59.6815ZM70.1844 56.778H71.9563L70.1887 59.6688H68.4127L70.1844 56.778ZM70.1844 62.2248C70.6194 62.2233 71.0469 62.1116 71.4271 61.9004C71.8072 61.6892 72.1278 61.3852 72.3589 61.0167L74.936 56.778H80.103L73.6305 67.4172H63.6993L66.8698 62.2332L70.1844 62.2248ZM52.5514 59.6815L63.5932 41.5906L81.2263 41.616L78.0685 46.7873H67.0478C66.6061 46.7847 66.1712 46.8961 65.785 47.1107C65.3989 47.3253 65.0747 47.6358 64.8437 48.0123L57.7268 59.6688L52.5514 59.6815ZM55.989 67.4172L59.1553 62.2459H63.8687L60.7067 67.4256L55.989 67.4172ZM76.7884 74.8858L59.1553 74.8604L62.1224 69.9773H73.6179C74.0552 69.9752 74.4846 69.8616 74.8659 69.6471C75.2471 69.4328 75.5673 69.1249 75.7965 68.7524L83.0955 56.8076H87.8217L76.7884 74.8858Z" fill="#E1E4E7"/>
</g>
</g>
<defs>
<clipPath id="clip0_966_1985">
<rect width="160" height="72.7467" fill="white" transform="translate(50.1998 23.6265)"/>
</clipPath>
</defs>
</svg>
