<svg width="260" height="120" viewBox="0 0 260 120" fill="none" xmlns="http://www.w3.org/2000/svg">
<rect x="0.499756" y="0.5" width="258.2" height="119" rx="19.5" fill="#121315"/>
<rect x="0.499756" y="0.5" width="258.2" height="119" rx="19.5" stroke="#62666D"/>
<path fill-rule="evenodd" clip-rule="evenodd" d="M65.441 47.3436C61.5577 47.9448 58.1054 50.1879 56.0015 53.4768C55.2557 54.6426 54.6299 56.0848 54.2923 57.4154C54.0108 58.5248 53.9098 59.4247 53.9098 60.8214C53.9098 62.4783 54.0805 63.6011 54.5493 65.0282C56.0952 69.7346 59.9675 73.1454 64.9117 74.1559C65.6337 74.3034 65.9729 74.3257 67.4826 74.3244C69.3374 74.3229 69.8512 74.2595 71.2255 73.8623C75.8011 72.5402 79.3269 68.9486 80.5965 64.3166C80.9292 63.1026 81.0123 62.3783 81.0094 60.7182C81.0069 59.2856 80.9864 59.0342 80.8001 58.1473C80.5361 56.8903 80.2452 56.0216 79.724 54.9337C78.6165 52.622 76.7702 50.5516 74.6659 49.2615C73.0063 48.244 71.2954 47.6238 69.3546 47.3359C68.3968 47.1939 66.3826 47.1978 65.441 47.3436ZM91.0963 50.6415C91.0876 50.6525 91.0621 51.5802 91.0396 52.7031L90.9986 54.7447L90.1337 54.7662C89.655 54.7781 89.2244 54.8245 89.1696 54.87C89.0928 54.9337 89.0705 55.3672 89.0705 56.7941V58.636L89.2406 58.6754C89.3341 58.6971 89.768 58.7233 90.2047 58.7336L90.9986 58.7523L91.0411 63.2513C91.082 67.5849 91.0898 67.7726 91.2502 68.3553C91.4755 69.1736 91.7329 69.6766 92.1723 70.1573C92.804 70.8486 93.6353 71.1979 94.9977 71.3446C96.3357 71.4887 97.7986 71.2617 98.8321 70.7498L99.3918 70.4725L99.4121 68.6766C99.4274 67.3249 99.4101 66.8808 99.3422 66.8808C99.2926 66.8808 98.9943 66.9699 98.6792 67.079C97.9175 67.3425 96.9914 67.4057 96.5215 67.2262C96.1257 67.0751 95.8377 66.7637 95.7279 66.3681C95.644 66.0662 95.6132 59.0466 95.6948 58.8341C95.7349 58.7296 95.9684 58.7144 97.5322 58.7144C98.8249 58.7144 99.349 58.6892 99.4145 58.6237C99.5434 58.4949 99.5434 55.0021 99.4145 54.8732C99.349 54.8078 98.8231 54.7825 97.5242 54.7825C96.5344 54.7825 95.7174 54.774 95.7087 54.7636C95.7 54.7532 95.6746 53.826 95.652 52.7031L95.6111 50.6615L93.3616 50.6415C92.1244 50.6304 91.105 50.6304 91.0963 50.6415ZM199.291 50.6741C199.263 50.7018 199.24 51.595 199.239 52.659C199.239 53.723 199.212 54.6348 199.18 54.6854C199.141 54.7472 198.824 54.7845 198.217 54.7988L197.312 54.8203V58.6766L198.194 58.6979C198.793 58.7123 199.1 58.7499 199.155 58.8156C199.209 58.8805 199.243 60.3991 199.259 63.4447C199.28 67.4835 199.297 68.0266 199.414 68.4309C199.708 69.4431 200.266 70.2481 200.993 70.7083C202.394 71.5951 205.302 71.6089 207.029 70.7369C207.273 70.6141 207.493 70.4788 207.519 70.4363C207.573 70.3503 207.575 66.9476 207.521 66.8946C207.503 66.8762 207.189 66.9591 206.824 67.0789C206.279 67.2574 206.029 67.2967 205.435 67.2967C204.788 67.2967 204.682 67.2767 204.432 67.1076C204.278 67.0034 204.077 66.7659 203.984 66.5783C203.818 66.2432 203.815 66.1855 203.792 62.7485C203.78 60.8292 203.799 59.1449 203.835 59.0056L203.9 58.7523L207.596 58.6766V54.8203L205.781 54.8007C204.214 54.7838 203.954 54.7644 203.876 54.6591C203.811 54.5723 203.784 53.9919 203.78 52.647C203.777 51.6075 203.757 50.7269 203.734 50.6903C203.687 50.6137 199.367 50.5979 199.291 50.6741ZM65.8833 50.8146C62.2402 51.4812 59.3797 53.7761 58.0703 57.0824C57.6094 58.2465 57.4517 59.0705 57.4108 60.5292C57.3785 61.6848 57.3945 61.9529 57.5372 62.6456C57.9688 64.7389 58.8188 66.367 60.246 67.8333C61.682 69.3088 63.4209 70.2637 65.4788 70.7071C65.976 70.8142 66.4383 70.8447 67.5204 70.8419C68.7735 70.8388 69.0045 70.8174 69.7378 70.6368C72.3015 70.0053 74.4383 68.5162 75.8727 66.3616C76.6321 65.2209 77.0808 64.1258 77.3951 62.6464C77.5791 61.7799 77.5821 59.8487 77.4008 58.9413C76.4347 54.1042 72.2721 50.6753 67.407 50.7089C66.8663 50.7126 66.1807 50.7602 65.8833 50.8146ZM129.126 54.6354C128.05 54.8999 127.297 55.36 126.358 56.3261C126.052 56.6416 125.771 56.8997 125.735 56.8997C125.698 56.8997 125.668 56.4615 125.668 55.9259C125.668 55.1933 125.642 54.9309 125.564 54.8662C125.491 54.8052 124.825 54.786 123.277 54.8002L121.093 54.8203V71.0774L123.277 71.0975C124.793 71.1114 125.491 71.0919 125.562 71.0336C125.644 70.9654 125.667 70.0114 125.684 65.9474C125.705 60.9786 125.707 60.942 125.875 60.4969C126.344 59.2537 127.208 58.6748 128.579 58.6858C129.991 58.6971 130.814 59.3188 131.269 60.7182C131.344 60.9483 131.377 62.2241 131.41 66.049L131.452 71.0774H135.989L136.012 65.7844C136.026 62.4281 136.005 60.1991 135.954 59.6926C135.72 57.365 134.749 55.8066 133.026 54.9935C131.991 54.5048 130.291 54.3488 129.126 54.6354ZM145.265 54.5926C141.515 55.3112 139.189 58.4446 139.375 62.5262C139.547 66.3102 141.755 68.9756 145.276 69.6512C146.128 69.8146 147.721 69.7562 148.49 69.5332C149.546 69.2267 150.521 68.6263 151.374 67.7559C151.98 67.138 152.014 67.1634 151.956 68.1851C151.847 70.089 151.209 71.238 149.909 71.8712C149.082 72.2744 148.603 72.3596 147.18 72.3569C145.33 72.3535 144.314 72.1267 142.606 71.336C141.989 71.0503 141.793 70.9891 141.727 71.0608C141.562 71.2372 140.249 74.225 140.289 74.3302C140.377 74.5583 142.011 75.2228 143.268 75.5419C144.838 75.9402 145.31 75.9901 147.483 75.9892C149.286 75.9883 149.622 75.9687 150.36 75.8207C152.168 75.4584 153.328 74.9064 154.351 73.9219C155.339 72.9718 155.917 71.8147 156.305 70.0142C156.463 69.2825 156.468 69.0732 156.497 62.0868C156.523 56.2163 156.51 54.8994 156.429 54.8478C156.263 54.7428 152.103 54.7667 151.997 54.8732C151.936 54.9336 151.906 55.2631 151.906 55.8562C151.906 56.8819 151.874 56.9191 151.411 56.4388C150.641 55.6403 149.533 54.9882 148.466 54.7041C147.681 54.4954 146.066 54.4391 145.265 54.5926ZM166.577 54.5994C163.993 55.0705 161.998 56.5712 160.832 58.9216C159.748 61.1049 159.609 63.9691 160.476 66.2739C161.568 69.1786 164.091 71.0498 167.415 71.4195C169.533 71.6551 171.652 71.1764 173.309 70.0877C174.003 69.6314 174.968 68.7 174.968 68.4865C174.968 68.382 174.585 67.9919 173.789 67.285C173.14 66.7092 172.565 66.2276 172.51 66.2149C172.455 66.2022 172.177 66.3723 171.891 66.593C170.845 67.4002 169.747 67.7882 168.509 67.7882C167.772 67.7882 166.964 67.6099 166.403 67.3237C165.716 66.9736 164.999 66.1171 164.685 65.2738C164.396 64.5 163.799 64.5798 170.206 64.5368L175.838 64.4989L175.898 63.9696C176.035 62.7757 175.686 60.4723 175.187 59.2719C174.381 57.3355 173.277 56.0983 171.604 55.2552C170.271 54.5842 168.167 54.3097 166.577 54.5994ZM187.671 54.5923C186.566 54.8128 185.657 55.3426 184.703 56.3212C184.38 56.6524 184.094 56.9013 184.067 56.8744C184.04 56.8474 184.015 56.4015 184.011 55.8833C184.007 55.3269 183.971 54.9082 183.924 54.8607C183.869 54.8065 183.128 54.7867 181.655 54.8002L179.467 54.8203V71.0774L181.655 71.0975C182.859 71.1085 183.87 71.0912 183.902 71.0589C183.934 71.0267 183.972 68.8059 183.987 66.1239C184.01 61.7802 184.027 61.1986 184.144 60.7995C184.431 59.8124 184.97 59.1677 185.77 58.8551C186.37 58.6208 187.545 58.6201 188.072 58.8537C188.839 59.194 189.282 59.707 189.579 60.6016C189.738 61.0834 189.744 61.2263 189.785 66.0868L189.827 71.0774L192.01 71.0975C193.62 71.1123 194.223 71.0938 194.303 71.027C194.397 70.9492 194.408 70.1297 194.381 65.1847C194.347 58.9181 194.356 59.0613 193.895 57.7783C193.531 56.7637 192.782 55.8236 191.889 55.2574C190.855 54.6024 189.049 54.3175 187.671 54.5923ZM107.369 54.747C106.328 54.9033 105.594 55.076 104.814 55.3486C103.783 55.7082 103.512 55.8299 103.465 55.9544C103.442 56.0141 103.667 56.7956 103.966 57.6912C104.566 59.4924 104.536 59.4528 105.116 59.2104C106.449 58.6534 109.168 58.3786 110.34 58.6825C111.534 58.9917 112.268 59.7168 112.502 60.8164C112.619 61.3718 112.609 61.6594 112.47 61.7128C112.406 61.7373 112.143 61.6977 111.884 61.6248C110.465 61.2244 108.9 61.0716 107.581 61.2047C105.542 61.4102 104.29 61.9058 103.285 62.9056C102.733 63.4546 102.292 64.2775 102.113 65.0902C101.932 65.9147 101.987 67.3953 102.225 68.0906C102.929 70.1495 104.963 71.4183 107.558 71.4174C109.275 71.4168 110.885 70.8595 111.93 69.9046C112.157 69.6971 112.381 69.5273 112.427 69.5273C112.482 69.5273 112.511 69.7673 112.511 70.2364C112.511 70.745 112.54 70.9698 112.615 71.0316C112.688 71.0924 113.334 71.1117 114.826 71.0975L116.934 71.0774V65.6332C116.934 60.6441 116.923 60.1353 116.796 59.5474C116.204 56.7985 114.544 55.2586 111.623 54.7476C110.809 54.6052 108.315 54.6048 107.369 54.747ZM167.029 58.3064C165.869 58.6166 164.982 59.5919 164.572 61.0058C164.502 61.2471 164.464 61.4939 164.487 61.554C164.548 61.7137 171.322 61.719 171.384 61.5594C171.448 61.3924 171.198 60.5468 170.926 60.0065C170.658 59.4746 169.984 58.7633 169.522 58.5242C168.863 58.1831 167.828 58.0927 167.029 58.3064ZM147.029 58.3857C144.831 58.8536 143.561 60.8778 144.081 63.0826C144.245 63.7796 144.532 64.284 145.069 64.8213C145.792 65.5446 146.87 65.9734 147.965 65.9734C148.528 65.9734 149.433 65.7417 149.972 65.4595C151.392 64.715 152.166 63.1523 151.919 61.5311C151.669 59.8873 150.476 58.6986 148.743 58.367C148.061 58.2366 147.712 58.2404 147.029 58.3857ZM108.333 64.0499C107.101 64.3484 106.462 65.0722 106.462 66.1681C106.462 67.2238 106.966 67.8408 108.068 68.1341C108.903 68.3565 110.27 68.1983 111.079 67.7858C111.584 67.5281 112.131 66.9687 112.371 66.4649C112.562 66.0617 112.586 65.9287 112.586 65.2698L112.587 64.5283L112.236 64.3733C111.327 63.9712 109.338 63.8064 108.333 64.0499Z" fill="#E1E4E7"/>
<path d="M59.3162 46.0112L52.8512 52.6653V46.0112H59.3162Z" fill="#E1E4E7"/>
</svg>
