<svg width="260" height="120" viewBox="0 0 260 120" fill="none" xmlns="http://www.w3.org/2000/svg">
<rect x="1.30005" y="0.5" width="258.2" height="119" rx="19.5" fill="#121315"/>
<rect x="1.30005" y="0.5" width="258.2" height="119" rx="19.5" stroke="#62666D"/>
<g clip-path="url(#clip0_966_1907)">
<g clip-path="url(#clip1_966_1907)">
<path fill-rule="evenodd" clip-rule="evenodd" d="M54.978 41.2336C54.8701 41.3416 54.7107 41.4299 54.6237 41.4299C54.5367 41.4299 54.4285 41.5267 54.3832 41.6449C54.3378 41.7631 54.2108 41.8599 54.1011 41.8599C53.9913 41.8599 53.9014 41.9888 53.9014 42.1465C53.9014 42.3057 53.8058 42.4331 53.6865 42.4331C53.5682 42.4331 53.4715 42.5255 53.4715 42.6385C53.4715 42.7514 53.3425 42.8847 53.1849 42.9347C53.0272 42.9847 52.8982 43.118 52.8982 43.2309C52.8982 43.3439 52.8015 43.4363 52.6833 43.4363C52.565 43.4363 52.4683 43.533 52.4683 43.6513C52.4683 43.7706 52.3409 43.8662 52.1817 43.8662C52.0199 43.8662 51.8951 43.9618 51.8951 44.0856C51.8951 44.2065 51.7983 44.3423 51.6801 44.3876C51.5619 44.433 51.4651 44.56 51.4651 44.6698C51.4651 44.7796 51.3684 44.8694 51.2502 44.8694C51.1319 44.8694 51.0352 44.9662 51.0352 45.0844C51.0352 45.2026 50.9324 45.2994 50.8067 45.2994C50.6812 45.2994 50.5446 45.4283 50.5035 45.586C50.4622 45.7436 50.3393 45.8726 50.2302 45.8726C50.1213 45.8726 50.032 45.9693 50.032 46.0876C50.032 46.2058 49.9376 46.3025 49.822 46.3025C49.7067 46.3025 49.5351 46.4463 49.4411 46.622C49.221 47.0333 48.9467 47.3057 48.7524 47.3057C48.668 47.3057 48.5989 47.3731 48.5989 47.4555C48.5989 47.5379 48.4334 47.7709 48.2311 47.9731L47.8633 48.341L47.5397 48.037C47.12 47.6428 46.9267 47.8302 47.3207 48.2496L47.6215 48.5697L47.0353 49.1559C46.7129 49.4783 46.3847 49.742 46.3059 49.742C46.2271 49.742 46.1626 49.8313 46.1626 49.9402C46.1626 50.0493 46.0336 50.1722 45.8759 50.2135C45.7183 50.2547 45.5893 50.3912 45.5893 50.5168C45.5893 50.6425 45.4926 50.7452 45.3744 50.7452C45.2561 50.7452 45.1594 50.8345 45.1594 50.9434C45.1594 51.0525 45.0304 51.1754 44.8728 51.2167C44.7151 51.2578 44.5861 51.3944 44.5861 51.52C44.5861 51.6456 44.4894 51.7484 44.3712 51.7484C44.2529 51.7484 44.1562 51.8451 44.1562 51.9634C44.1562 52.0816 44.0946 52.1783 44.0193 52.1783C43.8416 52.1783 43.153 52.8669 43.153 53.0447C43.153 53.1199 43.0563 53.1815 42.9381 53.1815C42.8198 53.1815 42.7231 53.2708 42.7231 53.3797C42.7231 53.4888 42.5941 53.6117 42.4365 53.653C42.2788 53.6941 42.1498 53.8307 42.1498 53.9563C42.1498 54.0819 42.0531 54.1847 41.9349 54.1847C41.8166 54.1847 41.7199 54.2814 41.7199 54.3997C41.7199 54.5179 41.6587 54.6146 41.584 54.6146C41.3866 54.6146 40.7167 55.2638 40.7167 55.4552C40.7167 55.5446 40.62 55.6178 40.5017 55.6178C40.3835 55.6178 40.2868 55.7146 40.2868 55.8328C40.2868 55.951 40.2223 56.0478 40.1435 56.0478C40.0492 56.0478 40.0002 59.942 40.0002 67.4438V78.8398L50.432 78.8013L60.8638 78.7627L64.7632 74.8648C66.9079 72.7208 68.6626 70.899 68.6626 70.8162C68.6626 70.7123 65.3311 70.6656 57.9142 70.6656H47.1658V59.9888V49.3121H57.9086C67.4302 49.3121 68.6723 49.2869 68.8361 49.0902C68.9377 48.9683 69.1045 48.7909 69.2069 48.6961C69.3092 48.6014 69.5481 48.3787 69.7378 48.2014C69.9274 48.024 70.1502 47.879 70.2326 47.879C70.315 47.879 70.3823 47.7822 70.3823 47.664C70.3823 47.5458 70.4791 47.449 70.5973 47.449C70.7167 47.449 70.8123 47.3216 70.8123 47.1624C70.8123 46.9714 70.9078 46.8758 71.0989 46.8758C71.2581 46.8758 71.3855 46.7802 71.3855 46.6608C71.3855 46.5426 71.4496 46.4458 71.5277 46.4458C71.7502 46.4458 72.3887 45.8421 72.3887 45.6318C72.3887 45.5278 72.4854 45.4427 72.6037 45.4427C72.7219 45.4427 72.8186 45.3459 72.8186 45.2277C72.8186 45.1095 72.8864 45.0127 72.9694 45.0127C73.1733 45.0127 76.688 41.5077 76.688 41.3044C76.688 41.1869 73.9653 41.1376 66.6204 41.1221C61.0832 41.1103 56.2426 41.0865 55.8635 41.0691C55.4333 41.0493 55.1005 41.1111 54.978 41.2336ZM60.7446 57.6324C58.5574 59.8316 56.7677 61.6644 56.7677 61.7056C56.7677 61.7466 59.5408 61.7802 62.9301 61.7802H69.0925V66.2229C69.0925 68.6664 69.124 70.6656 69.1626 70.6656C69.2923 70.6656 73.5352 66.3426 73.5352 66.2103C73.5352 66.0327 74.6457 64.9331 74.825 64.9331C74.9038 64.9331 74.9683 64.8364 74.9683 64.7181C74.9683 64.5988 75.0957 64.5032 75.2549 64.5032C75.4126 64.5032 75.5416 64.4079 75.5416 64.2912C75.5416 64.1747 75.864 63.7602 76.2581 63.3703L76.9747 62.6612V58.1364V53.6115L70.8481 53.6228L64.7215 53.634L60.7446 57.6324ZM95.7844 55.0156C95.2918 55.039 94.8887 55.1197 94.8887 55.1948C94.8887 55.2697 94.663 55.3312 94.3871 55.3312C94.1112 55.3312 93.8855 55.3905 93.8855 55.4632C93.8855 55.5357 93.7045 55.6347 93.4834 55.6833C93.2622 55.7319 92.9901 55.8983 92.8784 56.0531C92.7669 56.2078 92.5954 56.3344 92.4974 56.3344C92.2484 56.3344 91.5018 57.0894 91.3841 57.4602C91.3304 57.6292 91.2265 57.7675 91.153 57.7675C91.0795 57.7675 91.0193 57.8642 91.0193 57.9825C91.0193 58.1007 90.9548 58.1974 90.8759 58.1974C90.7971 58.1974 90.7326 58.321 90.7326 58.4722C90.7326 58.6232 90.6671 58.7687 90.5872 58.7953C90.5072 58.822 90.4012 59.2787 90.3516 59.8104C90.3018 60.3421 90.2061 60.7771 90.1386 60.7771C90.0713 60.7771 90.0161 61.3252 90.0161 61.9952C90.0161 62.6652 90.0723 63.2134 90.1409 63.2134C90.2095 63.2134 90.3094 63.6003 90.3629 64.0732C90.4165 64.5462 90.5215 64.9331 90.5965 64.9331C90.6713 64.9331 90.7326 65.0801 90.7326 65.2597C90.7326 65.4394 90.8616 65.6793 91.0193 65.793C91.1769 65.9066 91.3059 66.0891 91.3059 66.1984C91.3059 66.5318 92.8472 67.9428 93.313 68.036C93.549 68.0831 93.7422 68.1783 93.7422 68.2472C93.7422 68.3161 93.9034 68.3726 94.1005 68.3726C94.2975 68.3726 94.4587 68.4371 94.4587 68.5159C94.4587 68.5947 94.6845 68.6592 94.9603 68.6592C95.2362 68.6592 95.4619 68.7237 95.4619 68.8025C95.4619 68.8901 96.1308 68.9458 97.1817 68.9458C98.2326 68.9458 98.9014 68.8901 98.9014 68.8025C98.9014 68.7237 99.1271 68.6592 99.403 68.6592C99.6789 68.6592 99.9046 68.5947 99.9046 68.5159C99.9046 68.4371 100.066 68.3726 100.263 68.3726C100.46 68.3726 100.621 68.3081 100.621 68.2293C100.621 68.1505 100.752 68.086 100.912 68.086C101.072 68.086 101.241 67.9892 101.286 67.871C101.331 67.7528 101.458 67.656 101.568 67.656C101.817 67.656 102.341 67.145 102.341 66.9024C102.341 66.803 102.47 66.6412 102.628 66.5428C102.898 66.374 102.914 66.2086 102.914 63.6422V60.9204H99.5463H96.1785V61.8519V62.7834H98.2565H100.335V64.0732C100.335 64.8375 100.276 65.363 100.191 65.363C100.112 65.363 100.048 65.4321 100.048 65.5165C100.048 65.6594 99.9628 65.7778 99.5174 66.2537C99.2044 66.5882 98.9156 66.7962 98.7641 66.7962C98.682 66.7962 98.6148 66.8607 98.6148 66.9395C98.6148 67.0255 98.0416 67.0828 97.1817 67.0828C96.3935 67.0828 95.7486 67.0341 95.7486 66.9744C95.7486 66.9148 95.539 66.7747 95.2828 66.6627C94.7179 66.4161 93.5989 65.3189 93.5989 65.0115C93.5989 64.8895 93.5344 64.7898 93.4556 64.7898C93.3767 64.7898 93.3123 64.6339 93.3123 64.4434C93.3123 64.2529 93.2317 64.0702 93.1331 64.0374C93.0005 63.9933 92.954 63.4252 92.954 61.8519C92.954 60.2786 93.0005 59.7105 93.1331 59.6664C93.2317 59.6336 93.3123 59.4831 93.3123 59.332C93.3123 59.1808 93.3767 59.0573 93.4556 59.0573C93.5344 59.0573 93.5989 58.9606 93.5989 58.8423C93.5989 58.7241 93.6634 58.6274 93.7422 58.6274C93.821 58.6274 93.8855 58.5335 93.8855 58.4189C93.8855 58.1489 94.5535 57.4809 94.8235 57.4809C94.9381 57.4809 95.032 57.4164 95.032 57.3376C95.032 57.2587 95.1287 57.1943 95.247 57.1943C95.3652 57.1943 95.4619 57.1298 95.4619 57.0509C95.4619 56.9721 95.6554 56.9076 95.8919 56.9076C96.1283 56.9076 96.3218 56.8431 96.3218 56.7643C96.3218 56.6855 96.5475 56.621 96.8234 56.621C97.0993 56.621 97.325 56.6855 97.325 56.7643C97.325 56.8431 97.4862 56.9076 97.6833 56.9076C97.8803 56.9076 98.0416 56.9721 98.0416 57.0509C98.0416 57.1298 98.1705 57.1943 98.3282 57.1943C98.4858 57.1943 98.6148 57.2587 98.6148 57.3376C98.6148 57.4164 98.7016 57.4809 98.8078 57.4809C99.1257 57.4809 99.5918 57.9709 99.7021 58.4209C99.759 58.6527 99.8761 58.8898 99.9625 58.9477C100.049 59.0056 100.748 59.0539 101.517 59.0552C102.819 59.0572 102.914 59.0378 102.914 58.7707C102.914 58.613 102.85 58.4841 102.771 58.4841C102.692 58.4841 102.628 58.3873 102.628 58.2691C102.628 58.1509 102.563 58.0541 102.484 58.0541C102.405 58.0541 102.341 57.932 102.341 57.7828C102.341 57.6336 102.244 57.4744 102.126 57.429C102.008 57.3837 101.911 57.2199 101.911 57.0651C101.911 56.9095 101.783 56.743 101.624 56.6927C101.467 56.6426 101.338 56.5416 101.338 56.4681C101.338 56.3946 101.255 56.3344 101.154 56.3344C101.054 56.3344 100.878 56.2057 100.765 56.0485C100.652 55.8911 100.347 55.7227 100.088 55.6741C99.8297 55.6257 99.618 55.5285 99.618 55.4586C99.618 55.3885 99.4622 55.3312 99.2716 55.3312C99.0811 55.3312 98.9039 55.2753 98.8775 55.2071C98.8217 55.0622 97.0751 54.9541 95.7844 55.0156ZM105.207 61.6369V68.3726H109.724H114.241L114.74 67.8587C115.014 67.5761 115.239 67.2214 115.239 67.0705C115.239 66.8073 115.088 66.7962 111.513 66.7962H107.787V64.6465V62.4968H110.713C112.322 62.4968 113.741 62.4577 113.866 62.4098C113.99 62.3619 114.093 62.2318 114.093 62.1206C114.093 62.0094 114.318 61.6993 114.594 61.4314C114.87 61.1634 115.096 60.9066 115.096 60.8606C115.096 60.8147 113.451 60.7771 111.441 60.7771H107.787V58.699V56.621H111.026H114.264L114.752 56.1337C115.02 55.8658 115.239 55.5433 115.239 55.4172C115.239 55.2911 115.303 55.1879 115.382 55.1879C115.461 55.1879 115.526 55.1234 115.526 55.0446C115.526 54.9517 113.71 54.9013 110.366 54.9013H105.207V61.6369ZM117.675 61.6369V68.3726H122.124C125.472 68.3726 126.626 68.3283 126.789 68.1935C127.438 67.6545 127.707 67.327 127.707 67.0763C127.707 66.8053 127.582 66.7962 123.909 66.7962H120.112V64.6465V62.4968H123.109C124.758 62.4968 126.209 62.4577 126.334 62.4098C126.459 62.3619 126.561 62.2162 126.561 62.0859C126.561 61.9558 126.785 61.6563 127.059 61.4205C127.333 61.1849 127.559 60.9436 127.561 60.8845C127.562 60.8255 125.887 60.7771 123.838 60.7771H120.112V58.699V56.621H123.39H126.668L127.188 56.1451C127.473 55.8832 127.707 55.5608 127.707 55.4285C127.707 55.2962 127.772 55.1879 127.85 55.1879C127.929 55.1879 127.994 55.1234 127.994 55.0446C127.994 54.9517 126.178 54.9013 122.835 54.9013H117.675V61.6369ZM129.952 54.9969C129.9 55.0493 129.857 58.0804 129.857 61.7325V68.3726H131.218H132.58V66.6625C132.58 65.0932 132.603 64.9451 132.859 64.8637C133.013 64.815 133.178 64.6495 133.227 64.4959C133.276 64.3422 133.373 64.2165 133.443 64.2165C133.617 64.2165 134.3 63.5209 134.3 63.3436C134.3 63.2648 135.172 62.3165 136.238 61.2364C137.304 60.1561 138.223 59.225 138.28 59.1671C138.337 59.1092 138.787 58.6731 139.28 58.198C139.772 57.7229 140.175 57.2699 140.175 57.1915C140.175 57.1131 140.627 56.6028 141.178 56.0576C141.73 55.5123 142.182 55.0291 142.182 54.9838C142.182 54.8729 139.324 54.878 138.764 54.99C138.514 55.04 138.284 55.1932 138.237 55.3409C138.192 55.4851 138.026 55.6439 137.869 55.6936C137.703 55.7464 137.549 55.9588 137.5 56.2025C137.454 56.4327 137.365 56.621 137.302 56.621C137.138 56.621 135.159 58.5981 135.159 58.7617C135.159 58.8366 134.579 59.4855 133.87 60.2038L132.58 61.5097V58.2055V54.9013H131.314C130.618 54.9013 130.005 54.9443 129.952 54.9969ZM149.096 55.0082C148.683 55.0364 148.344 55.1207 148.344 55.1953C148.344 55.2701 148.183 55.3312 147.986 55.3312C147.789 55.3312 147.628 55.3957 147.628 55.4745C147.628 55.5533 147.471 55.6178 147.279 55.6178C147.088 55.6178 146.835 55.7146 146.716 55.8328C146.598 55.951 146.463 56.0478 146.417 56.0478C146.22 56.0478 144.761 57.6127 144.761 57.8237C144.761 57.9504 144.697 58.0541 144.618 58.0541C144.539 58.0541 144.475 58.1509 144.475 58.2691C144.475 58.3873 144.41 58.4841 144.331 58.4841C144.253 58.4841 144.188 58.6324 144.188 58.8137C144.188 58.995 144.108 59.224 144.009 59.3226C143.879 59.452 143.83 60.1835 143.83 61.9547C143.83 63.7898 143.875 64.4228 144.009 64.4673C144.108 64.5002 144.188 64.6829 144.188 64.8733C144.188 65.0638 144.253 65.2197 144.331 65.2197C144.41 65.2197 144.475 65.3165 144.475 65.4347C144.475 65.5529 144.531 65.6497 144.6 65.6497C144.669 65.6497 144.764 65.8443 144.812 66.082C144.907 66.5567 145.904 67.656 146.24 67.656C146.355 67.656 146.487 67.7528 146.533 67.871C146.578 67.9892 146.746 68.086 146.907 68.086C147.067 68.086 147.198 68.1505 147.198 68.2293C147.198 68.3081 147.359 68.3726 147.556 68.3726C147.753 68.3726 147.914 68.4371 147.914 68.5159C147.914 68.5947 148.14 68.6592 148.416 68.6592C148.692 68.6592 148.917 68.7237 148.917 68.8025C148.917 68.889 149.515 68.9458 150.422 68.9458C151.33 68.9458 151.927 68.889 151.927 68.8025C151.927 68.7237 152.153 68.6592 152.428 68.6592C152.704 68.6592 152.93 68.5947 152.93 68.5159C152.93 68.4371 153.091 68.3726 153.288 68.3726C153.485 68.3726 153.647 68.3151 153.647 68.2448C153.647 68.1745 153.808 68.0765 154.005 68.0271C154.202 67.9776 154.363 67.8739 154.363 67.7966C154.363 67.7192 154.46 67.656 154.578 67.656C154.696 67.656 154.793 67.5958 154.793 67.5223C154.793 67.4488 154.922 67.3478 155.079 67.2979C155.237 67.2479 155.405 67.0501 155.453 66.8582C155.501 66.6665 155.598 66.5095 155.668 66.5095C155.739 66.5095 155.796 65.9614 155.796 65.2914C155.796 64.6214 155.759 64.0732 155.715 64.0732C155.605 64.0732 155.223 64.4597 155.223 64.5711C155.223 64.6197 155.062 64.8208 154.865 65.0178C154.668 65.2149 154.507 65.4333 154.507 65.5032C154.507 65.5731 154.381 65.6703 154.227 65.719C154.074 65.7678 153.91 65.9265 153.864 66.0719C153.813 66.2324 153.585 66.3728 153.283 66.4293C153.01 66.4806 152.787 66.5841 152.787 66.6593C152.787 66.7345 152.658 66.7962 152.5 66.7962C152.343 66.7962 152.214 66.8607 152.214 66.9395C152.214 67.0249 151.664 67.0828 150.852 67.0828C150.04 67.0828 149.491 67.0249 149.491 66.9395C149.491 66.8607 149.362 66.7962 149.204 66.7962C149.046 66.7962 148.917 66.7387 148.917 66.6683C148.917 66.5981 148.756 66.5001 148.559 66.4506C148.362 66.4012 148.201 66.2974 148.201 66.2202C148.201 66.1428 148.104 66.0796 147.986 66.0796C147.868 66.0796 147.771 65.9829 147.771 65.8646C147.771 65.7464 147.716 65.6497 147.649 65.6497C147.582 65.6497 147.408 65.3595 147.262 65.0048C147.115 64.6501 146.944 64.3599 146.882 64.3599C146.819 64.3599 146.768 64.1986 146.768 64.0016C146.768 63.8045 146.703 63.6433 146.624 63.6433C146.537 63.6433 146.481 62.9984 146.481 61.9952C146.481 60.992 146.537 60.3471 146.624 60.3471C146.703 60.3471 146.768 60.1214 146.768 59.8455C146.768 59.5697 146.832 59.3439 146.911 59.3439C146.99 59.3439 147.054 59.1827 147.054 58.9857C147.054 58.7886 147.114 58.6274 147.188 58.6274C147.262 58.6274 147.367 58.4822 147.423 58.3049C147.542 57.9293 148.016 57.4809 148.294 57.4809C148.401 57.4809 148.487 57.4164 148.487 57.3376C148.487 57.2587 148.584 57.1943 148.702 57.1943C148.821 57.1943 148.917 57.1298 148.917 57.0509C148.917 56.9721 149.111 56.9076 149.347 56.9076C149.584 56.9076 149.777 56.8431 149.777 56.7643C149.777 56.6855 149.938 56.621 150.135 56.621C150.333 56.621 150.494 56.6855 150.494 56.7643C150.494 56.8431 150.705 56.9076 150.964 56.9076C151.269 56.9076 151.506 57.0079 151.64 57.1943C151.754 57.3519 151.929 57.4809 152.03 57.4809C152.131 57.4809 152.214 57.5634 152.214 57.6642C152.214 57.7651 152.343 57.9405 152.5 58.0541C152.658 58.1678 152.787 58.3432 152.787 58.4441C152.787 58.5448 152.844 58.6274 152.915 58.6274C152.985 58.6274 153.083 58.7886 153.132 58.9857C153.22 59.3346 153.256 59.3439 154.509 59.3439H155.796V58.914C155.796 58.6775 155.732 58.4841 155.653 58.4841C155.574 58.4841 155.51 58.4133 155.51 58.3266C155.51 57.7735 154.212 56.0478 153.796 56.0478C153.714 56.0478 153.647 55.9846 153.647 55.9072C153.647 55.8299 153.485 55.7262 153.288 55.6767C153.091 55.6273 152.93 55.5293 152.93 55.459C152.93 55.3887 152.71 55.3312 152.44 55.3312C152.171 55.3312 151.929 55.2765 151.903 55.2097C151.845 55.0612 150.127 54.9378 149.096 55.0082ZM162.202 54.9924C162.147 55.0473 162.102 55.2428 162.102 55.4268C162.102 55.6107 162.038 55.7611 161.959 55.7611C161.88 55.7611 161.815 55.8901 161.815 56.0478C161.815 56.2054 161.751 56.3344 161.672 56.3344C161.593 56.3344 161.529 56.4956 161.529 56.6927C161.529 56.8897 161.465 57.0509 161.387 57.0509C161.309 57.0509 161.204 57.3089 161.154 57.6242C161.103 57.9395 161.006 58.1974 160.937 58.1974C160.868 58.1974 160.812 58.3264 160.812 58.4841C160.812 58.6417 160.755 58.7707 160.685 58.7707C160.615 58.7707 160.515 59.0609 160.461 59.4156C160.408 59.7703 160.304 60.0605 160.23 60.0605C160.156 60.0605 160.096 60.2217 160.096 60.4188C160.096 60.6158 160.04 60.7771 159.971 60.7771C159.902 60.7771 159.804 61.035 159.754 61.3503C159.704 61.6656 159.599 61.9236 159.521 61.9236C159.443 61.9236 159.379 62.0848 159.379 62.2818C159.379 62.4789 159.315 62.6401 159.236 62.6401C159.157 62.6401 159.093 62.7691 159.093 62.9267C159.093 63.0844 159.036 63.2134 158.968 63.2134C158.899 63.2134 158.801 63.4713 158.751 63.7866C158.7 64.1019 158.595 64.3599 158.518 64.3599C158.44 64.3599 158.376 64.5211 158.376 64.7181C158.376 64.9152 158.319 65.0764 158.249 65.0764C158.179 65.0764 158.078 65.3666 158.025 65.7213C157.972 66.076 157.868 66.3662 157.794 66.3662C157.72 66.3662 157.659 66.5275 157.659 66.7245C157.659 66.9216 157.595 67.0828 157.516 67.0828C157.437 67.0828 157.373 67.1795 157.373 67.2978C157.373 67.416 157.308 67.5127 157.229 67.5127C157.151 67.5127 157.086 67.7062 157.086 67.9427V68.3726H158.519C159.698 68.3726 159.952 68.3343 159.952 68.1576C159.952 68.0394 160.013 67.9427 160.087 67.9427C160.161 67.9427 160.265 67.6525 160.318 67.2978C160.371 66.9431 160.472 66.6529 160.542 66.6529C160.612 66.6529 160.669 66.4916 160.669 66.2946C160.669 66.0975 160.733 65.9363 160.812 65.9363C160.891 65.9363 160.956 65.7751 160.956 65.578V65.2197H163.822H166.688V65.578C166.688 65.7751 166.749 65.9363 166.823 65.9363C166.897 65.9363 167.001 66.2265 167.054 66.5812C167.107 66.9359 167.208 67.2261 167.278 67.2261C167.347 67.2261 167.405 67.3873 167.405 67.5844C167.405 67.7814 167.469 67.9427 167.548 67.9427C167.627 67.9427 167.691 68.0394 167.691 68.1576C167.691 68.3338 167.94 68.3726 169.071 68.3726H170.451L170.352 67.6202C170.298 67.2065 170.193 66.8463 170.119 66.8201C170.045 66.7937 169.984 66.6809 169.984 66.5693C169.984 66.4575 169.927 66.3662 169.857 66.3662C169.787 66.3662 169.687 66.076 169.633 65.7213C169.58 65.3666 169.476 65.0764 169.402 65.0764C169.328 65.0764 169.268 64.9152 169.268 64.7181C169.268 64.5211 169.203 64.3599 169.124 64.3599C169.046 64.3599 168.981 64.2631 168.981 64.1449C168.981 64.0267 168.925 63.9299 168.856 63.9299C168.787 63.9299 168.688 63.6559 168.635 63.3208C168.532 62.6649 168.251 61.9236 168.105 61.9236C168.055 61.9236 167.973 61.6656 167.923 61.3503C167.872 61.035 167.767 60.7771 167.69 60.7771C167.612 60.7771 167.548 60.5836 167.548 60.3471C167.548 60.1107 167.483 59.9172 167.405 59.9172C167.326 59.9172 167.261 59.756 167.261 59.5589C167.261 59.3619 167.198 59.2006 167.12 59.2006C167.042 59.2006 166.937 58.9427 166.886 58.6274C166.836 58.3121 166.738 58.0541 166.67 58.0541C166.601 58.0541 166.545 57.9251 166.545 57.7675C166.545 57.6099 166.486 57.4809 166.415 57.4809C166.343 57.4809 166.241 57.1584 166.186 56.7643C166.132 56.3702 166.03 56.0478 165.958 56.0478C165.887 56.0478 165.828 55.951 165.828 55.8328C165.828 55.7146 165.768 55.6178 165.695 55.6178C165.622 55.6178 165.541 55.4726 165.516 55.2954C165.472 54.9861 165.405 54.9713 163.886 54.9326C163.015 54.9106 162.257 54.9374 162.202 54.9924ZM172.277 61.6177V68.3726H173.567H174.857V65.793V63.2134H176.147C177.341 63.2134 177.436 63.2346 177.436 63.5C177.436 63.6576 177.5 63.7866 177.577 63.7866C177.654 63.7866 177.755 63.9355 177.801 64.1174C177.846 64.2992 178.041 64.5662 178.233 64.7107C178.426 64.8551 178.583 65.0889 178.583 65.2302C178.583 65.3715 178.712 65.528 178.869 65.5779C179.027 65.6279 179.194 65.8237 179.242 66.0128C179.289 66.202 179.515 66.5041 179.742 66.684C179.97 66.864 180.157 67.0888 180.158 67.1838C180.159 67.2787 180.321 67.5176 180.518 67.7147C180.715 67.9117 180.876 68.1404 180.876 68.2228C180.876 68.3183 181.473 68.3726 182.524 68.3726C183.43 68.3726 184.172 68.3223 184.172 68.261C184.172 68.1995 184.043 68.0563 183.885 67.9427C183.728 67.829 183.599 67.6558 183.599 67.5576C183.599 67.4593 183.38 67.1606 183.114 66.8938C182.847 66.6269 182.586 66.2734 182.533 66.1081C182.481 65.9429 182.312 65.7678 182.158 65.719C182.005 65.6703 181.879 65.5164 181.879 65.3771C181.879 65.2378 181.686 64.9515 181.449 64.7408C181.213 64.53 181.019 64.2873 181.019 64.2012C181.019 64.1152 180.826 63.8641 180.589 63.6433C180.353 63.4225 180.159 63.203 180.159 63.1559C180.159 63.1086 180.385 63.0701 180.661 63.0701C180.937 63.0701 181.163 63.0056 181.163 62.9267C181.163 62.8479 181.292 62.7834 181.449 62.7834C181.607 62.7834 181.736 62.726 181.736 62.6556C181.736 62.5854 181.893 62.4885 182.084 62.4403C182.276 62.3922 182.473 62.2272 182.522 62.0739C182.57 61.9204 182.736 61.755 182.89 61.7063C183.043 61.6576 183.169 61.4983 183.169 61.3526C183.169 61.2069 183.241 61.0635 183.329 61.0343C183.544 60.9625 183.538 57.4367 183.322 57.3648C183.238 57.3367 183.169 57.1944 183.169 57.0487C183.169 56.9029 183.04 56.7427 182.882 56.6927C182.725 56.6426 182.596 56.5445 182.596 56.4745C182.596 56.2679 181.884 55.6178 181.658 55.6178C181.543 55.6178 181.449 55.5533 181.449 55.4745C181.449 55.3957 181.293 55.3312 181.103 55.3312C180.912 55.3312 180.731 55.256 180.701 55.1638C180.661 55.0434 179.471 54.9778 176.461 54.9296L172.277 54.8629V61.6177ZM185.175 55.7611V56.621H187.397H189.618V62.4968V68.3726H191.051H192.484V62.4968V56.621H194.276C195.514 56.621 196.067 56.5708 196.067 56.4586C196.067 56.3694 196.196 56.1846 196.353 56.048C196.511 55.9113 196.68 55.5975 196.73 55.3504L196.819 54.9013H190.997H185.175V55.7611ZM199.077 61.6369V68.3726H203.601C207.019 68.3726 208.175 68.3287 208.326 68.1935C209.057 67.5371 209.252 67.2903 209.252 67.0172C209.252 66.8235 208.78 66.7962 205.454 66.7962H201.656V64.6494V62.5024L204.769 62.4638C207.745 62.4269 207.889 62.4121 208.029 62.1312C208.111 61.9696 208.354 61.6603 208.571 61.444C208.788 61.2276 208.965 60.9892 208.965 60.9139C208.965 60.8305 207.535 60.7771 205.311 60.7771H201.656V58.699V56.621H205.012C206.858 56.621 208.47 56.5819 208.595 56.534C208.72 56.4861 208.822 56.3229 208.822 56.1713C208.822 56.0195 208.919 55.8583 209.037 55.813C209.155 55.7676 209.252 55.6084 209.252 55.4592C209.252 55.31 209.316 55.1879 209.395 55.1879C209.474 55.1879 209.538 55.1234 209.538 55.0446C209.538 54.9517 207.699 54.9013 204.307 54.9013H199.077V61.6369ZM211.497 54.9969C211.444 55.0493 211.401 58.0804 211.401 61.7325V68.3726H215.701H220V67.5844V66.7962H217.062H214.124V60.8487V54.9013H212.858C212.162 54.9013 211.549 54.9443 211.497 54.9969ZM174.857 59.2006V61.4936H176.72C177.866 61.4936 178.583 61.4384 178.583 61.3503C178.583 61.2715 178.809 61.207 179.085 61.207C179.36 61.207 179.586 61.1425 179.586 61.0637C179.586 60.9849 179.701 60.9204 179.841 60.9204C180.371 60.9204 180.589 60.4158 180.589 59.188C180.589 58.1014 180.564 58.007 180.17 57.6132C179.94 57.3827 179.65 57.1943 179.526 57.1943C179.401 57.1943 179.3 57.1298 179.3 57.0509C179.3 56.9615 178.464 56.9076 177.078 56.9076H174.857V59.2006ZM163.678 58.2691C163.678 58.4662 163.614 58.6274 163.535 58.6274C163.456 58.6274 163.392 58.7241 163.392 58.8423C163.392 58.9606 163.336 59.0573 163.267 59.0573C163.198 59.0573 163.1 59.3772 163.048 59.768C162.996 60.1588 162.891 60.5174 162.814 60.5647C162.738 60.612 162.675 60.808 162.675 61.0005C162.675 61.193 162.611 61.3503 162.532 61.3503C162.453 61.3503 162.389 61.5062 162.389 61.6967C162.389 61.8872 162.332 62.0644 162.262 62.0908C162.193 62.117 162.09 62.4125 162.035 62.7476L161.934 63.3567L163.988 63.3454C165.118 63.3392 165.963 63.3015 165.864 63.2618C165.766 63.222 165.685 63.0981 165.685 62.9865C165.685 62.8747 165.626 62.7834 165.555 62.7834C165.484 62.7834 165.381 62.461 165.327 62.0669C165.272 61.6728 165.17 61.3503 165.098 61.3503C165.027 61.3503 164.968 61.1891 164.968 60.992C164.968 60.795 164.908 60.6337 164.834 60.6337C164.76 60.6337 164.656 60.3435 164.603 59.9888C164.549 59.6341 164.449 59.3439 164.379 59.3439C164.309 59.3439 164.252 59.1827 164.252 58.9857C164.252 58.7886 164.187 58.6274 164.108 58.6274C164.03 58.6274 163.965 58.4662 163.965 58.2691C163.965 58.072 163.901 57.9108 163.822 57.9108C163.743 57.9108 163.678 58.072 163.678 58.2691ZM136.198 61.9949C135.354 62.8608 135.28 63.1904 135.804 63.7555C136.001 63.968 136.163 64.1998 136.163 64.2703C136.163 64.3409 136.324 64.548 136.521 64.7308C136.718 64.9133 136.879 65.1583 136.879 65.2749C136.879 65.3916 137.011 65.5289 137.172 65.5799C137.344 65.6346 137.498 65.8424 137.547 66.0869C137.593 66.3146 137.748 66.5385 137.892 66.5844C138.036 66.6301 138.198 66.8039 138.25 66.9704C138.303 67.1371 138.5 67.427 138.688 67.6146C138.875 67.8022 139.029 68.0494 139.029 68.1641C139.029 68.3346 139.332 68.3726 140.692 68.3726C142.15 68.3726 142.345 68.3447 142.269 68.1459C142.221 68.0212 142.182 67.8322 142.182 67.7257C142.182 67.6192 142.053 67.4911 141.895 67.4412C141.738 67.3912 141.571 67.2004 141.526 67.0173C141.48 66.8343 141.286 66.5488 141.095 66.383C140.905 66.2172 140.749 66.0102 140.749 65.9231C140.749 65.836 140.555 65.5839 140.319 65.363C140.082 65.1422 139.889 64.8936 139.889 64.8104C139.889 64.7275 139.735 64.506 139.548 64.3184C139.36 64.1308 139.163 63.8409 139.11 63.6743C139.057 63.5077 138.889 63.3315 138.735 63.2827C138.581 63.234 138.456 63.0931 138.456 62.9699C138.456 62.8465 138.238 62.5404 137.972 62.2897C137.706 62.0389 137.444 61.6927 137.389 61.5204C137.242 61.0568 137.031 61.1408 136.198 61.9949Z" fill="#E1E4E7"/>
</g>
</g>
<defs>
<clipPath id="clip0_966_1907">
<rect width="180" height="60" fill="white" transform="translate(40.4001 30)"/>
</clipPath>
<clipPath id="clip1_966_1907">
<rect width="180" height="37.8344" fill="white" transform="translate(40.0002 41)"/>
</clipPath>
</defs>
</svg>
