<svg width="260" height="120" viewBox="0 0 260 120" fill="none" xmlns="http://www.w3.org/2000/svg">
<rect x="0.699707" y="0.5" width="258.2" height="119" rx="19.5" fill="#121315"/>
<rect x="0.699707" y="0.5" width="258.2" height="119" rx="19.5" stroke="#62666D"/>
<path fill-rule="evenodd" clip-rule="evenodd" d="M202.977 44.1668C199.655 45.5175 199.284 45.7394 198.511 46.832L197.977 47.586L197.93 62.3264L197.883 77.0667H201.133C204.927 77.0667 205.353 76.9423 206.022 75.6381L206.422 74.858V58.8957C206.422 46.2409 206.376 42.9348 206.2 42.9399C206.078 42.9435 204.627 43.4955 202.977 44.1668ZM191.844 52.7248C188.995 53.8612 188.662 54.0406 187.896 54.8543C187.432 55.3463 186.976 56.0383 186.874 56.4048C186.758 56.8242 186.69 60.7287 186.69 67.0667L186.689 77.0667L189.933 77.0663C193.582 77.0662 194.084 76.9401 194.818 75.8404L195.222 75.2363V63.3515C195.222 56.8148 195.162 51.4706 195.089 51.4754C195.015 51.48 193.555 52.0423 191.844 52.7248ZM96.9108 60.6055L95.0442 61.3531L94.9978 69.1209L94.9515 76.8889H96.8991H98.8468L98.901 73.0806C98.9542 69.3519 98.9642 69.263 99.3777 68.8231C100.177 67.9732 101.798 68.0692 102.218 68.9913C102.351 69.2825 102.422 70.7403 102.422 73.1639V76.8889H104.377H106.333L106.332 72.5778C106.331 70.2068 106.251 67.9773 106.152 67.6235C105.692 65.9655 104.469 65.0663 102.689 65.0759C101.259 65.0838 100.452 65.3895 99.5919 66.2496L98.8738 66.9677L98.8257 63.4128L98.7775 59.8578L96.9108 60.6055ZM180.592 61.3243C178.851 62.037 177.224 62.8107 176.974 63.0434C176.725 63.2763 176.309 63.8267 176.049 64.2667L175.577 65.0667L175.524 71.0667L175.471 77.0667H178.777C182.406 77.0667 182.71 76.9983 183.556 75.9927L184.022 75.4395V67.7197C184.022 63.4738 183.962 60.0064 183.889 60.0143C183.815 60.0219 182.332 60.6116 180.592 61.3243ZM88.8664 63.7791C87.3803 64.4036 87.133 64.5664 87.133 64.9204C87.133 65.2836 87.0475 65.3334 86.4219 65.3334H85.7108V66.656V67.9785L86.3775 68.0338L87.0442 68.0889L87.133 71.4667C87.2155 74.5986 87.2516 74.8923 87.6308 75.5023C87.8559 75.8639 88.3359 76.3439 88.6975 76.5689C89.2635 76.9207 89.5908 76.9778 91.0442 76.9778C93.4008 76.9778 93.3553 77.0111 93.3553 75.2925V73.8624L92.647 73.9757C92.1366 74.0573 91.8136 74.0071 91.4914 73.7959C91.0454 73.5039 91.0442 73.4948 91.0442 70.7515V68H92.1997H93.3553V66.6667V65.3334H92.1997H91.0442V64.1778C91.0442 63.3643 90.9784 63.0265 90.8219 63.0365C90.6998 63.0443 89.8198 63.3785 88.8664 63.7791ZM59.6664 65.1339C58.86 65.3421 58.3124 65.6656 57.5775 66.3682L56.9108 67.0055V66.1695V65.3334H55.0442H53.1775V71.1111V76.8889H55.133H57.0886V73.0587C57.0886 69.2288 57.0886 69.2283 57.525 68.792C58.1457 68.1712 59.2402 68.1419 59.8442 68.7298C60.1748 69.0516 60.2034 69.349 60.2538 72.9824L60.3078 76.8889H62.2538H64.1997V73.2356C64.1997 70.3479 64.2552 69.4751 64.4644 69.0704C64.9282 68.1735 66.3322 68.0233 66.9997 68.7993C67.3876 69.2503 67.3997 69.3794 67.3997 73.0767V76.8889H69.3553H71.3108V72.6546C71.3108 67.6832 71.1812 66.984 70.0754 65.9849C69.6904 65.637 69.0465 65.2639 68.6445 65.1558C67.2575 64.7823 65.274 65.3387 64.3028 66.3737L63.7837 66.927L63.3803 66.3334C62.7121 65.3499 60.9874 64.7929 59.6664 65.1339ZM77.7931 65.1465C76.6027 65.3311 74.9658 66.151 74.3206 66.8859C74.0337 67.2125 73.5818 67.8969 73.3162 68.4066C72.8865 69.2311 72.8328 69.5293 72.8276 71.1111C72.821 73.1424 73.1165 74.0175 74.2221 75.2411C75.6968 76.8733 78.8794 77.535 81.3313 76.7191C82.812 76.2263 84.0849 75.1186 84.7627 73.7328C85.1892 72.8614 85.2557 72.5097 85.2607 71.1014C85.266 69.5888 85.2232 69.3908 84.6442 68.2557C83.4219 65.8591 80.818 64.6774 77.7931 65.1465ZM112.594 65.1655C110.719 65.4982 109.152 66.664 108.344 68.327C107.912 69.2159 107.855 69.5408 107.85 71.1111C107.843 73.2624 108.246 74.3431 109.478 75.4784C110.825 76.7206 111.6 76.9734 114.066 76.9759C115.933 76.9776 116.316 76.925 117.132 76.5565C118.494 75.9408 119.414 74.8463 119.773 73.4144L119.883 72.9778H118.009C116.299 72.9778 116.125 73.0086 116.023 73.3287C115.836 73.9193 115.059 74.4 114.291 74.4C112.973 74.4 111.981 73.6157 111.817 72.4445L111.755 72L115.825 71.9522L119.894 71.9044L119.797 70.4759C119.534 66.6505 116.565 64.461 112.594 65.1655ZM145.977 65.146C143.874 65.4635 141.88 67.0592 141.247 68.9312C140.885 70.0025 140.836 71.9881 141.146 73.0772C141.431 74.0818 142.3 75.3337 143.093 75.8831C144.335 76.744 145.704 77.0999 147.489 77.0267C149.412 76.9476 150.699 76.4343 151.844 75.2891C153.048 74.0852 153.355 73.2173 153.355 71.0223C153.355 69.3421 153.308 69.0656 152.88 68.2555C151.999 66.5855 150.419 65.4848 148.443 65.1643C147.221 64.9659 147.174 64.9655 145.977 65.146ZM161.091 65.3263C160.48 65.5371 159.897 65.9008 159.533 66.2982C159.212 66.6475 158.912 66.9334 158.864 66.9334C158.816 66.9334 158.777 66.5734 158.777 66.1334V65.3334H156.822H154.866V71.1111V76.8889H156.804H158.742L158.806 73.2C158.862 69.9961 158.913 69.448 159.194 69.0313C159.81 68.1183 161.386 67.9595 162.092 68.7394C162.388 69.0662 162.427 69.5003 162.476 72.9961L162.53 76.8889H164.489H166.448L166.383 72.3111C166.31 67.2144 166.25 66.9099 165.102 65.9023C164.014 64.9474 162.725 64.7622 161.091 65.3263ZM128.289 65.2429C128.191 65.2756 127.897 65.3492 127.636 65.4066C127.046 65.536 126.124 66.2971 125.686 67.0146L125.357 67.5556L125.356 66.4445L125.355 65.3334H123.4H121.444V71.1111V76.8889H123.4H125.355V73.7689C125.355 70.1558 125.464 69.7755 126.656 69.2343C127.065 69.0487 127.78 68.895 128.244 68.8928L129.089 68.8889V67.0223C129.089 65.0831 129.047 64.9901 128.289 65.2429ZM132.623 65.4011C130.522 66.1519 129.602 67.538 129.897 69.5071C130.147 71.1691 131.078 71.9154 133.47 72.3691C135.889 72.8281 136.184 72.9412 136.314 73.4589C136.63 74.7186 134.064 75.013 133.502 73.7814C133.303 73.3446 133.252 73.3334 131.457 73.3334H129.615L129.727 73.8223C130.095 75.4345 131.261 76.5463 132.951 76.8973C134.453 77.2091 137.173 77.0391 138.066 76.5776C139.515 75.8299 140.111 74.8525 140.111 73.2272C140.111 71.9908 139.773 71.1865 139.019 70.6258C138.26 70.0619 137.614 69.8489 135.603 69.5001C133.854 69.1967 133.533 69.0397 133.533 68.4868C133.533 67.4694 135.79 67.3455 136.108 68.3455C136.214 68.6822 136.363 68.7111 137.989 68.7111C139.664 68.7111 139.755 68.6919 139.755 68.338C139.755 67.2742 138.4 65.7474 137.114 65.362C136.2 65.0882 133.431 65.1122 132.623 65.4011ZM112.88 67.8288C112.504 68.0482 111.844 69.1049 111.844 69.4877C111.844 69.7392 112.116 69.7778 113.889 69.7778C115.831 69.7778 115.933 69.7597 115.933 69.4134C115.933 68.8994 115.459 68.0443 115.054 67.8276C114.624 67.5977 113.275 67.5984 112.88 67.8288ZM77.8674 68.2672C77.1656 68.6487 76.8219 69.5501 76.8219 71.0103C76.8219 73.0635 77.4283 74.0231 78.8146 74.1641C79.7773 74.2621 80.6486 73.7568 81.0104 72.8907C81.1514 72.5535 81.2664 71.7129 81.2664 71.0208C81.2664 69.5609 80.8516 68.5476 80.1167 68.2128C79.4946 67.9295 78.4424 67.9549 77.8674 68.2672ZM145.817 68.4575C145.133 69.0329 144.844 70.0582 144.959 71.503C145.073 72.9451 145.52 73.7051 146.442 74.0276C148.326 74.6868 149.787 72.9506 149.455 70.4473C149.225 68.7136 148.567 68 147.196 68C146.558 68 146.232 68.1081 145.817 68.4575Z" fill="#E1E4E7"/>
</svg>
