<svg width="260" height="120" viewBox="0 0 260 120" fill="none" xmlns="http://www.w3.org/2000/svg">
<rect x="0.700012" y="0.5" width="258.2" height="119" rx="19.5" fill="#121315"/>
<rect x="0.700012" y="0.5" width="258.2" height="119" rx="19.5" stroke="#62666D"/>
<g clip-path="url(#clip0_966_1884)">
<path d="M106.312 70.3541L104.243 66.777C105.218 64.9561 105.207 62.7797 105.207 59.9999C105.207 56.4174 105.207 53.8315 103.139 51.7359C101.637 50.2815 99.6291 49.4683 97.5388 49.4683C95.4484 49.4683 93.4401 50.2815 91.9388 51.7359C89.8431 53.8315 89.9024 56.4174 89.9024 59.9999C89.9024 63.5824 89.8431 66.1628 91.9388 68.2585C92.6665 69.0048 93.5411 69.5921 94.5073 69.9834C95.4734 70.3747 96.5102 70.5614 97.5522 70.5319C98.1457 70.5325 98.7378 70.473 99.3192 70.3541H106.312ZM94.934 65.8181C94.1475 64.9453 93.9482 63.981 93.9482 59.9999C93.9482 56.0187 94.1475 55.049 94.934 54.1763C95.2687 53.8208 95.6753 53.5408 96.1268 53.355C96.5783 53.1692 97.0643 53.0819 97.5522 53.0989C98.0363 53.0812 98.5184 53.1683 98.9657 53.3543C99.4129 53.5402 99.8147 53.8206 100.143 54.1763C100.93 55.049 101.162 56.0133 101.162 59.9999C101.162 63.9864 100.93 64.9453 100.143 65.8181C99.8147 66.1737 99.4129 66.4542 98.9657 66.6401C98.5184 66.8261 98.0363 66.9132 97.5522 66.8955C97.0643 66.9125 96.5783 66.8252 96.1268 66.6394C95.6753 66.4536 95.2687 66.1736 94.934 65.8181Z" fill="#E1E4E7"/>
<path d="M153.638 70.3486V49.6401H157.636V70.3486H153.638Z" fill="#E1E4E7"/>
<path d="M57.3637 70.5317C54.2229 70.5317 51.8364 69.8583 49.8216 67.795L52.4398 65.1769C53.7489 66.486 55.5266 66.9223 57.4445 66.9223C59.831 66.9223 61.1078 66.0173 61.1078 64.3634C61.129 64.0442 61.0834 63.7242 60.974 63.4236C60.8645 63.1231 60.6936 62.8487 60.4721 62.6179C59.9568 62.1794 59.3109 61.9237 58.6351 61.8907L56.1354 61.5405C54.3576 61.2765 53.0485 60.727 52.1219 59.822C51.6092 59.2805 51.2128 58.6399 50.9571 57.9394C50.7014 57.239 50.5918 56.4936 50.6351 55.7493C50.6351 52.0536 53.3718 49.4678 57.8539 49.4678C60.7037 49.4678 62.767 50.1627 64.5448 51.8812L61.9482 54.4132C60.6391 53.158 59.0714 52.9856 57.7031 52.9856C55.5482 52.9856 54.5031 54.1762 54.5031 55.6038C54.4968 55.8802 54.5476 56.1549 54.6524 56.4107C54.7571 56.6666 54.9135 56.898 55.1118 57.0907C55.6584 57.546 56.3277 57.829 57.0351 57.9041L59.4755 58.2543C61.3664 58.5129 62.5623 59.0354 63.4351 59.8705C64.5125 60.9156 65.0512 62.4294 65.0512 64.261C65.0458 68.253 61.7004 70.5317 57.3637 70.5317Z" fill="#E1E4E7"/>
<path d="M70.961 70.3539V49.6401H84.6068V53.2496H75.0068V58.0981H83.1846V61.7021H75.0068V66.7445H84.6068V70.3539H70.961Z" fill="#E1E4E7"/>
<path d="M118.929 70.5317C114.678 70.5317 111.306 67.6496 111.306 63.2536V49.6401H115.352V63.1082C115.352 65.4947 116.747 66.9223 118.929 66.9223C121.111 66.9223 122.533 65.4947 122.533 63.1082V49.6401H126.552V63.2536C126.552 67.6496 123.174 70.5317 118.929 70.5317Z" fill="#E1E4E7"/>
<path d="M145.638 68.2531C144.139 69.7113 142.13 70.5271 140.038 70.5271C137.947 70.5271 135.938 69.7113 134.438 68.2531C132.343 66.1575 132.402 63.5716 132.402 59.9945C132.402 56.4174 132.343 53.8262 134.438 51.7305C135.94 50.2761 137.948 49.4629 140.038 49.4629C142.129 49.4629 144.137 50.2761 145.638 51.7305C147.734 53.8262 147.702 56.412 147.702 59.9945C147.702 63.577 147.734 66.1629 145.638 68.2531ZM142.643 54.1709C142.314 53.8158 141.912 53.5358 141.465 53.3499C141.018 53.164 140.536 53.0765 140.052 53.0935C139.564 53.0765 139.078 53.1638 138.627 53.3496C138.175 53.5354 137.768 53.8154 137.434 54.1709C136.647 55.0437 136.442 56.008 136.442 59.9945C136.442 63.981 136.647 64.94 137.434 65.8127C137.768 66.1682 138.175 66.4482 138.627 66.634C139.078 66.8198 139.564 66.9071 140.052 66.8901C140.536 66.9071 141.018 66.8197 141.465 66.6337C141.912 66.4478 142.314 66.1678 142.643 65.8127C143.43 64.94 143.661 63.9757 143.661 59.9945C143.661 56.0134 143.43 55.0491 142.643 54.1763V54.1709Z" fill="#E1E4E7"/>
<path d="M176.696 70.3539L175.478 66.6906H168.076L166.826 70.3539H162.608L170.15 49.6401H173.318L180.898 70.3539H176.696ZM171.847 55.7492L169.229 63.2913H174.379L171.847 55.7492Z" fill="#E1E4E7"/>
<path d="M209.8 49.6401H204.623V54.8172H209.8V49.6401Z" fill="#E1E4E7"/>
<path d="M191.677 65.9364V49.6401H189.086V68.5277L191.677 65.9364Z" fill="#E1E4E7"/>
<path d="M193.504 67.7681L190.918 70.3539H209.8V67.7681H193.504Z" fill="#E1E4E7"/>
<path d="M196.855 60.7593V49.6401H194.263V63.3452L196.855 60.7593Z" fill="#E1E4E7"/>
<path d="M198.686 62.5908L196.095 65.1767H209.8V62.5908H198.686Z" fill="#E1E4E7"/>
<path d="M202.032 55.5822V49.6401H199.44V58.1681L202.032 55.5822Z" fill="#E1E4E7"/>
<path d="M203.863 57.4087L201.272 59.9999H209.8V57.4087H203.863Z" fill="#E1E4E7"/>
</g>
<defs>
<clipPath id="clip0_966_1884">
<rect width="160" height="21.064" fill="white" transform="translate(49.8 49.4678)"/>
</clipPath>
</defs>
</svg>
