<svg width="260" height="120" viewBox="0 0 260 120" fill="none" xmlns="http://www.w3.org/2000/svg">
<rect x="1.09961" y="0.5" width="258.2" height="119" rx="19.5" fill="#121315"/>
<rect x="1.09961" y="0.5" width="258.2" height="119" rx="19.5" stroke="#62666D"/>
<g clip-path="url(#clip0_966_2006)">
<path d="M61.0382 68.3C60.0315 68.3 59.1249 68.1333 58.3182 67.8C57.5182 67.46 56.8549 66.98 56.3282 66.36C55.8082 65.74 55.4682 65.0033 55.3082 64.15L56.8082 63.9C57.0482 64.8333 57.5549 65.5667 58.3282 66.1C59.1015 66.6267 60.0249 66.89 61.0982 66.89C61.8049 66.89 62.4382 66.78 62.9982 66.56C63.5582 66.3333 63.9982 66.0133 64.3182 65.6C64.6382 65.1867 64.7982 64.6967 64.7982 64.13C64.7982 63.7567 64.7315 63.44 64.5982 63.18C64.4649 62.9133 64.2882 62.6933 64.0682 62.52C63.8482 62.3467 63.6082 62.2033 63.3482 62.09C63.0882 61.97 62.8349 61.8733 62.5882 61.8L58.9382 60.71C58.4982 60.5833 58.0915 60.4233 57.7182 60.23C57.3449 60.03 57.0182 59.7933 56.7382 59.52C56.4649 59.24 56.2515 58.9133 56.0982 58.54C55.9449 58.1667 55.8682 57.74 55.8682 57.26C55.8682 56.4467 56.0815 55.7433 56.5082 55.15C56.9349 54.5567 57.5182 54.1 58.2582 53.78C58.9982 53.46 59.8415 53.3033 60.7882 53.31C61.7482 53.31 62.6049 53.48 63.3582 53.82C64.1182 54.16 64.7449 54.6467 65.2382 55.28C65.7315 55.9067 66.0582 56.65 66.2182 57.51L64.6782 57.79C64.5782 57.1633 64.3482 56.62 63.9882 56.16C63.6282 55.7 63.1682 55.3467 62.6082 55.1C62.0549 54.8467 61.4449 54.7167 60.7782 54.71C60.1315 54.71 59.5549 54.82 59.0482 55.04C58.5482 55.2533 58.1515 55.5467 57.8582 55.92C57.5649 56.2933 57.4182 56.72 57.4182 57.2C57.4182 57.6867 57.5515 58.0767 57.8182 58.37C58.0915 58.6633 58.4249 58.8933 58.8182 59.06C59.2182 59.2267 59.6049 59.3633 59.9782 59.47L62.7982 60.3C63.0915 60.38 63.4349 60.4967 63.8282 60.65C64.2282 60.7967 64.6149 61.01 64.9882 61.29C65.3682 61.5633 65.6815 61.9233 65.9282 62.37C66.1749 62.8167 66.2982 63.3833 66.2982 64.07C66.2982 64.7367 66.1649 65.3333 65.8982 65.86C65.6382 66.3867 65.2682 66.83 64.7882 67.19C64.3149 67.55 63.7582 67.8233 63.1182 68.01C62.4849 68.2033 61.7915 68.3 61.0382 68.3ZM71.4524 68.3C70.6391 68.3 69.9557 68.1533 69.4024 67.86C68.8557 67.5667 68.4457 67.1767 68.1724 66.69C67.8991 66.2033 67.7624 65.6733 67.7624 65.1C67.7624 64.5133 67.8791 64.0133 68.1124 63.6C68.3524 63.18 68.6757 62.8367 69.0824 62.57C69.4957 62.3033 69.9724 62.1 70.5124 61.96C71.0591 61.8267 71.6624 61.71 72.3224 61.61C72.9891 61.5033 73.6391 61.4133 74.2724 61.34C74.9124 61.26 75.4724 61.1833 75.9524 61.11L75.4324 61.43C75.4524 60.3633 75.2457 59.5733 74.8124 59.06C74.3791 58.5467 73.6257 58.29 72.5524 58.29C71.8124 58.29 71.1857 58.4567 70.6724 58.79C70.1657 59.1233 69.8091 59.65 69.6024 60.37L68.1724 59.95C68.4191 58.9833 68.9157 58.2333 69.6624 57.7C70.4091 57.1667 71.3791 56.9 72.5724 56.9C73.5591 56.9 74.3957 57.0867 75.0824 57.46C75.7757 57.8267 76.2657 58.36 76.5524 59.06C76.6857 59.3733 76.7724 59.7233 76.8124 60.11C76.8524 60.4967 76.8724 60.89 76.8724 61.29V68H75.5624V65.29L75.9424 65.45C75.5757 66.3767 75.0057 67.0833 74.2324 67.57C73.4591 68.0567 72.5324 68.3 71.4524 68.3ZM71.6224 67.03C72.3091 67.03 72.9091 66.9067 73.4224 66.66C73.9357 66.4133 74.3491 66.0767 74.6624 65.65C74.9757 65.2167 75.1791 64.73 75.2724 64.19C75.3524 63.8433 75.3957 63.4633 75.4024 63.05C75.4091 62.63 75.4124 62.3167 75.4124 62.11L75.9724 62.4C75.4724 62.4667 74.9291 62.5333 74.3424 62.6C73.7624 62.6667 73.1891 62.7433 72.6224 62.83C72.0624 62.9167 71.5557 63.02 71.1024 63.14C70.7957 63.2267 70.4991 63.35 70.2124 63.51C69.9257 63.6633 69.6891 63.87 69.5024 64.13C69.3224 64.39 69.2324 64.7133 69.2324 65.1C69.2324 65.4133 69.3091 65.7167 69.4624 66.01C69.6224 66.3033 69.8757 66.5467 70.2224 66.74C70.5757 66.9333 71.0424 67.03 71.6224 67.03ZM87.2757 68V62.49C87.2757 61.89 87.219 61.34 87.1057 60.84C86.9924 60.3333 86.809 59.8933 86.5557 59.52C86.309 59.14 85.9857 58.8467 85.5857 58.64C85.1924 58.4333 84.7124 58.33 84.1457 58.33C83.6257 58.33 83.1657 58.42 82.7657 58.6C82.3724 58.78 82.039 59.04 81.7657 59.38C81.499 59.7133 81.2957 60.12 81.1557 60.6C81.0157 61.08 80.9457 61.6267 80.9457 62.24L79.9057 62.01C79.9057 60.9033 80.099 59.9733 80.4857 59.22C80.8724 58.4667 81.4057 57.8967 82.0857 57.51C82.7657 57.1233 83.5457 56.93 84.4257 56.93C85.0724 56.93 85.6357 57.03 86.1157 57.23C86.6024 57.43 87.0124 57.7 87.3457 58.04C87.6857 58.38 87.959 58.77 88.1657 59.21C88.3724 59.6433 88.5224 60.1067 88.6157 60.6C88.709 61.0867 88.7557 61.5733 88.7557 62.06V68H87.2757ZM79.4657 68V57.2H80.7957V59.86H80.9457V68H79.4657ZM95.4821 68.3C94.4754 68.3 93.6154 68.05 92.9021 67.55C92.1888 67.0433 91.6421 66.36 91.2621 65.5C90.8821 64.64 90.6921 63.67 90.6921 62.59C90.6921 61.5167 90.8788 60.55 91.2521 59.69C91.6321 58.83 92.1754 58.15 92.8821 57.65C93.5888 57.15 94.4354 56.9 95.4221 56.9C96.4354 56.9 97.2888 57.1467 97.9821 57.64C98.6754 58.1333 99.1988 58.81 99.5521 59.67C99.9121 60.5233 100.092 61.4967 100.092 62.59C100.092 63.6633 99.9154 64.6333 99.5621 65.5C99.2088 66.36 98.6888 67.0433 98.0021 67.55C97.3154 68.05 96.4754 68.3 95.4821 68.3ZM95.6321 66.93C96.3988 66.93 97.0321 66.7433 97.5321 66.37C98.0321 65.9967 98.4054 65.4833 98.6521 64.83C98.8988 64.17 99.0221 63.4233 99.0221 62.59C99.0221 61.7433 98.8988 60.9967 98.6521 60.35C98.4054 59.6967 98.0321 59.1867 97.5321 58.82C97.0388 58.4533 96.4154 58.27 95.6621 58.27C94.8888 58.27 94.2488 58.46 93.7421 58.84C93.2354 59.22 92.8588 59.7367 92.6121 60.39C92.3721 61.0433 92.2521 61.7767 92.2521 62.59C92.2521 63.41 92.3754 64.15 92.6221 64.81C92.8754 65.4633 93.2521 65.98 93.7521 66.36C94.2521 66.74 94.8788 66.93 95.6321 66.93ZM99.0221 68V59.87H98.8621V53.6H100.342V68H99.0221ZM107.718 68.3C106.664 68.3 105.751 68.0667 104.978 67.6C104.211 67.1333 103.614 66.4767 103.188 65.63C102.761 64.7833 102.548 63.79 102.548 62.65C102.548 61.47 102.758 60.45 103.178 59.59C103.598 58.73 104.188 58.0667 104.948 57.6C105.714 57.1333 106.618 56.9 107.658 56.9C108.724 56.9 109.634 57.1467 110.388 57.64C111.141 58.1267 111.711 58.8267 112.098 59.74C112.484 60.6533 112.661 61.7433 112.628 63.01H111.128V62.49C111.101 61.09 110.798 60.0333 110.218 59.32C109.644 58.6067 108.804 58.25 107.698 58.25C106.538 58.25 105.648 58.6267 105.028 59.38C104.414 60.1333 104.108 61.2067 104.108 62.6C104.108 63.96 104.414 65.0167 105.028 65.77C105.648 66.5167 106.524 66.89 107.658 66.89C108.431 66.89 109.104 66.7133 109.678 66.36C110.258 66 110.714 65.4833 111.048 64.81L112.418 65.34C111.991 66.28 111.361 67.01 110.528 67.53C109.701 68.0433 108.764 68.3 107.718 68.3ZM103.588 63.01V61.78H111.838V63.01H103.588ZM119.417 68.3C118.363 68.3 117.45 68.0667 116.677 67.6C115.91 67.1333 115.313 66.4767 114.887 65.63C114.46 64.7833 114.247 63.79 114.247 62.65C114.247 61.47 114.457 60.45 114.877 59.59C115.297 58.73 115.887 58.0667 116.647 57.6C117.413 57.1333 118.317 56.9 119.357 56.9C120.423 56.9 121.333 57.1467 122.087 57.64C122.84 58.1267 123.41 58.8267 123.797 59.74C124.183 60.6533 124.36 61.7433 124.327 63.01H122.827V62.49C122.8 61.09 122.497 60.0333 121.917 59.32C121.343 58.6067 120.503 58.25 119.397 58.25C118.237 58.25 117.347 58.6267 116.727 59.38C116.113 60.1333 115.807 61.2067 115.807 62.6C115.807 63.96 116.113 65.0167 116.727 65.77C117.347 66.5167 118.223 66.89 119.357 66.89C120.13 66.89 120.803 66.7133 121.377 66.36C121.957 66 122.413 65.4833 122.747 64.81L124.117 65.34C123.69 66.28 123.06 67.01 122.227 67.53C121.4 68.0433 120.463 68.3 119.417 68.3ZM115.287 63.01V61.78H123.537V63.01H115.287ZM131.103 68.3C130.11 68.3 129.27 68.05 128.583 67.55C127.896 67.0433 127.376 66.36 127.023 65.5C126.67 64.6333 126.493 63.6633 126.493 62.59C126.493 61.4967 126.67 60.5233 127.023 59.67C127.383 58.81 127.91 58.1333 128.603 57.64C129.296 57.1467 130.15 56.9 131.163 56.9C132.15 56.9 132.996 57.15 133.703 57.65C134.41 58.15 134.95 58.83 135.323 59.69C135.703 60.55 135.893 61.5167 135.893 62.59C135.893 63.67 135.703 64.64 135.323 65.5C134.943 66.36 134.396 67.0433 133.683 67.55C132.97 68.05 132.11 68.3 131.103 68.3ZM126.243 72.8V57.2H127.563V65.33H127.723V72.8H126.243ZM130.953 66.93C131.706 66.93 132.333 66.74 132.833 66.36C133.333 65.98 133.706 65.4633 133.953 64.81C134.206 64.15 134.333 63.41 134.333 62.59C134.333 61.7767 134.21 61.0433 133.963 60.39C133.716 59.7367 133.34 59.22 132.833 58.84C132.333 58.46 131.696 58.27 130.923 58.27C130.17 58.27 129.543 58.4533 129.043 58.82C128.55 59.1867 128.18 59.6967 127.933 60.35C127.686 60.9967 127.563 61.7433 127.563 62.59C127.563 63.4233 127.686 64.17 127.933 64.83C128.18 65.4833 128.553 65.9967 129.053 66.37C129.553 66.7433 130.186 66.93 130.953 66.93ZM142.093 68V53.6H143.573L151.503 65.4V53.6H152.983V68H151.503L143.573 56.19V68H142.093ZM158.874 68.3C158.061 68.3 157.378 68.1533 156.824 67.86C156.278 67.5667 155.868 67.1767 155.594 66.69C155.321 66.2033 155.184 65.6733 155.184 65.1C155.184 64.5133 155.301 64.0133 155.534 63.6C155.774 63.18 156.098 62.8367 156.504 62.57C156.918 62.3033 157.394 62.1 157.934 61.96C158.481 61.8267 159.084 61.71 159.744 61.61C160.411 61.5033 161.061 61.4133 161.694 61.34C162.334 61.26 162.894 61.1833 163.374 61.11L162.854 61.43C162.874 60.3633 162.668 59.5733 162.234 59.06C161.801 58.5467 161.048 58.29 159.974 58.29C159.234 58.29 158.608 58.4567 158.094 58.79C157.588 59.1233 157.231 59.65 157.024 60.37L155.594 59.95C155.841 58.9833 156.338 58.2333 157.084 57.7C157.831 57.1667 158.801 56.9 159.994 56.9C160.981 56.9 161.818 57.0867 162.504 57.46C163.198 57.8267 163.688 58.36 163.974 59.06C164.108 59.3733 164.194 59.7233 164.234 60.11C164.274 60.4967 164.294 60.89 164.294 61.29V68H162.984V65.29L163.364 65.45C162.998 66.3767 162.428 67.0833 161.654 67.57C160.881 68.0567 159.954 68.3 158.874 68.3ZM159.044 67.03C159.731 67.03 160.331 66.9067 160.844 66.66C161.358 66.4133 161.771 66.0767 162.084 65.65C162.398 65.2167 162.601 64.73 162.694 64.19C162.774 63.8433 162.818 63.4633 162.824 63.05C162.831 62.63 162.834 62.3167 162.834 62.11L163.394 62.4C162.894 62.4667 162.351 62.5333 161.764 62.6C161.184 62.6667 160.611 62.7433 160.044 62.83C159.484 62.9167 158.978 63.02 158.524 63.14C158.218 63.2267 157.921 63.35 157.634 63.51C157.348 63.6633 157.111 63.87 156.924 64.13C156.744 64.39 156.654 64.7133 156.654 65.1C156.654 65.4133 156.731 65.7167 156.884 66.01C157.044 66.3033 157.298 66.5467 157.644 66.74C157.998 66.9333 158.464 67.03 159.044 67.03ZM167.098 55.15V53.5H168.568V55.15H167.098ZM167.098 68V57.2H168.568V68H167.098ZM171.766 68V53.3H173.236V68H171.766ZM178.533 68L175.233 57.19L176.703 57.2L179.263 65.59L181.833 57.2H183.173L185.743 65.59L188.323 57.2H189.783L186.483 68H185.203L182.503 59.4L179.813 68H178.533ZM194.07 68.3C193.256 68.3 192.573 68.1533 192.02 67.86C191.473 67.5667 191.063 67.1767 190.79 66.69C190.516 66.2033 190.38 65.6733 190.38 65.1C190.38 64.5133 190.496 64.0133 190.73 63.6C190.97 63.18 191.293 62.8367 191.7 62.57C192.113 62.3033 192.59 62.1 193.13 61.96C193.676 61.8267 194.28 61.71 194.94 61.61C195.606 61.5033 196.256 61.4133 196.89 61.34C197.53 61.26 198.09 61.1833 198.57 61.11L198.05 61.43C198.07 60.3633 197.863 59.5733 197.43 59.06C196.996 58.5467 196.243 58.29 195.17 58.29C194.43 58.29 193.803 58.4567 193.29 58.79C192.783 59.1233 192.426 59.65 192.22 60.37L190.79 59.95C191.036 58.9833 191.533 58.2333 192.28 57.7C193.026 57.1667 193.996 56.9 195.19 56.9C196.176 56.9 197.013 57.0867 197.7 57.46C198.393 57.8267 198.883 58.36 199.17 59.06C199.303 59.3733 199.39 59.7233 199.43 60.11C199.47 60.4967 199.49 60.89 199.49 61.29V68H198.18V65.29L198.56 65.45C198.193 66.3767 197.623 67.0833 196.85 67.57C196.076 68.0567 195.15 68.3 194.07 68.3ZM194.24 67.03C194.926 67.03 195.526 66.9067 196.04 66.66C196.553 66.4133 196.966 66.0767 197.28 65.65C197.593 65.2167 197.796 64.73 197.89 64.19C197.97 63.8433 198.013 63.4633 198.02 63.05C198.026 62.63 198.03 62.3167 198.03 62.11L198.59 62.4C198.09 62.4667 197.546 62.5333 196.96 62.6C196.38 62.6667 195.806 62.7433 195.24 62.83C194.68 62.9167 194.173 63.02 193.72 63.14C193.413 63.2267 193.116 63.35 192.83 63.51C192.543 63.6633 192.306 63.87 192.12 64.13C191.94 64.39 191.85 64.7133 191.85 65.1C191.85 65.4133 191.926 65.7167 192.08 66.01C192.24 66.3033 192.493 66.5467 192.84 66.74C193.193 66.9333 193.66 67.03 194.24 67.03ZM202.293 68V53.3H203.763V68H202.293Z" fill="#E1E4E7"/>
</g>
<defs>
<clipPath id="clip0_966_2006">
<rect width="160" height="72.7467" fill="white" transform="translate(50.1997 23.6265)"/>
</clipPath>
</defs>
</svg>
