<svg width="260" height="120" viewBox="0 0 260 120" fill="none" xmlns="http://www.w3.org/2000/svg">
<rect x="0.900024" y="0.5" width="258.2" height="119" rx="19.5" fill="#121315"/>
<rect x="0.900024" y="0.5" width="258.2" height="119" rx="19.5" stroke="#62666D"/>
<path d="M74.6013 83.0061H75.043C76.4663 83.0061 78.0123 82.7362 78.0123 80.9693C78.0123 79.227 76.3436 79.0061 74.9694 79.0061H74.6013V83.0061ZM74.6013 88.9448H73.2025V77.7546H74.7976C78.2332 77.7546 79.3129 78.9325 79.3129 80.9939C79.3129 83.3497 77.5215 84.2577 75.3865 84.2577H74.6013V88.9448ZM90.3559 80.3558L88.3681 84.8712H92.3436L90.3559 80.3558ZM87.7792 86.1472L86.5031 88.9448H85.0062L90.3559 77.2883L95.7056 88.9448H94.2086L92.9325 86.1472H87.7792ZM103.975 83.0552H104.417C105.841 83.0552 107.387 82.7853 107.387 81.0184C107.387 79.2761 105.718 79.0061 104.344 79.0061H103.975V83.0552ZM109.546 88.9448H107.853L104.54 84.2086H103.951V88.9448H102.577V77.7546H104.27C105.276 77.7546 106.331 77.7791 107.215 78.2699C108.147 78.8098 108.687 79.865 108.687 80.9448C108.687 82.5399 107.607 83.8896 106.012 84.0859L109.546 88.9448ZM119.583 88.9448H118.184V79.0307H115.534V77.7546H122.233V79.0307H119.583V88.9448ZM129.153 77.2393L137.546 86.0491V77.7546H138.945V89.411L130.552 80.6012V88.9448H129.153V77.2393ZM147.166 77.7546H153.178V79.0307H148.564V82.1718H153.055V83.4479H148.564V87.6687H153.178V88.9448H147.166V77.7546ZM162.233 83.0552H162.675C164.098 83.0552 165.644 82.7853 165.644 81.0184C165.644 79.2761 163.975 79.0061 162.601 79.0061H162.233V83.0552ZM167.804 88.9448H166.11L162.822 84.2086H162.233V88.9448H160.834V77.7546H162.528C163.534 77.7546 164.589 77.7791 165.472 78.2699C166.405 78.8098 166.945 79.865 166.945 80.9448C166.945 82.5399 165.865 83.8896 164.27 84.0859L167.804 88.9448ZM179.804 79.8896C179.387 79.2025 178.847 78.8344 178.012 78.8344C177.129 78.8344 176.147 79.4479 176.147 80.4294C176.147 81.3129 177.006 81.7546 177.718 82.0245L178.528 82.3436C180.123 82.9571 181.301 83.8405 181.301 85.7055C181.301 87.7423 179.73 89.1902 177.718 89.1902C175.902 89.1902 174.503 87.865 174.258 86.0491L175.656 85.7546C175.632 86.9816 176.614 87.865 177.816 87.865C179.018 87.865 179.877 86.8589 179.877 85.681C179.877 84.4785 178.92 83.9632 177.939 83.5706L177.178 83.2515C175.902 82.7117 174.748 81.9755 174.748 80.4049C174.748 78.589 176.344 77.5092 178.037 77.5092C179.288 77.5092 180.319 78.1227 180.908 79.2025L179.804 79.8896ZM88.319 68.454L88.4908 67.9877C88.9816 66.6626 89.2761 65.9509 89.2761 57.8282V49.4847C89.2761 47.6687 89.2516 46.0982 88.7853 45.0429C88.2945 44.0123 87.4356 43.3742 85.3988 43.3742C81.8651 43.3742 79.951 45.2393 79.0184 46.1718V57.8528C79.0184 61.5337 79.0184 63.3742 79.2148 65.362C79.3375 66.7607 79.5583 67.2515 79.8283 68.0123L79.9755 68.4785H72.0982L72.319 67.9877C72.589 67.3988 72.7853 66.9816 72.9325 65.6319C73.0798 64.2822 73.1534 62 73.1534 57.8773V48.9202C73.1534 47.7423 73.1534 46.3436 72.6381 45.2883C72.1227 44.2577 71.2148 43.4969 69.0798 43.4724C66.2332 43.4724 64.4908 44.8712 62.8957 46.2209V57.8773C62.8957 61.5583 62.8957 63.3988 63.0921 65.3865C63.2148 66.7853 63.4356 67.2761 63.7056 68.0368L63.8528 68.5031H56.0982L56.27 68.0368C56.7608 66.7117 57.0552 66 57.0552 57.8773V52.5276C57.0552 52.1595 57.0552 46.8098 56.8589 44.2086C56.7362 42.6135 56.4417 41.8773 56.1227 40.9939L56 40.6748L62.3313 38.4172L62.6258 41.092C63.8773 40.0123 66.3804 38.2699 70.5031 38.2945C71.7301 38.2945 73.9632 38.4908 75.9755 39.7178C76.7853 40.1841 77.2516 40.7485 77.6687 41.3129C78.9694 40.2577 81.8405 38.2945 86.3804 38.2945C89.0062 38.2945 92.7117 39.1534 94.2086 41.8282C94.9939 43.3497 95.1166 44.7239 95.1166 47.7669V57.8528C95.1166 62.1472 95.1902 63.816 95.3129 65.362C95.4356 66.7117 95.6565 67.2515 95.9264 68.0368L96.0737 68.5031H88.319V68.454ZM127.902 66.0736C127.043 64.4049 127.043 62.3926 127.043 60.773V43.8896H124.049V38.8834V38.4908L124.442 38.5399C125.571 38.6626 126.061 38.7117 127.117 38.7607V32.1104L132.982 30V38.7853H137.914C138.822 38.7853 139.656 38.6626 140.564 38.4172L141.055 38.2945L141.006 38.8098C140.81 40.5031 140.687 41.5828 140.466 42.3681C140.245 43.1288 139.853 43.6196 139.215 43.7914C138.822 43.9141 138.356 43.9141 137.791 43.9141H132.982V59.6196C132.982 60.9693 133.08 62.0982 133.423 62.8344C133.767 63.546 134.282 63.9141 135.436 63.9387C137.521 63.9387 139.387 62.5399 140.908 60.8712L141.546 60.184L141.521 61.1166C141.423 63.7669 141.301 65.1656 141.08 66C140.883 66.8344 140.442 67.2025 140.049 67.4233C139.043 68.0859 136.883 68.9693 133.939 68.9693H133.89C130.552 68.9448 128.761 67.7423 127.902 66.0736ZM144.687 68.454L144.859 67.9877C145.35 66.6626 145.644 65.9509 145.644 57.8282V52.5521C145.644 50 145.644 46.638 145.448 44.1595C145.374 42.589 145.104 41.8528 144.785 40.9693L144.663 40.6503L150.748 38.3926L151.092 41.0429C152.27 39.8896 154.258 38.2699 157.497 38.2699C157.669 38.2699 158.209 38.2699 158.773 38.4417C159.313 38.589 159.951 39.0061 159.951 39.816C159.951 40.2577 159.804 40.6503 159.632 41.3374L158.65 44.5522L158.307 44.4295C157.742 44.2331 157.325 44.0614 156.417 44.0614C153.669 44.0614 152.049 45.6319 151.411 46.2945V57.8528C151.411 62.1472 151.46 63.816 151.583 65.362C151.706 66.7117 151.926 67.2515 152.196 68.0123L152.344 68.4785H144.687V68.454ZM163.018 68.454L163.19 67.9877C163.656 66.7362 163.975 65.9509 163.975 57.8528V52.4294C163.975 50 163.975 46.5153 163.779 44.1841C163.656 42.6626 163.362 41.7791 163.068 40.9693L162.945 40.6258L169.841 38.3681V57.8282C169.841 62.1227 169.914 63.7914 170.037 65.3374C170.16 66.6871 170.38 67.227 170.65 67.9877L170.798 68.454H163.018ZM182.798 38.7607H183.092L183.141 39.0552C183.436 41.0429 184.344 42.7853 185.521 44.454L189.006 49.4356C194.331 43.2761 194.92 41.4356 195.362 39.0552L195.411 38.7607H201.963L201.791 39.227C199.804 44.7485 196.196 49.3865 192.074 53.5337L198.429 62.638C200.294 65.2883 201.325 66.3926 202.699 67.8896L203.239 68.4785H194.356V68.135C194.331 66.8098 194.356 66.6135 192.172 63.3006L187.975 57.1411C186.135 59.0798 182.184 63.546 181.325 68.1595L181.276 68.454H174.331L174.503 67.9877C176.687 62.2209 180.614 57.4356 184.834 53.0675L179.337 45.0184C177.963 43.0307 176.54 41.1166 174.994 39.3252L174.503 38.7607H182.798ZM114.11 60.0859C113.988 61.1411 113.816 62.3436 112.147 63.3742C111.288 63.8896 110.307 64.135 109.423 64.135C106.307 64.135 105.89 61.7546 105.89 60.6012C105.89 56.4295 110.282 55.3497 114.11 55.1534V60.0859ZM122.258 66.0491C120.761 64.7485 120.098 63.9877 120.074 60.2086V46.3926C120.074 45.0184 120.098 43.0061 118.92 41.2883C117.742 39.5706 115.411 38.2699 110.969 38.2699C108.442 38.2699 105.914 38.7853 104.025 39.546C102.16 40.3313 100.785 41.2638 100.736 42.5153C100.736 42.9571 100.859 43.4233 100.859 43.5215V43.5706V43.6196L101.816 47.2025L102.233 46.7607C105.546 43.2515 109.595 43.2515 110.209 43.2515C112.147 43.2515 113.031 43.7669 113.522 44.5276C114.012 45.2883 114.086 46.3926 114.086 47.6442V50.1227C111.018 50.3436 107.632 50.9325 104.933 52.454C102.135 54 100.074 56.6258 100.098 60.6503C100.098 62.4172 100.515 64.4785 101.742 66.1472C102.969 67.816 105.031 69.0184 108.172 69.0184H108.196C112.147 69.0184 114.356 67.3742 115.411 66.4172C116.172 68.3804 117.08 68.9939 117.742 69.0184C118.209 68.9939 118.65 68.7239 118.896 68.6012L122.626 66.3436L122.258 66.0491Z" fill="#E1E4E7"/>
</svg>
