<svg width="260" height="120" viewBox="0 0 260 120" fill="none" xmlns="http://www.w3.org/2000/svg">
<rect x="0.899658" y="0.5" width="258.2" height="119" rx="19.5" fill="#121315"/>
<rect x="0.899658" y="0.5" width="258.2" height="119" rx="19.5" stroke="#62666D"/>
<g clip-path="url(#clip0_966_2002)">
<path fill-rule="evenodd" clip-rule="evenodd" d="M45.3167 53.3746C41.4264 54.2558 38.9915 58.1962 39.6788 62.4982C40.0534 64.8427 40.9076 66.3 42.6945 67.6425C44.0715 68.6774 45.6177 69.1084 47.5401 68.9935C50.6637 68.8068 52.759 67.1296 53.8431 63.9482L54.1689 62.9921H52.2657C50.9606 62.9921 50.3627 63.0653 50.3627 63.2252C50.3627 63.628 49.3596 64.7937 48.735 65.1167C48.008 65.4925 46.6362 65.5437 45.6864 65.2302C42.8151 64.2826 42.3387 59.1316 44.9619 57.3955C46.706 56.2413 49.157 56.729 50.0602 58.4101L50.4635 59.1605L52.3195 59.1609L54.1754 59.1615L53.8989 58.378C53.1119 56.147 51.9881 54.7542 50.307 53.9266C48.8201 53.1947 47 52.9933 45.3167 53.3746ZM60.8409 53.3871C56.9737 54.2201 54.5153 58.1931 55.203 62.4982C55.5776 64.8427 56.4318 66.3 58.2187 67.6425C59.599 68.6798 61.1389 69.1074 63.0923 68.996C67.6242 68.7375 70.7318 64.5203 69.9371 59.7078C69.3782 56.3232 67.1266 53.9151 63.9768 53.3326C62.5582 53.0705 62.2883 53.0752 60.8409 53.3871ZM92.8893 53.3064C90.8897 53.6667 88.6679 55.3645 87.7046 57.2679C86.1362 60.3673 86.806 64.6093 89.2377 66.9778C91.5548 69.2347 95.2681 69.703 98.0772 68.0925C101.459 66.1538 102.832 61.2427 101.069 57.3917C100.401 55.933 98.6699 54.2712 97.2746 53.749C95.9711 53.2615 94.1558 53.0782 92.8893 53.3064ZM193.749 53.3282C190.526 53.9627 188.105 56.9022 187.901 60.428C187.687 64.1173 189.126 66.8367 192.053 68.277C193.31 68.8953 193.535 68.9391 195.42 68.9312C197.779 68.9212 198.902 68.5022 200.262 67.124C201.063 66.3123 202.013 64.6095 202.258 63.5466L202.386 62.9921H200.578H198.769L198.432 63.7018C197.573 65.5113 195.038 66.0339 193.206 64.7786C192.046 63.9837 191.592 62.9439 191.592 61.0768C191.592 59.2179 191.912 58.4889 193.174 57.4691C193.871 56.9052 194.086 56.8429 195.326 56.8429C196.891 56.8429 197.502 57.1637 198.33 58.4212L198.817 59.1615H200.612C202.659 59.1615 202.596 59.277 201.677 57.222C200.301 54.1443 197.24 52.6407 193.749 53.3282ZM71.9352 61.0768V68.8389H73.7498H75.5643V65.9155V62.9921H78.4877H81.411V65.9155V68.8389H83.2256H85.0401V61.0768V53.3147H83.2256H81.411V56.2381V59.1615H78.4877H75.5643V56.2381V53.3147H73.7498H71.9352V61.0768ZM109.234 61.0522V68.8389H112.624C117.28 68.8389 118.56 68.431 120.491 66.332C124.007 62.5117 122.51 55.7429 117.742 53.9002C116.753 53.5181 116.078 53.4427 112.913 53.3607L109.234 53.2655V61.0522ZM124.355 61.0734V68.8389H129.697H135.04V67.226V65.6131H131.512H127.984V64.2018V62.7905H131.209H134.435V61.1776V59.5647H131.209H127.984V58.1582V56.7516L131.461 56.6966L134.939 56.6413V55.0284V53.4155L129.647 53.3617L124.355 53.308V61.0734ZM137.056 61.0734V68.8389H142.399H147.742V67.226V65.6131H144.213H140.685V64.2018V62.7905H143.911H147.137V61.1776V59.5647H143.911H140.685V58.1582V56.7516L144.163 56.6966L147.641 56.6413V55.0284V53.4155L142.349 53.3617L137.056 53.308V61.0734ZM149.758 61.0568V68.8389H151.572H153.387V66.5203V64.2018L155.756 64.1998C157.816 64.1982 158.257 64.1363 159.141 63.7246C161.056 62.8328 161.913 61.3379 161.929 58.8591C161.941 57.0145 161.524 55.8373 160.49 54.8038C159.223 53.5367 158.761 53.4326 154.042 53.3498L149.758 53.2746V61.0568ZM162.258 55.1292V56.9437H164.375H166.492V62.8913V68.8389H168.306H170.121V62.8913V56.9437H172.238H174.355V55.1292V53.3147H168.306H162.258V55.1292ZM175.766 61.0768V68.8389H181.109H186.451V67.226V65.6131H182.923H179.395V64.2068V62.8006L182.671 62.7451L185.947 62.6897L186.006 61.1272L186.065 59.5647H182.73H179.395V58.1534V56.7421H182.923H186.451V55.0284V53.3147H181.109H175.766V61.0768ZM203.992 61.0768V68.8389H205.806H207.621V65.9155V62.9921H210.544H213.467V65.9155V68.8389H215.282H217.097V61.0768V53.3147H215.282H213.467V56.2381V59.1615H210.544H207.621V56.2381V53.3147H205.806H203.992V61.0768ZM60.8804 57.1748C58.2508 58.4764 57.9893 63.0562 60.4433 64.8318C61.6643 65.7153 63.9246 65.5927 65.005 64.5843C66.6197 63.0772 66.8673 60.2748 65.5612 58.2887C64.6074 56.8383 62.5496 56.3486 60.8804 57.1748ZM92.8022 57.0663C91.9006 57.5599 91.4909 57.9703 91.0633 58.808C89.9088 61.0699 90.7084 64.0784 92.7437 65.131C93.579 65.5629 95.1713 65.529 96.0792 65.0601C96.4945 64.8455 97.1052 64.2867 97.4361 63.8183C97.9459 63.0964 98.0492 62.7381 98.1135 61.4643C98.179 60.1641 98.1191 59.8199 97.6685 58.9064C96.9814 57.5139 96.0518 56.8867 94.5475 56.8006C93.7659 56.7558 93.2167 56.8395 92.8022 57.0663ZM112.863 61.1568V65.4115H113.642C117.093 65.4115 118.846 63.7972 118.675 60.776C118.588 59.2322 118.107 58.3383 116.928 57.5304C116.35 57.1339 115.911 57.0314 114.541 56.9734L112.863 56.9024V61.1568ZM153.387 58.8591V60.7744H155.006C157.137 60.7744 157.928 60.4474 158.203 59.4526C158.448 58.5665 158.1 57.5099 157.449 57.1615C157.226 57.0417 156.22 56.9437 155.215 56.9437H153.387V58.8591Z" fill="#E1E4E7"/>
</g>
<defs>
<clipPath id="clip0_966_2002">
<rect width="180" height="60" fill="white" transform="translate(39.9998 30)"/>
</clipPath>
</defs>
</svg>
