<svg width="260" height="120" viewBox="0 0 260 120" fill="none" xmlns="http://www.w3.org/2000/svg">
<rect x="0.5" y="0.5" width="258.2" height="119" rx="19.5" fill="#121315"/>
<rect x="0.5" y="0.5" width="258.2" height="119" rx="19.5" stroke="#62666D"/>
<path d="M56.3455 52.1308C57.1454 52.1308 57.9719 52.1308 58.7718 52.1308C58.7718 52.6108 58.7718 52.9307 58.7718 53.2773C55.8389 53.2773 52.9327 53.2773 49.9999 53.2773C49.9999 52.9574 49.9999 52.4775 49.9999 52.1308C50.7997 52.1308 51.6263 52.1308 52.4261 52.1308C52.4261 51.8109 52.4261 51.6509 52.4261 51.4909C52.4261 46.6118 52.4261 41.9192 52.4261 37.04C52.4261 36.5601 52.2662 36.4001 51.7862 36.4001C51.1464 36.4001 50.6398 36.4001 49.9999 36.4001C49.9999 35.9202 49.9999 35.6003 49.9999 35.0937C50.1599 35.0937 50.3198 35.0937 50.4798 35.0937C53.4126 35.0937 56.3188 35.0937 59.4116 35.0937C60.5581 35.0937 61.6779 35.2537 62.6644 35.5736C64.7708 36.3735 66.0772 38.3198 65.9172 40.6128C65.7573 42.8791 64.2908 44.5054 62.0245 44.9854C60.3981 45.3053 58.7717 45.3053 57.332 45.3053C56.5321 45.3053 56.1855 45.4653 56.1855 46.1052C56.1855 47.8916 56.1855 49.5179 56.1855 51.3043C56.3455 51.491 56.3455 51.8109 56.3455 52.1308ZM56.1855 36.2402C56.1855 38.9864 56.1855 41.5993 56.1855 44.0255C57.332 44.0255 58.4518 44.1855 59.5983 44.0255C61.0647 43.8656 61.5446 43.2257 61.7046 41.7592C61.7046 40.6128 61.7046 39.6529 61.7046 38.5064C61.5446 37.36 60.9047 36.7201 59.7583 36.5601C58.6118 36.4001 57.492 36.4001 56.1855 36.2402ZM85.7273 68.0215C86.0472 67.7016 86.5271 67.2217 87.1937 66.7151C87.3537 66.5551 87.6736 66.3951 87.8336 66.5551C87.9935 66.5551 88.1535 67.035 88.1535 67.195C88.1535 69.1413 88.1535 71.0877 88.1535 73.034C88.1535 73.354 88.1535 73.6739 87.5136 73.6739C87.0337 73.6739 86.7138 73.6739 86.5271 73.034C86.3672 72.2342 86.2072 71.2477 85.7273 70.4478C84.9274 68.6614 83.6209 67.5149 81.5146 67.7016C79.4083 67.7016 77.6219 68.5014 76.4755 70.6344C76.1555 71.1143 75.9955 71.7809 75.8356 72.4208C75.5156 75.007 75.3557 77.6199 75.9955 80.2062C76.6354 82.9524 79.0884 84.5788 81.9945 84.2588C84.4208 83.9389 86.3672 81.9925 86.5271 79.2197C86.5271 78.7397 86.8471 78.5798 87.327 78.5798C87.8069 78.5798 87.8069 78.8997 87.8069 79.3796C87.6469 82.1258 85.5406 84.5788 82.7677 85.3786C79.8349 86.0185 75.3023 85.2187 73.036 81.4859C71.5696 79.0597 71.2497 76.4468 71.8896 73.7006C73.036 67.8616 78.8751 65.9152 82.6078 66.8751C83.7809 67.035 84.7408 67.5416 85.7273 68.0215ZM149.157 35.5736C149.157 35.8936 149.157 36.2135 149.157 36.7201C148.517 36.7201 148.01 36.7201 147.37 36.7201C146.89 36.7201 146.73 36.8801 146.73 37.36C146.73 39.1463 146.73 41.0927 146.73 42.8791C146.73 43.199 146.73 43.5189 147.21 43.5189C149.157 43.5189 151.103 43.5189 153.049 43.5189C153.049 41.2527 153.049 39.1463 153.049 36.6934C152.25 36.6934 151.423 36.6934 150.623 36.6934C150.623 36.2135 150.623 35.8935 150.623 35.5469C153.369 35.5469 156.302 35.5469 159.048 35.5469C159.048 35.8669 159.048 36.1868 159.048 36.6934C158.408 36.6934 157.902 36.6934 157.262 36.6934C156.782 36.6934 156.622 36.8534 156.622 37.3333C156.622 42.0259 156.622 46.905 156.622 51.6243C156.622 52.1042 156.782 52.2642 157.262 52.1042C157.742 52.1042 158.249 52.1042 158.568 52.1042C159.048 52.1042 159.048 52.4241 159.048 52.7441C159.048 53.224 158.888 53.224 158.568 53.224C155.982 53.224 153.369 53.224 150.783 53.224H150.623C150.303 52.0775 150.463 52.0775 151.423 52.0775C151.743 52.0775 152.223 52.0775 152.569 52.0775H152.729C152.729 51.9175 152.729 51.7576 152.729 51.5976C152.729 49.4913 152.729 47.5449 152.729 45.4386C152.729 44.9587 152.569 44.6388 151.93 44.7987C150.303 44.7987 148.677 44.7987 146.89 44.7987C146.41 44.7987 146.251 44.9587 146.251 45.4386C146.251 47.5449 146.251 49.4913 146.251 51.5976C146.251 52.0775 146.41 52.2375 146.89 52.2375C147.21 52.2375 147.53 52.2375 147.69 52.2375C148.677 52.2375 148.677 52.2375 148.677 53.384C145.931 53.384 142.998 53.384 140.252 53.384C140.252 53.064 140.252 52.7441 140.252 52.2375C140.731 52.2375 141.398 52.2375 142.038 52.2375C142.518 52.2375 142.678 52.0775 142.678 51.5976C142.678 46.9051 142.678 42.1858 142.678 37.3066C142.678 36.8267 142.518 36.6668 142.038 36.6668C141.558 36.6668 140.891 36.6668 140.252 36.6668C140.252 36.3468 140.252 36.0269 140.252 35.5203C143.478 35.5736 146.224 35.5736 149.157 35.5736ZM69.17 44.3455C69.33 41.4126 69.9699 38.9864 72.2628 36.8801C75.6756 33.7872 83.461 34.1338 85.4073 40.7727C86.2072 43.5189 86.2072 46.2918 84.9274 48.8781C83.461 52.1308 80.0482 53.9172 76.3155 53.4106C72.7428 52.9307 70.1565 50.4778 69.49 46.9317C69.33 46.1318 69.17 45.3053 69.17 44.3455ZM73.2227 44.1855C73.2227 45.172 73.2227 46.1318 73.3826 47.1183C73.5426 48.9047 74.0225 50.3711 75.329 51.6509C76.6354 52.9574 78.7418 52.9574 79.8616 51.6509C80.5015 50.8511 81.168 49.8646 81.488 48.9047C82.1279 46.6384 82.1279 44.3721 81.8079 42.0792C81.6479 40.9327 81.488 39.8129 81.008 38.8264C80.3682 37.36 79.2217 36.4001 77.4353 36.4001C75.8089 36.4001 74.6891 37.3866 74.0225 38.8264C73.0627 40.2928 73.2227 42.2392 73.2227 44.1855ZM191.336 36.7201C191.336 36.2402 191.336 36.0802 191.336 35.5736C191.656 35.5736 191.976 35.5736 192.483 35.5736C193.789 35.5736 195.229 35.5736 196.535 35.5736C197.175 35.5736 197.682 35.7336 198.002 36.3735C200.588 39.9462 203.201 43.5189 205.787 47.0917C205.787 46.9317 205.787 47.0917 206.107 47.2517C206.107 46.9317 206.267 46.7717 206.267 46.6118C206.267 43.6789 206.267 40.6128 206.267 37.6799C206.267 37.04 206.107 36.6934 205.467 36.6934C204.987 36.6934 204.507 36.6934 203.841 36.5334C203.841 36.2135 203.841 35.8935 203.841 35.387C205.947 35.387 207.894 35.387 210 35.387C210 35.7069 210 36.0269 210 36.5334C209.36 36.5334 209.04 36.6934 208.533 36.6934C207.894 36.6934 207.547 37.0134 207.547 37.8399C207.547 42.7191 207.547 47.5716 207.547 52.4508C207.547 52.7707 207.387 53.2507 207.067 53.2507C206.747 53.2507 206.427 53.0907 206.081 52.9307C205.921 52.9307 205.921 52.7707 205.921 52.6108C202.988 48.5581 200.082 44.5054 196.989 40.4528C196.509 39.6529 195.842 38.9864 195.202 38.0265C195.202 38.3465 195.202 38.6664 195.202 38.8264C195.202 42.8791 195.202 46.9317 195.202 50.9844C195.202 51.7842 195.362 52.1308 196.162 52.1308C196.322 52.1308 196.482 52.1308 196.642 52.1308C197.602 52.1308 197.602 52.1308 197.602 53.2773C195.496 53.2773 193.549 53.2773 191.443 53.2773C191.123 52.2908 191.123 52.1308 192.243 52.1308C193.709 51.9709 193.709 51.9709 193.709 50.5044C193.709 46.1318 193.709 41.7326 193.709 37.5199C193.709 36.88 193.549 36.5334 192.909 36.7201C192.323 36.7201 191.816 36.7201 191.336 36.7201ZM117.029 83.9122C117.829 83.9122 118.335 83.9122 118.975 83.9122C119.455 83.9122 119.455 84.2322 119.455 84.5521C119.455 84.8721 119.455 85.192 118.975 85.192C116.389 85.192 113.936 85.192 111.35 85.192C110.87 85.192 110.87 85.032 110.87 84.5521C110.87 84.2322 110.87 83.9122 111.35 83.9122C111.99 83.9122 112.496 83.9122 113.296 83.9122C113.296 83.5923 113.296 83.2723 113.296 83.1123C113.296 78.5798 113.296 74.0205 113.296 69.4879C113.296 68.8481 113.136 68.5015 112.496 68.5015C112.176 68.5015 111.856 68.5015 111.51 68.5015C111.03 68.5015 110.87 68.3415 110.87 67.8616C110.87 67.3816 111.03 67.2217 111.51 67.2217C114.602 67.2217 117.669 67.2217 120.761 67.2217C122.708 67.2217 124.654 67.8616 125.641 69.6479C127.427 72.5808 125.801 76.1268 122.388 76.7934C120.921 77.1133 119.295 77.1133 117.855 77.1133C117.215 77.1133 117.055 77.2733 117.055 77.9132C117.029 80.0195 117.029 81.8059 117.029 83.9122ZM116.869 72.2342C116.869 73.3806 116.869 74.3405 116.869 75.4869C116.869 75.8069 116.869 76.1268 117.349 76.1268C118.335 76.1268 119.295 76.1268 120.282 75.9669C121.588 75.8069 122.228 75.167 122.228 73.8606C122.228 72.7141 122.228 71.5943 122.228 70.4478C122.068 69.1413 121.588 68.5014 120.282 68.3415C119.295 68.1815 118.495 68.3415 117.535 68.1815C117.055 68.1815 116.895 68.3415 116.895 68.8214C116.869 70.1278 116.869 71.2743 116.869 72.2342ZM145.424 68.6614C144.437 68.8214 143.318 68.8214 142.491 69.1413C141.691 69.3013 141.185 69.9412 141.025 70.7677C140.865 71.4076 140.705 72.2342 140.705 72.8741C140.545 73.8606 140.545 73.8606 139.398 73.6739C139.398 73.194 139.398 72.8741 139.398 72.3675C139.558 70.9011 139.718 69.4346 139.718 67.9949C139.718 67.6749 139.718 67.355 140.198 67.355C145.077 67.355 149.77 67.355 154.649 67.355C154.649 67.355 154.809 67.355 154.969 67.5149C155.129 69.4613 155.289 71.5676 155.449 73.5139C154.302 73.8339 154.303 73.8339 154.143 72.7141C153.983 72.2342 153.823 71.7276 153.823 71.0877C153.503 69.6213 152.516 68.8214 151.076 68.8214C150.436 68.8214 149.93 68.8214 149.29 68.8214C149.29 73.8606 149.29 78.8731 149.29 83.9122C150.436 83.9122 151.556 83.9122 152.703 83.9122C152.703 84.3921 152.703 84.7121 152.703 85.0587C149.13 85.0587 145.717 85.0587 142.145 85.0587C142.145 84.7387 142.145 84.4188 142.145 83.9122C143.291 83.9122 144.411 83.9122 145.557 83.9122C145.424 78.8997 145.424 73.8606 145.424 68.6614ZM178.858 53.2773C176.112 53.2773 173.499 53.2773 170.913 53.2773C170.593 52.1308 170.753 52.1308 171.713 52.1308C172.033 52.1308 172.353 52.1308 172.859 52.1308C172.379 50.9844 172.06 49.8646 171.713 48.8781C171.713 48.7181 171.393 48.7181 171.233 48.7181C169.607 48.7181 167.98 48.7181 166.354 48.7181C166.194 48.7181 165.874 48.8781 165.874 49.038C165.554 50.0245 165.234 50.9844 164.887 51.9709C165.367 51.9709 165.687 52.1308 166.034 52.1308C167.02 52.1308 167.02 52.4508 166.834 53.2773C164.887 53.2773 163.101 53.2773 161.155 53.2773C160.995 52.1308 160.995 52.1308 161.955 52.1308C162.941 52.1308 163.421 51.8109 163.741 50.8244C165.367 45.9452 167.154 41.0927 168.94 36.0535C169.1 35.5736 169.26 35.067 169.927 35.067C170.566 35.067 170.913 35.387 171.073 36.0535C172.379 39.9462 173.819 43.8389 175.126 47.7316C175.606 49.038 176.112 50.3178 176.432 51.6243C176.592 52.1042 176.912 52.2642 177.419 52.2642C177.579 52.2642 177.739 52.2642 177.899 52.2642C179.018 52.1308 179.018 52.1308 178.858 53.2773ZM171.393 47.2517C170.593 44.9854 169.767 42.8791 169.127 40.5861H168.967C168.167 42.6924 167.5 44.9587 166.7 47.065C168.14 47.2517 169.607 47.2517 171.393 47.2517ZM100.818 83.9122C101.618 83.9122 102.285 83.9122 102.924 83.9122C102.444 82.7657 102.125 81.6459 101.778 80.6594C101.778 80.4995 101.458 80.3395 101.298 80.3395C99.6716 80.3395 98.0452 80.3395 96.4188 80.3395C96.2588 80.3395 95.9389 80.4995 95.7789 80.6594C95.459 81.6459 95.139 82.4458 94.7924 83.5923C95.4323 83.7522 96.0989 83.7522 96.7388 83.9122C96.7388 84.2322 96.7388 84.5521 96.7388 85.0587C94.7924 85.0587 93.006 85.0587 91.0597 85.0587C90.7398 83.9122 90.7398 83.9122 91.8596 83.9122C93.166 83.9122 93.166 83.9122 93.6459 82.6058C95.4323 77.7266 97.0587 72.8741 98.8451 67.8349C99.005 67.355 99.165 66.8484 99.9916 66.8484C100.791 66.8484 100.978 67.3283 101.138 67.8349C102.924 72.8741 104.711 78.0465 106.497 83.0857C106.657 83.7256 106.977 83.8855 107.644 83.8855C107.964 83.8855 108.124 83.8855 108.443 83.8855C108.923 83.8855 108.923 84.2055 108.923 84.5254C108.923 84.8454 108.763 85.1653 108.443 85.1653C106.177 85.1653 103.751 85.1653 101.458 85.1653C100.471 85.0587 100.978 84.4188 100.818 83.9122ZM96.4188 79.0597C98.0452 79.0597 99.6716 79.0597 101.298 79.0597C100.498 76.7934 99.6716 74.6871 99.0317 72.3941H98.8717C98.0452 74.6871 97.2453 76.7934 96.4188 79.0597ZM164.887 85.0587C164.887 84.7387 164.887 84.4188 164.887 83.9122C165.527 83.9122 166.194 83.9122 166.994 83.9122C166.514 82.7657 166.194 81.8059 165.847 80.6594C165.847 80.4995 165.527 80.3395 165.207 80.3395C163.581 80.3395 162.115 80.3395 160.515 80.3395C160.355 80.3395 160.035 80.4994 159.875 80.8194C159.555 81.6193 159.235 82.6058 158.888 83.7522C159.528 83.9122 160.195 83.9122 160.835 84.0722C160.835 84.3921 160.835 84.7121 160.835 85.2187C158.888 85.2187 156.942 85.2187 155.156 85.2187C154.836 84.2322 154.836 84.0722 155.956 84.0722C157.262 84.0722 157.262 84.0722 157.742 82.7657C159.528 77.8866 161.155 73.034 162.941 68.1548C163.101 67.6749 163.261 67.1683 164.088 67.1683C164.887 67.1683 165.074 67.6483 165.234 68.1548C167.02 73.194 168.807 78.3665 170.593 83.4056C170.753 83.8856 171.073 84.2055 171.58 84.0455C171.74 84.0455 172.06 84.0455 172.22 84.0455C172.699 84.0455 173.019 84.0455 173.019 84.6854C173.019 85.3253 172.699 85.3253 172.22 85.3253C169.953 85.3253 167.687 85.3253 165.554 85.3253C165.394 85.0587 165.234 85.0587 164.887 85.0587ZM163.128 72.5541H162.968C162.168 74.6604 161.501 76.9267 160.701 79.033C162.328 79.033 163.954 79.033 165.581 79.033C164.567 76.7934 163.768 74.6871 163.128 72.5541ZM112.15 44.3455C113.616 41.7592 114.896 39.4663 116.362 36.8801C115.722 36.7201 115.216 36.7201 114.576 36.5601C114.576 36.2402 114.576 35.9202 114.576 35.4136C116.522 35.4136 118.308 35.4136 120.255 35.4136C120.255 35.7336 120.255 36.0535 120.255 36.4001L120.095 36.5601C118.468 36.4001 117.669 37.2 117.002 38.5064C115.856 40.9327 114.416 43.199 113.109 45.4919C112.949 45.8119 112.789 46.1318 112.789 46.4785C112.789 48.1048 112.789 49.7312 112.789 51.3576C112.789 51.8376 112.949 51.9975 113.429 51.9975C113.749 51.9975 114.069 51.9975 114.229 51.9975C115.216 51.9975 115.216 51.9975 115.029 53.144C112.283 53.144 109.51 53.144 106.764 53.144C106.764 52.8241 106.764 52.5041 106.764 51.9975C107.404 51.9975 108.07 51.9975 108.55 51.9975C108.87 51.9975 109.19 51.8376 109.19 51.5176C109.19 49.8912 109.19 48.1048 109.19 46.4785C109.19 46.1585 109.03 45.9985 108.87 45.6786C107.244 42.7457 105.617 39.9995 103.991 37.2533C103.671 36.9334 103.191 36.7734 102.844 36.7734C102.364 36.6134 101.858 36.7734 101.378 36.7734C101.378 36.4535 101.378 36.1335 101.378 35.6269C104.124 35.6269 106.737 35.6269 109.483 35.6269C109.483 35.9469 109.483 36.2668 109.483 36.7734C108.843 36.7734 108.337 36.7734 107.537 36.9334C109.243 39.3063 110.55 41.7592 112.15 44.3455ZM138.119 38.6664C138.119 39.6529 138.119 40.6128 138.119 41.4126C138.119 41.8925 138.119 42.2125 137.479 42.2125C136.999 42.2125 136.679 42.0525 136.679 41.5726C136.519 39.9462 135.879 38.3198 134.412 37.36C131.986 35.4136 127.934 36.7201 126.787 39.7862C126.467 41.0927 126.307 42.5324 126.307 43.8389C126.307 45.4653 126.467 47.2517 126.947 48.8781C127.587 51.3043 130.04 52.6108 132.626 52.4508C135.052 52.1308 136.839 50.1845 136.999 47.7582C136.999 47.2783 137.159 46.9584 137.799 46.9584C138.438 46.9584 138.279 47.4383 138.279 47.7582C138.119 50.3445 136.172 52.6374 133.399 53.4373C129.667 54.4238 125.294 52.6374 123.348 49.2247C121.401 45.6519 121.401 39.013 126.76 36.2402C129.507 34.7737 132.599 34.4538 135.372 36.4001C135.532 36.5601 135.852 36.4001 136.012 36.4001C136.332 36.0802 136.652 35.7602 137.159 35.4136C137.319 35.4136 137.639 35.0937 137.799 35.2537C137.959 35.2537 138.119 35.7336 138.119 35.8935C138.119 36.8801 138.119 37.6799 138.119 38.6664ZM188.59 78.0732C188.27 80.3395 188.11 82.4458 187.79 84.7387C187.79 84.8987 187.31 85.0587 186.99 85.0587C183.738 85.0587 180.511 85.0587 177.259 85.0587C176.779 85.0587 176.272 85.0587 175.792 85.0587C174.806 85.0587 174.806 85.0587 174.992 83.9122C175.792 83.9122 176.459 83.9122 177.259 83.9122C177.259 83.5923 177.259 83.2723 177.259 83.1123C177.259 78.5798 177.259 73.8606 177.259 69.328C177.259 68.6881 177.099 68.3415 176.459 68.5281C176.299 68.5281 175.979 68.5281 175.819 68.5281C174.672 68.5281 174.672 68.5281 175.019 67.3816C177.952 67.3816 181.018 67.3816 183.951 67.3816C184.271 68.5281 184.111 68.5281 183.151 68.5281C182.511 68.5281 181.845 68.5281 181.045 68.5281C181.045 73.7272 181.045 78.7397 181.045 83.7789C183.978 84.4188 186.244 83.139 186.884 80.3661C187.044 79.8862 187.044 79.3796 187.204 78.8997C187.444 77.9132 187.444 77.7532 188.59 78.0732ZM101.938 46.2918C101.618 48.5581 101.458 50.9844 101.138 53.2773C96.7654 53.2773 92.5261 53.2773 88.3135 53.2773C88.3135 52.9574 88.3135 52.6374 88.3135 52.1308C88.9534 52.1308 89.46 52.1308 90.0999 52.1308C90.5798 52.1308 90.7398 51.9709 90.7398 51.4909C90.7398 46.6118 90.7398 41.7592 90.7398 37.04C90.7398 36.8801 90.7398 36.88 90.7398 36.7201C89.9399 36.7201 89.2733 36.7201 88.4735 36.7201C88.4735 36.2402 88.4735 35.9202 88.4735 35.5736C91.5663 35.5736 94.6324 35.5736 97.7253 35.5736C97.7253 35.8936 97.7253 36.2135 97.7253 36.7201C96.7388 36.7201 95.7789 36.7201 94.6324 36.7201C94.6324 37.04 94.6324 37.36 94.6324 37.5199C94.6324 42.0525 94.6324 46.7717 94.6324 51.3043C94.6324 51.9442 94.7924 52.1042 95.4323 52.1042C98.6851 52.1042 100.125 50.7977 100.791 47.5716C100.791 47.4116 100.951 47.2517 100.951 47.0917C100.631 46.1318 101.138 46.1318 101.938 46.2918ZM128.547 68.5015C128.547 68.0215 128.547 67.7016 128.547 67.355C131.48 67.355 134.386 67.355 137.319 67.355C137.319 67.6749 137.319 67.9949 137.319 68.5015C136.679 68.5015 136.012 68.5015 135.372 68.5015C135.052 68.5015 134.732 68.6614 134.732 68.9814C134.732 73.8606 134.732 78.7131 134.732 83.5923C134.732 83.7522 134.732 83.7522 134.892 83.9122C135.692 83.9122 136.519 83.9122 137.319 83.9122C137.319 84.3921 137.319 84.7121 137.319 85.0587C134.386 85.0587 131.48 85.0587 128.547 85.0587C128.547 84.7387 128.547 84.4188 128.547 83.9122C129.187 83.9122 129.853 83.9122 130.493 83.9122C130.973 83.9122 130.973 83.7522 130.973 83.4323C130.973 78.7397 130.973 73.8606 130.973 69.1413C130.973 68.6614 130.813 68.5015 130.333 68.5015C129.853 68.5015 129.213 68.5015 128.547 68.5015ZM180.805 36.7201C180.805 36.2402 180.805 35.9202 180.805 35.5736C181.125 35.5736 181.445 35.5736 181.605 35.5736C183.871 35.5736 186.297 35.5736 188.59 35.5736C189.55 35.4136 189.55 35.4136 189.55 36.7201C189.23 36.7201 188.75 36.7201 188.244 36.7201C187.924 36.7201 187.444 36.7201 186.937 36.7201C186.937 37.04 186.937 37.36 186.937 37.5199C186.937 42.0525 186.937 46.6118 186.937 51.3043C186.937 52.1042 187.097 52.2908 187.924 52.1042C188.084 52.1042 188.403 52.1042 188.563 52.1042C189.523 52.1042 189.523 52.1042 189.523 53.2507C186.59 53.2507 183.684 53.2507 180.751 53.2507C180.591 52.1042 180.591 52.1042 181.738 52.1042C183.364 52.1042 183.364 52.1042 183.364 50.4778C183.364 46.1052 183.364 41.7059 183.364 37.4933C183.364 36.8534 183.204 36.5068 182.564 36.6934C181.925 36.7201 181.285 36.7201 180.805 36.7201Z" fill="#E1E4E7"/>
</svg>
