<svg width="260" height="120" viewBox="0 0 260 120" fill="none" xmlns="http://www.w3.org/2000/svg">
<rect x="0.5" y="0.5" width="258.2" height="119" rx="19.5" fill="#121315"/>
<rect x="0.5" y="0.5" width="258.2" height="119" rx="19.5" stroke="#62666D"/>
<g clip-path="url(#clip0_966_1911)">
<path fill-rule="evenodd" clip-rule="evenodd" d="M78.7873 32.589C77.5474 32.7481 76.4674 33.1785 75.7979 33.7805C74.9468 34.5457 74.6026 35.351 74.5421 36.7188C74.4754 38.2267 74.7643 39.0619 75.6639 39.9615C76.3512 40.6488 76.8845 41.0119 78.7016 42.0302C81.5091 43.6036 81.9523 44.0977 81.7523 45.4314C81.6197 46.3154 80.5727 46.805 79.5753 46.4493C78.8658 46.1963 78.6666 45.7724 78.6642 44.5105L78.6625 43.5913L76.5336 43.612L74.4047 43.6328L74.4159 44.6484C74.4287 45.8022 74.5593 46.4313 74.9312 47.1313C75.2378 47.7084 75.9823 48.4057 76.6328 48.7252C78.5441 49.664 81.7577 49.6699 83.6101 48.7378C84.9628 48.0573 85.5955 47.0472 85.7831 45.2691C85.9664 43.5313 85.6512 42.4549 84.659 41.43C83.967 40.7153 83.266 40.2424 81.4359 39.2554C79.0779 37.9838 78.6527 37.6097 78.5985 36.7585C78.5395 35.831 78.9837 35.3165 79.8946 35.2572C80.3347 35.2286 80.4773 35.2526 80.7701 35.4045C81.281 35.6695 81.4274 35.975 81.4749 36.875L81.5141 37.6172H83.4672H85.4203L85.4433 36.9559C85.5348 34.3181 84.2085 32.9101 81.3187 32.5777C80.5372 32.4877 79.5412 32.4922 78.7873 32.589ZM130.498 32.6287C128.699 32.8374 127.708 33.2237 126.899 34.032C126.158 34.7731 125.812 35.762 125.823 37.1094C125.833 38.4516 126.178 39.2456 127.144 40.1494C127.803 40.7658 128.305 41.0999 129.946 42.0134C131.688 42.9839 132.409 43.4863 132.738 43.9613C132.977 44.3045 132.998 44.385 132.998 44.9219C132.998 45.6741 132.818 46.0495 132.328 46.3122C132.029 46.4731 131.903 46.4934 131.382 46.4652C130.913 46.4398 130.721 46.3919 130.51 46.2472C130.032 45.9192 129.956 45.7047 129.925 44.5899L129.897 43.5938H127.795H125.694L125.695 44.4727C125.698 46.549 126.37 47.8429 127.843 48.6102C129.306 49.3715 131.725 49.5724 133.662 49.0934C134.893 48.7892 135.982 48.0227 136.461 47.1234C136.854 46.3856 136.971 45.8095 136.977 44.5703C136.982 43.6438 136.956 43.3912 136.807 42.9181C136.398 41.6177 135.373 40.7227 132.569 39.2188C130.151 37.9225 129.721 37.4773 129.864 36.4199C129.918 36.0239 130.074 35.7645 130.411 35.5127C130.588 35.3807 130.743 35.3516 131.266 35.3516C131.81 35.3516 131.943 35.3786 132.16 35.5335C132.553 35.8139 132.672 36.1167 132.71 36.9336L132.744 37.6563H134.687H136.631V36.8856C136.631 35.8796 136.535 35.3959 136.2 34.7121C135.77 33.835 135.041 33.2851 133.801 32.9027C132.999 32.6552 131.408 32.5233 130.498 32.6287ZM177.772 32.6671C175.886 32.909 174.521 33.7516 173.927 35.0391C173.477 36.0163 173.467 36.1408 173.467 40.9375C173.467 44.8917 173.481 45.4028 173.603 45.8432C174.134 47.7635 175.531 48.7749 178.057 49.0685C180.816 49.3894 183.325 48.4661 184.157 46.8234C184.61 45.9288 184.624 45.8102 184.659 42.7539L184.691 39.9219H181.872H179.053V41.0938V42.2656H179.879H180.706L180.68 43.7755C180.655 45.2598 180.651 45.2907 180.447 45.5992C180.152 46.0442 179.772 46.2109 179.053 46.2109C178.334 46.2109 177.954 46.0441 177.659 45.5989L177.452 45.2848V40.9041V36.5234L177.631 36.2096C177.897 35.7474 178.251 35.5368 178.845 35.4891C179.421 35.443 179.808 35.5472 180.159 35.8429C180.519 36.1453 180.616 36.4549 180.616 37.3022V38.0469H182.659H184.702L184.654 37.1289C184.573 35.5909 184.241 34.727 183.434 33.957C182.283 32.8592 180.118 32.366 177.772 32.6671ZM91.2406 33.1141C91.2406 33.1758 88.4839 48.1236 88.3822 48.6133L88.3376 48.8281H90.4839H92.6302L92.7063 48.3789C92.7483 48.1319 93.2354 44.9144 93.7889 41.229C94.347 37.5133 94.82 34.5898 94.8506 34.6665C94.8959 34.7795 96.9437 48.5778 96.9437 48.7697C96.9437 48.8018 97.9143 48.8281 99.1005 48.8281C100.793 48.8281 101.25 48.8071 101.222 48.7305C101.202 48.6768 100.541 45.126 99.7521 40.8399L98.3177 33.0469H94.7792C92.833 33.0469 91.2406 33.0771 91.2406 33.1141ZM104.677 33.0664C104.655 33.3766 104.367 47.0099 104.367 47.7539L104.366 48.8281H106.308H108.251L108.3 48.4656C108.328 48.2663 108.354 45.8493 108.36 43.0945C108.365 40.3399 108.392 37.3209 108.419 36.3859L108.467 34.6859L109.751 41.6202C110.458 45.4342 111.051 48.6162 111.069 48.6914C111.1 48.8172 111.263 48.8281 113.109 48.8281H115.115L116.44 41.6992L117.764 34.5703L117.812 38.0469C117.838 39.959 117.865 43.167 117.871 45.1758L117.881 48.8281H119.873H121.866L121.865 48.0664C121.864 47.6474 121.794 44.3516 121.71 40.7422C121.625 37.1328 121.555 33.9249 121.554 33.6133L121.553 33.0469H118.314H115.076L115.031 33.3008C115.006 33.4405 114.583 36.0684 114.09 39.1406C113.597 42.2129 113.172 44.8145 113.145 44.9219C113.099 45.1017 112.848 43.6293 111.509 35.332L111.141 33.0469H107.909C106.132 33.0469 104.677 33.0556 104.677 33.0664ZM140.638 39.3555C140.67 46.1687 140.66 46.0074 141.106 46.9531C141.871 48.5761 143.88 49.4063 146.709 49.2687C149.325 49.1416 150.798 48.2705 151.494 46.4391L151.669 45.9766L151.692 39.5117L151.715 33.0469H149.722H147.729L147.707 39.2441L147.686 45.4412L147.465 45.7744C147.156 46.2424 146.693 46.4388 146.025 46.3853C145.457 46.3396 145.078 46.1001 144.823 45.6243C144.685 45.3676 144.678 45.0448 144.678 39.2005V33.0469H142.643H140.608L140.638 39.3555ZM156.084 40.8584V48.6719H157.994C159.044 48.6719 159.921 48.6427 159.943 48.607C159.965 48.5714 159.932 45.6832 159.869 42.1889C159.806 38.6946 159.764 35.8261 159.775 35.8143C159.787 35.8026 160.675 38.682 161.75 42.2129L163.703 48.6328H166.515H169.327L169.346 40.8399L169.366 33.0469H167.393H165.42L165.438 33.6914C165.488 35.5208 165.624 45.33 165.6 45.3544C165.584 45.37 164.762 42.616 163.774 39.2344L161.976 33.0859L159.03 33.0655L156.084 33.045V40.8584ZM74.385 70.5274L74.4047 87.4609L78.6427 87.4812L82.8806 87.5013L82.9005 78.1914L82.9203 68.8814L88.8178 78.1907L94.7152 87.5H98.8373H102.959V70.5469V53.5938H98.7019H94.4444L94.4245 62.4966L94.4047 71.3996L88.745 62.4966L83.0853 53.5938H78.7253H74.3652L74.385 70.5274ZM104.854 70.5274L104.873 87.4609H115.459H126.045L126.066 83.3399L126.086 79.2188H119.717H113.348L113.368 76.8945L113.389 74.5703L119.737 74.5503L126.084 74.5303V70.4297V66.3291L119.737 66.3091L113.389 66.2891L113.368 64.0825L113.348 61.8759L119.696 61.8559L126.045 61.8359L126.066 57.7149L126.086 53.5938H115.46H104.834L104.854 70.5274ZM127.118 53.7695C127.326 54.0889 137.15 70.1917 137.244 70.368C137.328 70.5245 136.873 71.3005 132.37 78.6774C129.638 83.1527 127.317 86.9509 127.212 87.1181L127.02 87.4219H131.847H136.674L141.978 79.013C144.895 74.3881 147.282 70.5649 147.281 70.5169C147.28 70.4689 144.88 66.6416 141.946 62.0117L136.613 53.5938H131.809H127.004L127.118 53.7695ZM146.944 53.6413C146.944 53.6674 148.165 55.6863 149.659 58.1277C151.704 61.4727 152.395 62.544 152.462 62.4747C152.511 62.4241 153.772 60.4492 155.266 58.0859C156.759 55.7227 158.015 53.7452 158.058 53.6914C158.119 53.6134 157.005 53.5938 152.539 53.5938C149.462 53.5938 146.944 53.6151 146.944 53.6413ZM159.6 57.7344V61.875H163.74H167.881L167.901 74.668L167.92 87.4609L172.159 87.4812L176.397 87.5013V74.6882V61.875H180.577H184.756V57.7344V53.5938H172.178H159.6V57.7344ZM149.649 82.9324C148.161 85.3616 146.944 87.3831 146.944 87.4246C146.944 87.4724 148.978 87.5 152.491 87.5C156.45 87.5 158.037 87.4756 158.037 87.4146C158.037 87.3092 152.47 78.5161 152.403 78.5159C152.377 78.5157 151.138 80.5032 149.649 82.9324Z" fill="#E1E4E7"/>
</g>
<defs>
<clipPath id="clip0_966_1911">
<rect width="110.469" height="55" fill="white" transform="translate(74.3656 32.5)"/>
</clipPath>
</defs>
</svg>
